#N canvas 100 30 1018 770 10;
#X floatatom 89 220 5 0 0 0 - - -, f 5;
#X floatatom 146 220 5 0 0 0 - - -, f 5;
#X obj 226 220 tosymbol;
#X obj 283 220 tosymbol;
#X symbolatom 391 191 10 0 0 0 - - -, f 10;
#X symbolatom 448 220 10 0 0 0 - - -, f 10;
#X obj 89 298 fromsymbol;
#X symbolatom 89 271 20 0 0 0 - - -, f 20;
#X obj 226 298 fromsymbol;
#X symbolatom 226 271 20 0 0 0 - - -, f 20;
#X msg 226 194 Wh;
#X msg 312 165 ere;
#X msg 283 165 o;
#X msg 344 165 en;
#X msg 226 351 15 ere;
#X obj 391 298 fromsymbol;
#X symbolatom 391 271 20 0 0 0 - - -, f 20;
#X msg 391 351 ff eeeeee;
#X obj 391 328 prepend set;
#X floatatom 89 371 5 0 0 0 - - -, f 5;
#X floatatom 146 371 5 0 0 0 - - -, f 5;
#X obj 89 328 unpack f f;
#X obj 226 328 prepend set;
#X obj 553 220 tosymbol;
#X obj 610 220 tosymbol;
#X obj 553 298 fromsymbol;
#X symbolatom 553 271 40 0 0 0 - - -, f 40;
#X msg 553 351 Who is in the ocean swimming?;
#X obj 553 328 prepend set;
#X msg 553 54 Who is in the;
#X msg 639 130 car down the street?;
#X msg 610 88 tree next to the house?;
#X msg 671 165 ocean swimming?;
#X floatatom 189 193 5 0 0 0 - - -, f 5;
#X floatatom 413 220 5 0 0 0 - - -, f 5;
#X floatatom 678 220 5 0 0 0 - - -, f 5;
#X obj 95 539 fromsymbol;
#X symbolatom 95 512 20 0 0 0 - - -, f 20;
#X msg 95 603 This So;
#X obj 95 580 prepend set;
#X obj 95 457 tosymbol;
#X obj 200 460 tosymbol;
#X msg 200 434 So;
#X msg 95 431 This;
#X obj 89 247 6_append;
#X obj 226 246 6_append;
#X obj 391 247 6_append;
#X obj 553 246 6_append;
#X obj 95 488 6_append well;
#X text 208 487 argument gives you a default string to append;
#X obj 435 583 cnv 15 380 60 empty empty empty 20 12 0 14 -262130 -66577
0;
#X text 447 587 [6_append];
#X text 449 602 Combine two input atoms as strings;
#X connect 0 0 44 0;
#X connect 1 0 44 1;
#X connect 2 0 45 0;
#X connect 3 0 45 1;
#X connect 4 0 46 0;
#X connect 5 0 46 1;
#X connect 6 0 21 0;
#X connect 7 0 6 0;
#X connect 8 0 22 0;
#X connect 9 0 8 0;
#X connect 10 0 2 0;
#X connect 11 0 3 0;
#X connect 12 0 3 0;
#X connect 13 0 3 0;
#X connect 15 0 18 0;
#X connect 16 0 15 0;
#X connect 18 0 17 0;
#X connect 21 0 19 0;
#X connect 21 1 20 0;
#X connect 22 0 14 0;
#X connect 23 0 47 0;
#X connect 24 0 47 1;
#X connect 25 0 28 0;
#X connect 26 0 25 0;
#X connect 28 0 27 0;
#X connect 29 0 23 0;
#X connect 30 0 24 0;
#X connect 31 0 24 0;
#X connect 32 0 24 0;
#X connect 33 0 45 0;
#X connect 34 0 46 1;
#X connect 35 0 47 1;
#X connect 36 0 39 0;
#X connect 37 0 36 0;
#X connect 39 0 38 0;
#X connect 40 0 48 0;
#X connect 41 0 48 1;
#X connect 42 0 41 0;
#X connect 43 0 40 0;
#X connect 44 0 7 0;
#X connect 45 0 9 0;
#X connect 46 0 16 0;
#X connect 47 0 26 0;
#X connect 48 0 37 0;
