#N canvas 100 30 728 705 10;
#X floatatom 64 112 5 0 0 0 - - -, f 5;
#X floatatom 121 115 5 0 0 0 - - -, f 5;
#X obj 201 117 tosymbol;
#X obj 294 89 tosymbol;
#X symbolatom 366 86 10 0 0 0 - - -, f 10;
#X symbolatom 423 109 10 0 0 0 - - -, f 10;
#X obj 64 193 fromsymbol;
#X symbolatom 64 166 20 0 0 0 - - -, f 20;
#X floatatom 64 219 10 0 0 0 - - -, f 10;
#X obj 201 193 fromsymbol;
#X symbolatom 201 165 20 0 0 0 - - -, f 20;
#X msg 201 89 Wh;
#X msg 323 32 ere;
#X msg 294 32 o;
#X msg 355 32 en;
#X msg 201 246 Whhello;
#X obj 201 219 prepend set;
#X obj 366 194 fromsymbol;
#X symbolatom 366 166 20 0 0 0 - - -, f 20;
#X msg 366 247 eeedefault;
#X obj 366 220 prepend set;
#X obj 64 142 6_concat;
#X obj 201 141 6_concat hello;
#X obj 366 142 6_concat;
#X obj 63 312 cnv 15 380 60 empty empty empty 20 12 0 14 -262130 -66577
0;
#X text 75 316 [6_concat];
#X text 77 331 Concatenate input atoms as strings;
#X connect 0 0 21 0;
#X connect 1 0 21 1;
#X connect 2 0 22 0;
#X connect 3 0 22 1;
#X connect 4 0 23 0;
#X connect 5 0 23 1;
#X connect 6 0 8 0;
#X connect 7 0 6 0;
#X connect 9 0 16 0;
#X connect 10 0 9 0;
#X connect 11 0 2 0;
#X connect 12 0 3 0;
#X connect 13 0 3 0;
#X connect 14 0 3 0;
#X connect 16 0 15 0;
#X connect 17 0 20 0;
#X connect 18 0 17 0;
#X connect 20 0 19 0;
#X connect 21 0 7 0;
#X connect 22 0 10 0;
#X connect 23 0 18 0;
