#N canvas 100 30 1184 832 10;
#X text 356 12 remember right to left order;
#X obj 194 131 tosymbol;
#X obj 194 227 unpack s f;
#X obj 194 284 prepend set;
#X msg 194 318 yes yes yes yes;
#X floatatom 251 251 5 0 0 1 number_of_removals - -, f 5;
#X obj 138 437 tosymbol;
#X obj 138 506 unpack s f;
#X obj 138 563 prepend set;
#X msg 138 597 o__ooo_---ooo;
#X floatatom 195 530 5 0 0 1 number_of_removals - -, f 5;
#X msg 194 93 no yes no yes no yes no yes;
#X msg 147 71 noyesnononononoyes;
#X msg 138 412 xox_oxo*-;
#X msg 106 389 ox_xxx_ooo_---xooo;
#X obj 534 164 tosymbol;
#X obj 534 233 unpack s f;
#X obj 534 290 prepend set;
#X msg 534 324 abcdefg;
#X floatatom 591 257 5 0 0 1 number_of_removals - -, f 5;
#X msg 534 124 /a/b/c/d/e/f/g;
#X obj 138 462 s3g.remove x;
#X obj 449 592 unpack s f;
#X obj 449 649 prepend set;
#X msg 449 683 Here in Providence there is trouble with the .;
#X floatatom 506 616 5 0 0 1 number_of_removals - -, f 5;
#X obj 449 548 s3g.remove;
#X symbolatom 506 488 10 0 0 0 - - -, f 10;
#X symbolatom 449 465 10 0 0 0 - - -, f 10;
#X msg 494 88 what /where /when /how;
#X obj 597 487 makefilename %c;
#X msg 597 458 32;
#X obj 597 514 tosymbol;
#X msg 413 431 Here in Providence there is trouble with the mayor.
;
#X msg 375 408 Where to go with this?;
#X obj 380 502 tosymbol;
#X text 633 462 < a way to set in order to remove spaces;
#X text 721 478 also see s3g.killspaces;
#X obj 194 183 6_remove no;
#X obj 534 189 6_remove /;
#X obj 699 120 cnv 15 380 60 empty empty empty 20 12 0 14 -262130 -66577
0;
#X text 711 124 [6_remove];
#X text 713 139 Remove characters in a string;
#X connect 1 0 38 0;
#X connect 2 0 3 0;
#X connect 2 1 5 0;
#X connect 3 0 4 0;
#X connect 6 0 21 0;
#X connect 7 0 8 0;
#X connect 7 1 10 0;
#X connect 8 0 9 0;
#X connect 11 0 1 0;
#X connect 12 0 1 0;
#X connect 13 0 6 0;
#X connect 14 0 6 0;
#X connect 15 0 39 0;
#X connect 16 0 17 0;
#X connect 16 1 19 0;
#X connect 17 0 18 0;
#X connect 20 0 15 0;
#X connect 21 0 7 0;
#X connect 22 0 23 0;
#X connect 22 1 25 0;
#X connect 23 0 24 0;
#X connect 26 0 22 0;
#X connect 27 0 26 1;
#X connect 28 0 26 0;
#X connect 29 0 15 0;
#X connect 30 0 32 0;
#X connect 31 0 30 0;
#X connect 32 0 26 1;
#X connect 33 0 35 0;
#X connect 34 0 35 0;
#X connect 35 0 26 0;
#X connect 38 0 2 0;
#X connect 39 0 16 0;
