#N canvas 100 30 1330 839 10;
#X text 356 12 remember right to left order;
#X obj 194 131 tosymbol;
#X obj 194 227 unpack s f;
#X obj 194 284 prepend set;
#X msg 194 318 yes yes yes yes;
#X floatatom 251 251 5 0 0 1 number_of_substitutions - -, f 5;
#X obj 138 437 tosymbol;
#X obj 138 506 unpack s f;
#X obj 138 563 prepend set;
#X msg 138 597 o o o oo o ooo oo o o o;
#X floatatom 195 530 5 0 0 1 number_of_substitutions - -, f 5;
#X msg 194 93 no yes no yes no yes no yes;
#X msg 147 71 noyesnononononoyes;
#X msg 138 412 xox_oxo*-;
#X msg 106 389 ox_xxx_ooo_---xooo;
#X obj 541 259 tosymbol;
#X obj 541 328 unpack s f;
#X obj 541 385 prepend set;
#X msg 541 419  a b c d e f g;
#X floatatom 598 352 5 0 0 1 number_of_substitutions - -, f 5;
#X msg 541 219 /a/b/c/d/e/f/g;
#X msg 467 183 //s///s////a///s;
#X msg 40 366 xoxoxoxooxoxoooxooxoxoxo;
#X obj 138 462 6_subspaces x;
#X obj 574 49 cnv 15 380 60 empty empty empty 20 12 0 14 -262130 -66577
0;
#X text 588 68 Replaces a string with a space (substitute with spaces)
;
#X obj 194 183 6_spacereplace no;
#X obj 541 284 6_spacereplace /;
#X text 586 53 [6_spacereplace];
#X connect 1 0 26 0;
#X connect 2 0 3 0;
#X connect 2 1 5 0;
#X connect 3 0 4 0;
#X connect 6 0 23 0;
#X connect 7 0 8 0;
#X connect 7 1 10 0;
#X connect 8 0 9 0;
#X connect 11 0 1 0;
#X connect 12 0 1 0;
#X connect 13 0 6 0;
#X connect 14 0 6 0;
#X connect 15 0 27 0;
#X connect 16 0 17 0;
#X connect 16 1 19 0;
#X connect 17 0 18 0;
#X connect 20 0 15 0;
#X connect 21 0 15 0;
#X connect 22 0 6 0;
#X connect 23 0 7 0;
#X connect 26 0 2 0;
#X connect 27 0 16 0;
