#N canvas 100 30 1273 890 10;
#X msg 79 62 whattheheck;
#X obj 79 226 tosymbol;
#X floatatom 170 156 5 0 0 1 start_position_for_substring - -, f 5
;
#X floatatom 178 189 5 0 0 1 finish_position_of_substring - -, f 5
;
#X symbolatom 79 306 10 0 0 0 - - -, f 10;
#X obj 79 333 prepend set;
#X msg 79 357 what;
#X msg 106 91 breaking up a string is hard to do;
#X text 133 280 default start and finish of substring is position one
;
#X msg 505 62 whattheheck;
#X obj 505 226 tosymbol;
#X floatatom 591 158 5 0 0 1 start_position_for_substring - -, f 5
;
#X symbolatom 505 306 10 0 0 0 - - -, f 10;
#X obj 505 333 prepend set;
#X msg 505 357 theheck;
#X msg 532 91 breaking up a string is hard to do;
#X obj 79 451 tosymbol;
#X symbolatom 79 531 10 0 0 0 - - -, f 10;
#X obj 79 558 prepend set;
#X msg 79 582 123;
#X text 166 458 could be useful when you need to extract the good stuff
;
#X msg 79 424 garbageattheebeginning 123 garbageontheend;
#X obj 450 597 tosymbol;
#X symbolatom 450 677 10 0 0 0 - - -, f 10;
#X obj 450 704 prepend set;
#X msg 450 728 3333;
#X obj 602 597 tosymbol;
#X symbolatom 602 677 10 0 0 0 - - -, f 10;
#X obj 602 704 prepend set;
#X msg 602 728 40 5;
#X msg 602 557 2000 40 5;
#X msg 56 399 garbageattheebeginning 883 garbageontheend;
#X msg 412 557 3.33331e+07;
#X msg 491 557 2ssq0021;
#X msg 686 557 2000 Y 202;
#X text 627 257 -1 is the end of the string (very handy!);
#X obj 79 259 6_substring;
#X obj 505 259 6_substring 5 -1;
#X obj 79 484 6_substring 24 26;
#X obj 450 630 6_substring 1 4;
#X obj 602 630 6_substring 6 10;
#X obj 655 377 cnv 15 380 60 empty empty empty 20 12 0 14 -262130 -66577
0;
#X text 667 381 [6_substring];
#X text 669 396 Grab a substring based on start and end positions;
#X connect 0 0 1 0;
#X connect 1 0 36 0;
#X connect 2 0 36 1;
#X connect 3 0 36 2;
#X connect 4 0 5 0;
#X connect 5 0 6 0;
#X connect 7 0 1 0;
#X connect 9 0 10 0;
#X connect 10 0 37 0;
#X connect 11 0 37 1;
#X connect 12 0 13 0;
#X connect 13 0 14 0;
#X connect 15 0 10 0;
#X connect 16 0 38 0;
#X connect 17 0 18 0;
#X connect 18 0 19 0;
#X connect 21 0 16 0;
#X connect 22 0 39 0;
#X connect 23 0 24 0;
#X connect 24 0 25 0;
#X connect 26 0 40 0;
#X connect 27 0 28 0;
#X connect 28 0 29 0;
#X connect 30 0 26 0;
#X connect 31 0 16 0;
#X connect 32 0 39 0;
#X connect 33 0 22 0;
#X connect 34 0 26 0;
#X connect 36 0 4 0;
#X connect 37 0 12 0;
#X connect 38 0 17 0;
#X connect 39 0 23 0;
#X connect 40 0 27 0;
