#N canvas 100 30 658 382 10;
#X obj 146 65 tosymbol;
#X symbolatom 146 116 10 0 0 0 - - -, f 10;
#X obj 146 141 prepend set;
#X msg 146 168 WHO WOULD FORMAT ANYTHING LIKE THIS!;
#X msg 231 30 Who WouLD FORmaT anYthinG LIKE thiS!;
#X msg 184 30 where;
#X msg 146 30 what;
#X obj 146 91 6_upper;
#X obj 81 223 cnv 15 380 60 empty empty empty 20 12 0 14 -262130 -66577
0;
#X text 93 227 [6_upper];
#X text 95 242 Make all characters in a string uppercase;
#X connect 0 0 7 0;
#X connect 1 0 2 0;
#X connect 2 0 3 0;
#X connect 4 0 0 0;
#X connect 5 0 0 0;
#X connect 6 0 0 0;
#X connect 7 0 1 0;
