#N canvas 426 61 601 632 10;
#X floatatom -4 188 20 0 0 0 - - -, f 20;
#X floatatom -4 235 20 0 0 0 - - -, f 20;
#X floatatom -5 278 20 0 0 0 - - -, f 20;
#X floatatom -5 325 20 0 0 0 - - -, f 20;
#X floatatom 140 278 20 0 0 0 - - -, f 20;
#X floatatom 140 325 20 0 0 0 - - -, f 20;
#X obj -54 35 cnv 15 380 60 empty empty empty 20 12 0 14 -262130 -66577
0;
#X text -40 54 Subtraction with operands reversed \, outputs the difference
against the instantiated argument.;
#X obj 144 191 tgl 15 0 empty empty empty 17 7 0 10 -262144 -1 -1 0
1;
#X obj 144 235 tgl 15 0 empty empty empty 17 7 0 10 -262144 -1 -1 0
1;
#X text 206 210 < use to get get the opposite of a toggle;
#X obj -4 211 6_!- 1;
#X obj -5 301 6_!- 10;
#X obj 144 212 6_!- 1;
#X obj 140 301 6_!- 2000;
#X text -42 39 [6_!-];
#X connect 0 0 11 0;
#X connect 2 0 12 0;
#X connect 4 0 14 0;
#X connect 8 0 13 0;
#X connect 11 0 1 0;
#X connect 12 0 3 0;
#X connect 13 0 9 0;
#X connect 14 0 5 0;
