#N canvas 261 167 1242 636 10;
#X obj 176 97 osc~ 300;
#X obj 353 40 cnv 15 380 60 empty empty empty 20 12 0 14 -262130 -66577
0;
#X obj 34 269 tgl 15 0 empty empty empty 17 7 0 10 -262144 -1 -1 0
1;
#X msg 34 294 \; pd dsp \$1;
#X obj 277 387 vu 15 80 empty empty -1 -8 0 7 -66577 -1 1 0;
#X obj 276 337 env~;
#X obj 276 361 - 100;
#X obj 333 388 vu 15 80 empty empty -1 -8 0 7 -66577 -1 1 0;
#X obj 332 338 env~;
#X obj 332 362 - 100;
#X obj 387 387 vu 15 80 empty empty -1 -8 0 7 -66577 -1 1 0;
#X obj 386 337 env~;
#X obj 386 361 - 100;
#X obj 443 388 vu 15 80 empty empty -1 -8 0 7 -66577 -1 1 0;
#X obj 442 338 env~;
#X obj 442 362 - 100;
#X text 365 44 [6_pan4~];
#X msg 762 174 \; p1 /x \$1;
#X msg 925 233 \; p1 /y \$1;
#X floatatom 762 144 5 0 0 0 - - -, f 5;
#X floatatom 925 211 5 0 0 0 - - -, f 5;
#X obj 765 54 hsl 128 15 0 1 0 0 empty empty empty -2 -8 0 10 -262144
-1 -1 0 1;
#X obj 925 50 vsl 15 128 0 1 0 0 empty empty empty 0 -9 0 10 -262144
-1 -1 0 1;
#X obj 176 124 *~ 0.7;
#X obj 925 184 6_!- 1;
#X obj 176 159 6_pan~;
#X obj 118 537 dac~ 1 2 3 4 5 6 7 8;
#X obj 645 388 vu 15 80 empty empty -1 -8 0 7 -66577 -1 1 0;
#X obj 644 338 env~;
#X obj 644 362 - 100;
#X obj 701 389 vu 15 80 empty empty -1 -8 0 7 -66577 -1 1 0;
#X obj 700 339 env~;
#X obj 700 363 - 100;
#X obj 755 388 vu 15 80 empty empty -1 -8 0 7 -66577 -1 1 0;
#X obj 754 338 env~;
#X obj 754 362 - 100;
#X obj 811 389 vu 15 80 empty empty -1 -8 0 7 -66577 -1 1 0;
#X obj 810 339 env~;
#X obj 810 363 - 100;
#X msg 824 173 \; p2 /x \$1;
#X msg 988 234 \; p2 /y \$1;
#X text 367 59 Using 1 6_pan~ and two 6_pan4~ abstractions to create
x \, y \, z coordinates;
#X text 289 171 < Z coordinate (moving between the two stacked quad
configurations);
#X obj 132 281 6_4pan~ p1;
#X obj 500 282 6_4pan~ p2;
#X connect 0 0 23 0;
#X connect 2 0 3 0;
#X connect 5 0 6 0;
#X connect 6 0 4 0;
#X connect 8 0 9 0;
#X connect 9 0 7 0;
#X connect 11 0 12 0;
#X connect 12 0 10 0;
#X connect 14 0 15 0;
#X connect 15 0 13 0;
#X connect 19 0 17 0;
#X connect 19 0 39 0;
#X connect 20 0 18 0;
#X connect 20 0 40 0;
#X connect 21 0 19 0;
#X connect 22 0 24 0;
#X connect 23 0 25 0;
#X connect 24 0 20 0;
#X connect 25 0 43 0;
#X connect 25 1 44 0;
#X connect 28 0 29 0;
#X connect 29 0 27 0;
#X connect 31 0 32 0;
#X connect 32 0 30 0;
#X connect 34 0 35 0;
#X connect 35 0 33 0;
#X connect 37 0 38 0;
#X connect 38 0 36 0;
#X connect 43 0 5 0;
#X connect 43 0 26 0;
#X connect 43 1 8 0;
#X connect 43 1 26 1;
#X connect 43 2 11 0;
#X connect 43 2 26 2;
#X connect 43 3 14 0;
#X connect 43 3 26 3;
#X connect 44 0 28 0;
#X connect 44 1 31 0;
#X connect 44 2 34 0;
#X connect 44 3 37 0;
