#N canvas 239 82 1244 803 10;
#X obj 381 155 cnv 15 380 60 empty empty empty 20 12 0 14 -262130 -66577
0;
#X obj 62 384 tgl 15 0 empty empty empty 17 7 0 10 -262144 -1 -1 0
1;
#X msg 62 409 \; pd dsp \$1;
#X obj 305 502 vu 15 80 empty empty -1 -8 0 7 -66577 -1 1 0;
#X obj 304 452 env~;
#X obj 304 476 - 100;
#X obj 361 503 vu 15 80 empty empty -1 -8 0 7 -66577 -1 1 0;
#X obj 360 453 env~;
#X obj 360 477 - 100;
#X obj 415 502 vu 15 80 empty empty -1 -8 0 7 -66577 -1 1 0;
#X obj 414 452 env~;
#X obj 414 476 - 100;
#X obj 471 503 vu 15 80 empty empty -1 -8 0 7 -66577 -1 1 0;
#X obj 470 453 env~;
#X obj 470 477 - 100;
#X text 393 159 [6_pan4~];
#X msg 790 289 \; p1 /x \$1;
#X msg 953 348 \; p1 /y \$1;
#X floatatom 790 259 5 0 0 0 - - -, f 5;
#X floatatom 953 326 5 0 0 0 - - -, f 5;
#X obj 793 169 hsl 128 15 0 1 0 0 empty empty empty -2 -8 0 10 -262144
-1 -1 0 1;
#X obj 953 165 vsl 15 128 0 1 0 0 empty empty empty 0 -9 0 10 -262144
-1 -1 0 1;
#X obj 953 299 6_!- 1;
#X obj 204 274 6_pan~;
#X obj 673 503 vu 15 80 empty empty -1 -8 0 7 -66577 -1 1 0;
#X obj 672 453 env~;
#X obj 672 477 - 100;
#X obj 729 504 vu 15 80 empty empty -1 -8 0 7 -66577 -1 1 0;
#X obj 728 454 env~;
#X obj 728 478 - 100;
#X obj 783 503 vu 15 80 empty empty -1 -8 0 7 -66577 -1 1 0;
#X obj 782 453 env~;
#X obj 782 477 - 100;
#X obj 839 504 vu 15 80 empty empty -1 -8 0 7 -66577 -1 1 0;
#X obj 838 454 env~;
#X obj 838 478 - 100;
#X msg 852 288 \; p2 /x \$1;
#X msg 1016 349 \; p2 /y \$1;
#X text 395 174 Using 1 6_pan~ and two 6_pan4~ abstractions to create
x \, y \, z coordinates;
#X text 317 286 < Z coordinate (moving between the two stacked quad
configurations);
#X obj 204 239 *~ 0.1;
#X obj 136 127 noise~;
#X obj 165 199 *~;
#X obj 186 170 line~;
#X obj 207 115 tgl 15 0 empty empty empty 17 7 0 10 -262144 -1 -1 0
1;
#X obj 227 28 tgl 15 0 empty empty empty 17 7 0 10 -262144 -1 -1 0
1;
#X msg 202 144 \$1 10;
#X obj 222 60 metro 50;
#X msg 317 243 /pan \$1;
#X obj 315 114 random 100;
#X obj 309 149 / 100;
#X floatatom 309 174 5 0 0 0 - - -, f 5;
#X obj 330 219 line;
#X msg 316 194 \$1 100;
#X obj 771 33 random 100;
#X obj 765 68 / 100;
#X floatatom 765 93 5 0 0 0 - - -, f 5;
#X obj 786 138 line;
#X msg 772 113 \$1 100;
#X obj 947 16 random 100;
#X obj 941 51 / 100;
#X floatatom 941 76 5 0 0 0 - - -, f 5;
#X obj 962 121 line;
#X msg 948 96 \$1 100;
#X floatatom 278 33 5 0 0 0 - - -, f 5;
#X obj 510 40 tgl 15 0 empty empty empty 17 7 0 10 -262144 -1 -1 0
1;
#X floatatom 561 45 5 0 0 0 - - -, f 5;
#X obj 505 72 metro 500;
#X obj 364 52 readsf~;
#X obj 509 714 dac~ 9 10 11 12 13 14 15 16;
#X obj 160 396 6_4pan~ p1;
#X obj 528 397 6_4pan~ p2;
#X connect 1 0 2 0;
#X connect 4 0 5 0;
#X connect 5 0 3 0;
#X connect 7 0 8 0;
#X connect 8 0 6 0;
#X connect 10 0 11 0;
#X connect 11 0 9 0;
#X connect 13 0 14 0;
#X connect 14 0 12 0;
#X connect 18 0 16 0;
#X connect 18 0 36 0;
#X connect 19 0 17 0;
#X connect 19 0 37 0;
#X connect 20 0 18 0;
#X connect 21 0 22 0;
#X connect 22 0 19 0;
#X connect 23 0 70 0;
#X connect 23 1 71 0;
#X connect 25 0 26 0;
#X connect 26 0 24 0;
#X connect 28 0 29 0;
#X connect 29 0 27 0;
#X connect 31 0 32 0;
#X connect 32 0 30 0;
#X connect 34 0 35 0;
#X connect 35 0 33 0;
#X connect 40 0 23 0;
#X connect 41 0 42 0;
#X connect 42 0 40 0;
#X connect 43 0 42 1;
#X connect 44 0 46 0;
#X connect 45 0 47 0;
#X connect 46 0 43 0;
#X connect 47 0 44 0;
#X connect 48 0 23 1;
#X connect 49 0 50 0;
#X connect 50 0 51 0;
#X connect 51 0 53 0;
#X connect 52 0 48 0;
#X connect 53 0 52 0;
#X connect 54 0 55 0;
#X connect 55 0 56 0;
#X connect 56 0 58 0;
#X connect 57 0 20 0;
#X connect 58 0 57 0;
#X connect 59 0 60 0;
#X connect 60 0 61 0;
#X connect 61 0 63 0;
#X connect 62 0 21 0;
#X connect 63 0 62 0;
#X connect 64 0 47 1;
#X connect 65 0 67 0;
#X connect 66 0 67 1;
#X connect 67 0 49 0;
#X connect 67 0 54 0;
#X connect 67 0 59 0;
#X connect 70 0 4 0;
#X connect 70 0 69 0;
#X connect 70 1 7 0;
#X connect 70 1 69 1;
#X connect 70 2 10 0;
#X connect 70 2 69 3;
#X connect 70 3 13 0;
#X connect 70 3 69 2;
#X connect 71 0 25 0;
#X connect 71 0 69 4;
#X connect 71 1 28 0;
#X connect 71 1 69 5;
#X connect 71 2 31 0;
#X connect 71 2 69 7;
#X connect 71 3 34 0;
#X connect 71 3 69 6;
