#N canvas 186 91 1362 702 10;
#X obj 102 351 outlet~;
#X obj 892 41 inlet;
#X obj 102 301 *~;
#X floatatom 892 91 5 0 0 0 - - -, f 5;
#X obj 211 351 outlet~;
#X obj 211 297 *~;
#N canvas 0 22 450 300 pan 0;
#X obj 118 228 outlet;
#X obj 118 97 inlet;
#X obj 118 200 tabread pancurve;
#X obj 118 175 mod 1000;
#X obj 118 148 + 800;
#X connect 1 0 4 0;
#X connect 2 0 0 0;
#X connect 3 0 2 0;
#X connect 4 0 3 0;
#X restore 226 189 pd pan;
#N canvas 0 22 450 300 pan 0;
#X obj 118 228 outlet;
#X obj 118 97 inlet;
#X obj 118 200 tabread pancurve;
#X obj 118 175 mod 1000;
#X obj 118 148 + 600;
#X connect 1 0 4 0;
#X connect 2 0 0 0;
#X connect 3 0 2 0;
#X connect 4 0 3 0;
#X restore 117 189 pd pan;
#X obj 314 351 outlet~;
#X obj 314 301 *~;
#X obj 423 351 outlet~;
#X obj 423 297 *~;
#N canvas 0 22 450 300 pan 0;
#X obj 118 228 outlet;
#X obj 118 97 inlet;
#X obj 118 200 tabread pancurve;
#X obj 118 175 mod 1000;
#X obj 118 148 + 200;
#X connect 1 0 4 0;
#X connect 2 0 0 0;
#X connect 3 0 2 0;
#X connect 4 0 3 0;
#X restore 438 189 pd pan;
#N canvas 0 22 450 300 pan 0;
#X obj 118 228 outlet;
#X obj 118 97 inlet;
#X obj 118 200 tabread pancurve;
#X obj 118 175 mod 1000;
#X obj 118 148 + 0;
#X connect 1 0 4 0;
#X connect 2 0 0 0;
#X connect 3 0 2 0;
#X connect 4 0 3 0;
#X restore 329 189 pd pan;
#X obj 533 351 outlet~;
#X obj 533 301 *~;
#N canvas 0 22 450 300 pan 0;
#X obj 118 228 outlet;
#X obj 118 97 inlet;
#X obj 118 200 tabread pancurve;
#X obj 118 175 mod 1000;
#X obj 118 148 + 400;
#X connect 1 0 4 0;
#X connect 2 0 0 0;
#X connect 3 0 2 0;
#X connect 4 0 3 0;
#X restore 548 189 pd pan;
#X obj 892 69 * 1000;
#X obj 102 28 inlet~;
#X obj 548 262 line~;
#X msg 548 236 \$1 20;
#X obj 438 262 line~;
#X msg 438 236 \$1 20;
#X obj 329 262 line~;
#X msg 329 236 \$1 20;
#X obj 226 262 line~;
#X msg 226 236 \$1 20;
#X obj 117 262 line~;
#X msg 117 236 \$1 20;
#X connect 1 0 17 0;
#X connect 2 0 0 0;
#X connect 3 0 6 0;
#X connect 3 0 7 0;
#X connect 3 0 13 0;
#X connect 3 0 12 0;
#X connect 3 0 16 0;
#X connect 5 0 4 0;
#X connect 6 0 26 0;
#X connect 7 0 28 0;
#X connect 9 0 8 0;
#X connect 11 0 10 0;
#X connect 12 0 22 0;
#X connect 13 0 24 0;
#X connect 15 0 14 0;
#X connect 16 0 20 0;
#X connect 17 0 3 0;
#X connect 18 0 2 0;
#X connect 18 0 5 0;
#X connect 18 0 9 0;
#X connect 18 0 11 0;
#X connect 18 0 15 0;
#X connect 19 0 15 1;
#X connect 20 0 19 0;
#X connect 21 0 11 1;
#X connect 22 0 21 0;
#X connect 23 0 9 1;
#X connect 24 0 23 0;
#X connect 25 0 5 1;
#X connect 26 0 25 0;
#X connect 27 0 2 1;
#X connect 28 0 27 0;
