#N canvas 0 22 1203 816 10;
#X floatatom 302 387 5 0 0 0 - - -, f 5;
#X obj 846 357 delay 1;
#X obj 784 357 delay 2;
#X obj 784 422 f;
#X floatatom 784 466 5 0 0 0 - - -, f 5;
#X obj 846 422 f;
#X floatatom 846 466 5 0 0 0 - - -, f 5;
#X obj 909 422 f;
#X floatatom 909 465 5 0 0 0 - - -, f 5;
#X floatatom 302 204 5 0 0 0 - - -, f 5;
#X obj 302 286 t f b;
#X obj 846 506 +;
#X obj 784 526 +;
#X floatatom 348 556 5 0 0 0 - - -, f 5;
#X floatatom 348 602 5 0 0 0 - - -, f 5;
#X obj 302 152 inlet;
#X obj 348 636 outlet;
#X obj 348 319 t b b b b b b b b b b, f 94;
#X obj 659 422 f;
#X floatatom 659 466 5 0 0 0 - - -, f 5;
#X obj 722 422 f;
#X floatatom 722 466 5 0 0 0 - - -, f 5;
#X obj 722 506 +;
#X obj 659 526 +;
#X obj 535 423 f;
#X floatatom 535 467 5 0 0 0 - - -, f 5;
#X obj 597 423 f;
#X floatatom 597 467 5 0 0 0 - - -, f 5;
#X obj 597 507 +;
#X obj 535 527 +;
#X obj 410 423 f;
#X floatatom 410 467 5 0 0 0 - - -, f 5;
#X obj 472 423 f;
#X floatatom 472 467 5 0 0 0 - - -, f 5;
#X obj 472 507 +;
#X obj 410 527 +;
#X obj 348 423 f;
#X floatatom 348 467 5 0 0 0 - - -, f 5;
#X obj 348 527 +;
#X obj 722 357 delay 3;
#X obj 659 357 delay 4;
#X obj 597 358 delay 5;
#X obj 535 358 delay 6;
#X obj 472 358 delay 7;
#X obj 410 358 delay 8;
#X obj 348 358 delay 9;
#X obj 348 576 / 10;
#X connect 0 0 36 1;
#X connect 1 0 5 0;
#X connect 2 0 3 0;
#X connect 3 0 4 0;
#X connect 4 0 5 1;
#X connect 4 0 12 0;
#X connect 5 0 6 0;
#X connect 6 0 7 1;
#X connect 6 0 11 0;
#X connect 7 0 8 0;
#X connect 8 0 11 1;
#X connect 9 0 10 0;
#X connect 10 0 0 0;
#X connect 10 1 17 0;
#X connect 11 0 12 1;
#X connect 12 0 22 1;
#X connect 13 0 46 0;
#X connect 14 0 16 0;
#X connect 15 0 9 0;
#X connect 17 0 45 0;
#X connect 17 1 44 0;
#X connect 17 2 43 0;
#X connect 17 3 42 0;
#X connect 17 4 41 0;
#X connect 17 5 40 0;
#X connect 17 6 39 0;
#X connect 17 7 2 0;
#X connect 17 8 1 0;
#X connect 17 9 7 0;
#X connect 18 0 19 0;
#X connect 19 0 20 1;
#X connect 19 0 23 0;
#X connect 20 0 21 0;
#X connect 21 0 22 0;
#X connect 21 0 3 1;
#X connect 22 0 23 1;
#X connect 23 0 28 1;
#X connect 24 0 25 0;
#X connect 25 0 26 1;
#X connect 25 0 29 0;
#X connect 26 0 27 0;
#X connect 27 0 28 0;
#X connect 27 0 18 1;
#X connect 28 0 29 1;
#X connect 29 0 34 1;
#X connect 30 0 31 0;
#X connect 31 0 32 1;
#X connect 31 0 35 0;
#X connect 32 0 33 0;
#X connect 33 0 34 0;
#X connect 33 0 24 1;
#X connect 34 0 35 1;
#X connect 35 0 38 1;
#X connect 36 0 37 0;
#X connect 37 0 38 0;
#X connect 37 0 30 1;
#X connect 38 0 13 0;
#X connect 39 0 20 0;
#X connect 40 0 18 0;
#X connect 41 0 26 0;
#X connect 42 0 24 0;
#X connect 43 0 32 0;
#X connect 44 0 30 0;
#X connect 45 0 36 0;
#X connect 46 0 14 0;
