#N canvas 0 22 731 744 10;
#X floatatom 302 387 5 0 0 0 - - -, f 5;
#X obj 420 356 delay 1;
#X obj 368 356 delay 2;
#X obj 368 421 f;
#X floatatom 368 465 5 0 0 0 - - -, f 5;
#X obj 420 421 f;
#X floatatom 420 465 5 0 0 0 - - -, f 5;
#X obj 473 421 f;
#X floatatom 473 464 5 0 0 0 - - -, f 5;
#X floatatom 302 204 5 0 0 0 - - -, f 5;
#X obj 302 286 t f b;
#X obj 420 505 +;
#X obj 368 525 +;
#X floatatom 368 556 5 0 0 0 - - -, f 5;
#X floatatom 368 602 5 0 0 0 - - -, f 5;
#X obj 302 152 inlet;
#X obj 368 636 outlet;
#X obj 368 576 / 3;
#X obj 368 319 t b b b, f 18;
#X connect 0 0 3 1;
#X connect 1 0 5 0;
#X connect 2 0 3 0;
#X connect 3 0 4 0;
#X connect 4 0 5 1;
#X connect 4 0 12 0;
#X connect 5 0 6 0;
#X connect 6 0 7 1;
#X connect 6 0 11 0;
#X connect 7 0 8 0;
#X connect 8 0 11 1;
#X connect 9 0 10 0;
#X connect 10 0 0 0;
#X connect 10 1 18 0;
#X connect 11 0 12 1;
#X connect 12 0 13 0;
#X connect 13 0 17 0;
#X connect 14 0 16 0;
#X connect 15 0 9 0;
#X connect 17 0 14 0;
#X connect 18 0 2 0;
#X connect 18 1 1 0;
#X connect 18 2 7 0;
