#N canvas 103 174 1167 609 10;
#X obj 279 112 t b b l, f 29;
#X obj 279 264 list split 1, f 29;
#X obj 279 312 list trim;
#X msg 342 62 1 0 1 0 1 0 1;
#X obj 342 35 bng 15 250 50 0 empty empty empty 17 7 0 10 -262144 -1
-1;
#X obj 153 317 bng 15 250 50 0 empty empty empty 17 7 0 10 -262144
-1 -1;
#X obj 279 153 until, f 12;
#X obj 279 194 list append, f 29;
#X obj 279 378 expr ($f2 << 1) + $f1, f 29;
#X floatatom 450 353 5 0 0 0 - - -, f 5;
#X msg 450 327 0;
#X obj 279 38 inlet;
#X obj 264 449 outlet;
#X obj 264 409 i;
#X text 657 228 Packs a list of binary integers (0 or 1) into a byte
(0-256).;
#X text 657 185 reference: Trevor Wilson;
#X text 657 203 https://github.com/wilsontr;
#X connect 0 0 6 0;
#X connect 0 1 10 0;
#X connect 0 2 7 1;
#X connect 1 0 2 0;
#X connect 1 1 7 1;
#X connect 1 2 5 0;
#X connect 2 0 8 0;
#X connect 3 0 0 0;
#X connect 4 0 3 0;
#X connect 5 0 6 1;
#X connect 5 0 13 0;
#X connect 6 0 7 0;
#X connect 7 0 1 0;
#X connect 8 0 9 0;
#X connect 8 0 13 1;
#X connect 9 0 8 1;
#X connect 10 0 9 0;
#X connect 11 0 0 0;
#X connect 13 0 12 0;
