#N canvas 167 49 842 791 10;
#X msg 258 678 \; pd dsp \$1;
#X obj 258 630 tgl 30 0 empty empty empty 17 7 0 10 -262144 -1 -1 0
1;
#X obj 97 486 dac~;
#N canvas 0 22 822 524 soundfile_player 0;
#X obj 152 91 openpanel;
#X msg 152 117 open \$1;
#X obj 152 68 bng 15 250 50 0 empty empty empty 17 7 0 10 -262144 -1
-1;
#X obj 274 174 soundfiler;
#N canvas 0 22 450 300 (subpatch) 0;
#X array soundbuffer-ch 88576 float 2;
#X coords 0 1 88576 -1 200 140 1;
#X restore 482 284 graph;
#X obj 290 235 expr 44100 / $f1;
#X floatatom 290 272 5 0 0 0 - - -;
#X obj 290 331 phasor~;
#X obj 245 364 *~;
#X obj 290 208 float;
#X obj 390 174 bng 15 250 50 0 empty empty empty 17 7 0 10 -262144
-1 -1;
#X msg 329 306 0;
#X text 357 307 <- cue position;
#X text 333 271 <- playback speed;
#X obj 245 446 outlet~;
#X obj 152 39 inlet;
#X obj 599 39 inlet;
#X obj 486 450 outlet;
#X obj 245 397 tabread4~ soundbuffer-ch;
#X msg 152 144 read -resize \$1 soundbuffer-ch;
#X connect 0 0 1 0;
#X connect 1 0 19 0;
#X connect 2 0 0 0;
#X connect 3 0 8 1;
#X connect 3 0 9 0;
#X connect 5 0 6 0;
#X connect 6 0 7 0;
#X connect 6 0 17 0;
#X connect 7 0 8 0;
#X connect 8 0 18 0;
#X connect 9 0 5 0;
#X connect 10 0 9 0;
#X connect 11 0 7 1;
#X connect 15 0 2 0;
#X connect 16 0 6 0;
#X connect 18 0 14 0;
#X connect 19 0 3 0;
#X restore 97 225 pd soundfile_player;
#X obj 252 156 bng 30 250 50 0 empty empty empty 17 7 0 10 -262144
-1 -1;
#X floatatom 252 193 10 0 0 0 - - -;
#X text 291 159 <- open soundfile from disk;
#X text 332 189 <- change speed of playback (default);
#X obj 358 233 loadbang;
#X msg 358 300 \; a1 /wet 0.5 \; a1 /rate 0.02 \; a1 /depth 0.7 \;
a1 /delay 0.5 \;;
#X msg 502 299 \; a1 /wet 0.5 \; a1 /rate 0.5 \; a1 /depth 0.1 \; a1
/delay 0.2 \;;
#X obj 358 261 t b b b;
#X obj 36 -3 cnv 15 380 100 empty empty empty 20 12 0 14 -262130 -66577
0;
#X text 50 16 Chorus effect in a GUI module. Note \, this chorus is
most noticeable when the 'wet' parameter is set at 0.5 whereby the
source and processed versions have equal weight \, thus producing the
chorus sound. The instantian argument is the address for sending parameter
messages.;
#X obj 97 278 6_chorus~ a1;
#X text 48 1 [6_chorus~];
#X connect 1 0 0 0;
#X connect 3 0 14 0;
#X connect 4 0 3 0;
#X connect 5 0 3 1;
#X connect 8 0 11 0;
#X connect 11 0 9 0;
#X connect 14 0 2 0;
#X connect 14 0 2 1;
