#N canvas 247 159 871 786 10;
#X floatatom 106 149 10 0 0 1 ramp - -;
#X obj 109 129 hsl 182 15 0 1 0 0 empty empty empty -2 -8 0 10 -262144
-66577 -66577 0 1;
#X obj 201 8 inlet;
#X obj -67 15 inlet~;
#X obj -41 435 *~;
#X obj -160 15 inlet~;
#X obj -134 435 *~;
#X obj -25 519 +~;
#X obj -25 548 outlet~;
#X obj -26 357 sin;
#X obj -119 357 cos;
#X obj 3 221 * 2;
#X obj 3 243 - 1;
#X obj 3 265 + 1;
#X obj 3 287 / 4;
#X obj 3 309 * 3.14159;
#X floatatom 3 331 5 0 0 0 - - -;
#X obj -26 406 line~;
#X obj -119 406 line~;
#X obj -26 379 pack f 60;
#X obj -119 379 pack f 60;
#X text 231 290 adapted from KeithIrwin post at http://puredata.hurleur.com/sujet-5326-stereo-crossfader-adjustable-curve
;
#X obj 265 10 r \$1;
#X obj 97 547 outlet;
#X obj 197 388 cnv 15 75 25 empty empty empty 20 12 0 14 -262130 -66577
0;
#X text 203 390 [s3g 2014];
#X obj 97 414 line;
#X obj 201 36 route /xfade /ramp;
#X obj 97 382 pack f 60;
#X connect 0 0 20 1;
#X connect 0 0 19 1;
#X connect 1 0 11 0;
#X connect 1 0 28 0;
#X connect 2 0 27 0;
#X connect 3 0 4 0;
#X connect 4 0 7 1;
#X connect 5 0 6 0;
#X connect 6 0 7 0;
#X connect 7 0 8 0;
#X connect 9 0 19 0;
#X connect 10 0 20 0;
#X connect 11 0 12 0;
#X connect 12 0 13 0;
#X connect 13 0 14 0;
#X connect 14 0 15 0;
#X connect 15 0 16 0;
#X connect 16 0 9 0;
#X connect 16 0 10 0;
#X connect 17 0 4 1;
#X connect 18 0 6 1;
#X connect 19 0 17 0;
#X connect 20 0 18 0;
#X connect 22 0 27 0;
#X connect 26 0 23 0;
#X connect 27 0 1 0;
#X connect 27 1 0 0;
#X connect 27 1 28 1;
#X connect 28 0 26 0;
#X coords 0 -1 1 1 200 75 1 100 100;
