#N canvas 402 284 704 444 10;
#X obj 268 376 dac~;
#X msg 51 296 \; pd dsp \$1;
#X obj 103 118 tgl 30 0 empty empty dsp 33 7 0 10 -262144 -1 -1 0 1
;
#X obj 268 24 inlet~;
#X obj 310 24 inlet~;
#X obj -8 86 samplerate~;
#X floatatom -8 110 8 0 0 0 - - -;
#X obj -8 43 bng 30 250 50 0 empty empty empty 0 -6 0 8 -260818 -1
-1;
#X obj -8 9 loadbang;
#X obj -8 142 * 0.001;
#X floatatom 104 154 5 0 0 1 sampleRate - -;
#X obj 377 244 line~;
#X obj 431 244 line~;
#X obj 377 44 select 1;
#X msg 377 204 0 \, 1 50;
#X obj 268 336 *~;
#X obj 310 336 *~;
#X msg 431 204 1 \, 0 50;
#X obj 377 87 t b b;
#X msg 102 268 1;
#X obj 422 87 t b b;
#X msg 51 269 0;
#X obj 377 176 delay 100;
#X obj 51 241 delay 100;
#X connect 2 0 13 0;
#X connect 3 0 15 0;
#X connect 4 0 16 0;
#X connect 5 0 6 0;
#X connect 6 0 9 0;
#X connect 7 0 5 0;
#X connect 8 0 7 0;
#X connect 9 0 10 0;
#X connect 11 0 15 1;
#X connect 12 0 16 1;
#X connect 13 0 18 0;
#X connect 13 1 20 0;
#X connect 14 0 11 0;
#X connect 14 0 12 0;
#X connect 15 0 0 0;
#X connect 16 0 0 1;
#X connect 17 0 11 0;
#X connect 17 0 12 0;
#X connect 18 0 22 0;
#X connect 18 1 19 0;
#X connect 19 0 1 0;
#X connect 20 0 23 0;
#X connect 20 1 17 0;
#X connect 21 0 1 0;
#X connect 22 0 14 0;
#X connect 23 0 21 0;
#X coords 0 -1 1 1 100 75 1 100 100;
