#N canvas 509 295 697 460 10;
#X floatatom 75 238 5 0 0 0 - - -, f 5;
#X obj 153 239 print gatOut;
#X obj 75 139 bng 15 250 50 0 empty empty empty 17 7 0 10 -262144 -1
-1;
#X floatatom 109 139 5 0 0 0 - - -, f 5;
#X floatatom 144 139 5 0 0 0 - - -, f 5;
#X floatatom 272 234 5 0 0 0 - - -, f 5;
#X obj 350 235 print gatOut;
#X obj 272 139 bng 15 250 50 0 empty empty empty 17 7 0 10 -262144
-1 -1;
#X floatatom 309 139 5 0 0 0 - - -, f 5;
#X floatatom 347 139 5 0 0 0 - - -, f 5;
#X obj 48 31 cnv 15 380 70 empty empty empty 20 12 0 14 -262130 -66577
0;
#X text 62 50 Similar to Uzi object where a rapid-fire count is initiated
by a single bang. 1st argument is increment of the count and 2nd argument
is total in the count.;
#X floatatom 77 375 5 0 0 0 - - -, f 5;
#X obj 155 376 print gatOut;
#X obj 77 276 bng 15 250 50 0 empty empty empty 17 7 0 10 -262144 -1
-1;
#X floatatom 111 276 5 0 0 0 - - -, f 5;
#X floatatom 146 276 5 0 0 0 - - -, f 5;
#X floatatom 271 376 5 0 0 0 - - -, f 5;
#X obj 349 377 print gatOut;
#X obj 271 277 bng 15 250 50 0 empty empty empty 17 7 0 10 -262144
-1 -1;
#X floatatom 308 277 5 0 0 0 - - -, f 5;
#X floatatom 346 277 5 0 0 0 - - -, f 5;
#X obj 75 195 6_gat 2 20;
#X obj 272 191 6_gat 1 100;
#X obj 77 332 6_gat 4 80;
#X obj 271 333 6_gat 5 125;
#X text 60 35 [6_gat];
#X connect 2 0 22 0;
#X connect 3 0 22 1;
#X connect 4 0 22 2;
#X connect 7 0 23 0;
#X connect 8 0 23 1;
#X connect 9 0 23 2;
#X connect 14 0 24 0;
#X connect 15 0 24 1;
#X connect 16 0 24 2;
#X connect 19 0 25 0;
#X connect 20 0 25 1;
#X connect 21 0 25 2;
#X connect 22 0 0 0;
#X connect 22 0 1 0;
#X connect 23 0 5 0;
#X connect 23 0 6 0;
#X connect 24 0 12 0;
#X connect 24 0 13 0;
#X connect 25 0 17 0;
#X connect 25 0 18 0;
