#N canvas 119 69 758 706 10;
#X obj 117 203 osc~ 440;
#X floatatom 117 164 5 0 0 0 - - -, f 5;
#X obj 66 588 dac~;
#X msg 513 293 \; pd dsp 0;
#X msg 578 293 \; pd dsp 1;
#X msg 338 177 /vol \$1;
#X msg 399 177 /ramp \$1;
#X floatatom 338 147 5 0 1 0 - - -, f 5;
#X floatatom 399 147 5 0 0 0 - - -, f 5;
#X floatatom 346 273 20 0 0 0 - - -, f 20;
#X msg 346 377 /vol \$1;
#X floatatom 346 352 5 0 1 0 - - -, f 5;
#X floatatom 346 320 20 0 0 0 - - -, f 20;
#X floatatom 198 346 5 0 0 0 - - -, f 5;
#X obj 66 534 *~ 0.35;
#X obj 84 17 cnv 15 380 60 empty empty empty 20 12 0 14 -262130 -66577
0;
#X obj 281 499 loadbang;
#X text 98 36 Stereo linear GUI volume slider. The instantiation argument
is the address for sending parameter messages.;
#X floatatom 174 163 5 0 0 0 - - -, f 5;
#X obj 174 202 osc~ 441;
#X floatatom 265 346 5 0 0 0 - - -, f 5;
#X obj 119 533 *~ 0.35;
#X obj 198 385 osc~ 440.5;
#X obj 265 385 osc~ 440.8;
#X msg 281 545 \; r1 /vol 0.8 \; r1 /ramp 200 \;;
#X obj 117 243 6_linslider2~ r1;
#X text 96 21 [6_linslider2~];
#X obj 346 296 6_!- 1;
#X obj 198 414 6_linslider2~ r2;
#X connect 0 0 25 0;
#X connect 1 0 0 0;
#X connect 5 0 25 2;
#X connect 6 0 25 2;
#X connect 7 0 5 0;
#X connect 8 0 6 0;
#X connect 9 0 27 0;
#X connect 10 0 28 2;
#X connect 11 0 10 0;
#X connect 12 0 11 0;
#X connect 13 0 22 0;
#X connect 14 0 2 0;
#X connect 16 0 24 0;
#X connect 18 0 19 0;
#X connect 19 0 25 1;
#X connect 20 0 23 0;
#X connect 21 0 2 1;
#X connect 22 0 28 0;
#X connect 23 0 28 1;
#X connect 25 0 14 0;
#X connect 25 1 21 0;
#X connect 25 2 9 0;
#X connect 27 0 12 0;
#X connect 28 0 14 0;
#X connect 28 1 21 0;
