#N canvas 444 201 916 717 10;
#X obj 212 154 osc~ 440;
#X msg 88 467 \; pd dsp \$1;
#X obj 88 427 tgl 15 0 empty empty empty 17 7 0 10 -262144 -1 -1 1
1;
#X obj 212 417 dac~;
#X floatatom 255 200 5 0 0 1 volume_0-1 - -, f 5;
#X floatatom 299 274 10 0 0 1 ramp/smoothing - -, f 10;
#X obj 54 21 cnv 15 380 60 empty empty empty 20 12 0 14 -262130 -66577
0;
#X text 68 40 A logarithmic \, audio taper (sine) volume fader.;
#X text 66 25 [6_logfade~];
#X obj 212 323 6_logfade~ 1000;
#X text 314 323 argument is the ramp time;
#X connect 0 0 9 0;
#X connect 2 0 1 0;
#X connect 4 0 9 1;
#X connect 5 0 9 2;
#X connect 9 0 3 0;
#X connect 9 0 3 1;
