#N canvas 209 240 787 711 10;
#X obj 31 396 outlet~;
#X obj 67 331 line~;
#X floatatom 108 151 8 0 0 1 ramp - -, f 8;
#X obj 111 131 hsl 80 15 0 1 0 0 empty empty empty -2 -8 0 10 -262144
-66577 -66577 1580 1;
#X obj 201 8 inlet;
#X obj 31 356 *~;
#X obj 31 65 inlet~;
#X obj 295 490 outlet;
#X obj 167 329 sin;
#X obj 167 197 * 2;
#X obj 167 219 - 1;
#X obj 167 241 + 1;
#X obj 167 263 / 4;
#X obj 167 285 * 3.14159;
#X floatatom 167 307 5 0 0 0 - - -, f 5;
#X obj 167 354 pack f 20;
#X obj 268 7 r \$1;
#X obj 430 121 cnv 15 75 25 empty empty empty 20 12 0 14 -262130 -66577
0;
#X text 436 123 [s3g 2014];
#X obj -45 395 outlet~;
#X obj -9 330 line~;
#X obj -45 355 *~;
#X obj -45 64 inlet~;
#X obj 240 399 line;
#X obj 201 36 route /vol /ramp;
#X connect 1 0 5 1;
#X connect 3 0 9 0;
#X connect 4 0 24 0;
#X connect 5 0 0 0;
#X connect 6 0 5 0;
#X connect 8 0 15 0;
#X connect 9 0 10 0;
#X connect 10 0 11 0;
#X connect 11 0 12 0;
#X connect 12 0 13 0;
#X connect 13 0 14 0;
#X connect 14 0 8 0;
#X connect 15 0 1 0;
#X connect 15 0 20 0;
#X connect 15 0 23 0;
#X connect 16 0 24 0;
#X connect 20 0 21 1;
#X connect 21 0 19 0;
#X connect 22 0 21 0;
#X connect 23 0 7 0;
#X connect 24 0 3 0;
#X connect 24 1 2 0;
#X connect 24 1 15 1;
#X coords 0 -1 1 1 100 75 1 100 100;
