#N canvas 150 106 1302 757 10;
#X obj 334 5 inlet;
#X obj 547 642 outlet~;
#X obj 688 513 +~ 0.5;
#X obj 688 488 *~ -0.5;
#X obj 688 462 cos~;
#X obj 105 93 inlet~;
#X msg 310 489 start;
#X msg 367 489 stop;
#X obj 264 550 tabwrite~ \$0-looper;
#X obj 353 324 s \$0-looper;
#X msg 353 298 const 0;
#X obj 547 440 vline~;
#X obj 547 356 f;
#X obj 547 296 bng 15 250 50 0 empty empty empty 17 7 0 10 -262144
-1 -1;
#X obj 334 171 tgl 40 0 empty empty empty 17 7 0 10 -262144 -1 -1 0
1;
#X obj 334 225 select 1, f 11;
#X obj 594 92 timer;
#X obj 547 382 pack f f;
#X obj 334 272 t b b b;
#X obj 841 197 * 44.1;
#X floatatom 594 148 15 0 0 0 - - -, f 15;
#X floatatom 841 233 15 0 0 0 - - -, f 15;
#X obj 397 273 t b b b;
#X obj 334 148 change;
#X obj 547 513 tabread4~ \$0-looper;
#X msg 547 404 0 \, \$1 \$2;
#X msg 744 404 0 0;
#X obj 547 583 *~;
#X obj 688 404 pack 1 f;
#X obj 688 440 vline~;
#X obj 547 326 t b b b;
#X obj 1079 213 tgl 15 0 empty empty empty 17 7 0 10 -262144 -1 -1
1 1;
#X obj 1079 238 metro 200;
#X obj 1079 290 delay;
#X obj 1157 266 * 0.5;
#X floatatom 1129 190 15 0 0 0 - - -, f 15;
#X obj 1079 266 bng 15 250 50 0 empty empty empty 17 7 0 10 -262144
-1 -1;
#X obj 547 610 +~;
#X obj 989 513 +~ 0.5;
#X obj 989 488 *~ -0.5;
#X obj 989 462 cos~;
#X obj 848 440 vline~;
#X obj 848 356 f;
#X obj 848 296 bng 15 250 50 0 empty empty empty 17 7 0 10 -262144
-1 -1;
#X obj 848 382 pack f f;
#X obj 848 513 tabread4~ \$0-looper;
#X msg 848 404 0 \, \$1 \$2;
#X msg 1044 404 0 0;
#X obj 848 581 *~;
#X obj 989 404 pack 1 f;
#X obj 989 440 vline~;
#X obj 848 326 t b b b;
#X obj 1129 145 * 2;
#X floatatom 1129 44 15 0 0 0 - - -, f 15;
#X obj 1129 120 f;
#X obj 1129 91 t b f, f 6;
#X obj 628 462 - 2;
#X obj 929 462 - 2;
#X obj 1129 169 - 1000;
#X obj 1129 17 * 1000;
#X obj 594 123 f;
#X obj 555 88 bng 15 250 50 0 empty empty empty 17 7 0 10 -262144 -1
-1;
#X obj 547 488 clip~ 2 440998;
#X obj 848 488 clip~ 2 440998;
#X obj 334 33 route /rec /play /overlap;
#X obj 264 572 table \$0-looper 441000;
#X obj 594 173 t f f f f f f, f 52;
#X obj 638 258 t f f f f, f 49;
#X obj 1129 212 t f f;
#X connect 0 0 64 0;
#X connect 2 0 27 1;
#X connect 3 0 2 0;
#X connect 4 0 3 0;
#X connect 5 0 8 0;
#X connect 6 0 8 0;
#X connect 7 0 8 0;
#X connect 10 0 9 0;
#X connect 11 0 62 0;
#X connect 12 0 17 0;
#X connect 13 0 30 0;
#X connect 14 0 15 0;
#X connect 15 0 18 0;
#X connect 15 1 22 0;
#X connect 16 0 60 0;
#X connect 17 0 25 0;
#X connect 18 0 6 0;
#X connect 18 1 10 0;
#X connect 18 2 16 0;
#X connect 19 0 21 0;
#X connect 20 0 66 0;
#X connect 21 0 67 0;
#X connect 22 1 7 0;
#X connect 22 2 16 1;
#X connect 23 0 14 0;
#X connect 24 0 27 0;
#X connect 25 0 11 0;
#X connect 26 0 29 0;
#X connect 27 0 37 0;
#X connect 28 0 29 0;
#X connect 29 0 4 0;
#X connect 30 0 12 0;
#X connect 30 1 28 0;
#X connect 30 2 26 0;
#X connect 31 0 32 0;
#X connect 32 0 36 0;
#X connect 33 0 43 0;
#X connect 34 0 33 1;
#X connect 35 0 68 0;
#X connect 36 0 33 0;
#X connect 36 0 13 0;
#X connect 37 0 1 0;
#X connect 38 0 48 1;
#X connect 39 0 38 0;
#X connect 40 0 39 0;
#X connect 41 0 63 0;
#X connect 42 0 44 0;
#X connect 43 0 51 0;
#X connect 44 0 46 0;
#X connect 45 0 48 0;
#X connect 46 0 41 0;
#X connect 47 0 50 0;
#X connect 48 0 37 1;
#X connect 49 0 50 0;
#X connect 50 0 40 0;
#X connect 51 0 42 0;
#X connect 51 1 49 0;
#X connect 51 2 47 0;
#X connect 52 0 58 0;
#X connect 53 0 55 0;
#X connect 54 0 52 0;
#X connect 55 0 54 0;
#X connect 55 1 58 1;
#X connect 56 0 62 2;
#X connect 57 0 63 2;
#X connect 58 0 35 0;
#X connect 59 0 53 0;
#X connect 60 0 20 0;
#X connect 61 0 60 0;
#X connect 62 0 24 0;
#X connect 63 0 45 0;
#X connect 64 0 23 0;
#X connect 64 1 31 0;
#X connect 64 2 59 0;
#X connect 66 0 17 1;
#X connect 66 1 28 1;
#X connect 66 2 44 1;
#X connect 66 3 49 1;
#X connect 66 4 19 0;
#X connect 66 5 54 0;
#X connect 67 0 12 1;
#X connect 67 1 42 1;
#X connect 67 2 56 0;
#X connect 67 3 57 0;
#X connect 68 0 32 1;
#X connect 68 1 34 0;
