#N canvas 329 61 1025 450 10;
#X msg 366 67 /rec \$1;
#X obj 366 42 tgl 15 0 empty empty empty 17 7 0 10 -262144 -1 -1 0
1;
#X obj 422 42 tgl 15 0 empty empty empty 17 7 0 10 -262144 -1 -1 0
1;
#X msg 422 67 /play \$1;
#X floatatom 488 42 5 0 0 0 - - -, f 5;
#X obj 299 356 dac~;
#X obj 304 19 adc~;
#X obj 304 124 6_loop~;
#X msg 488 66 /overlap \$1;
#X text 530 40 overlap factor in seconds;
#X text 405 124 10 seconds maximum record time;
#X connect 0 0 7 1;
#X connect 1 0 0 0;
#X connect 2 0 3 0;
#X connect 3 0 7 1;
#X connect 4 0 8 0;
#X connect 6 0 7 0;
#X connect 7 0 5 0;
#X connect 7 0 5 1;
#X connect 8 0 7 1;
