#N canvas 0 22 784 571 10;
#X obj 171 23 inlet~;
#X obj 241 23 inlet;
#X obj 171 330 *~;
#X obj 171 376 outlet~;
#X obj 241 180 sin;
#X obj 241 48 * 2;
#X obj 241 70 - 1;
#X obj 241 92 + 1;
#X obj 241 114 / 4;
#X obj 241 136 * 3.14159;
#X floatatom 241 158 5 0 0 0 - - -, f 5;
#X obj 241 256 line~;
#X obj 333 22 inlet;
#X obj 363 274 cnv 15 75 25 empty empty empty 20 12 0 14 -262130 -66577
0;
#X text 369 276 [s3g 2014];
#X obj 241 229 pack f \$1;
#X connect 0 0 2 0;
#X connect 1 0 5 0;
#X connect 2 0 3 0;
#X connect 4 0 15 0;
#X connect 5 0 6 0;
#X connect 6 0 7 0;
#X connect 7 0 8 0;
#X connect 8 0 9 0;
#X connect 9 0 10 0;
#X connect 10 0 4 0;
#X connect 11 0 2 1;
#X connect 12 0 15 1;
#X connect 15 0 11 0;
