#N canvas 337 102 883 833 10;
#X obj 263 76 inlet~;
#X obj 449 32 inlet;
#X obj 449 463 sig~;
#X obj 449 486 lop~ 1;
#X obj 449 509 *~ 0.25;
#X obj 449 532 -~ 0.25;
#X obj 449 555 cos~;
#X obj 307 585 -~ 0.25;
#X obj 307 607 cos~;
#X obj 263 656 *~;
#X obj 434 656 *~;
#X obj 263 736 outlet~;
#X obj 434 736 outlet~;
#X text 456 578 Cos-sin law panner \, reference: Andy Farnell's Designing
Sound \, p. 222;
#X obj 489 32 r \$1;
#X obj 108 251 hsl 65 15 0 1 0 0 empty empty pan -2 -8 0 10 -262144
-1 -1 3200 1;
#X obj 86 603 cnv 15 75 25 empty empty empty 20 12 0 14 -262130 -66577
0;
#X text 92 605 [s3g 2014];
#X obj 650 742 outlet;
#X obj 452 328 sin;
#X obj 452 218 * 2;
#X obj 452 240 - 1;
#X obj 452 262 + 1;
#X obj 452 284 / 4;
#X obj 452 306 * 3.14159;
#X obj 452 353 pack f 20;
#X obj 650 637 line;
#X obj 411 381 line~;
#X obj 263 446 *~;
#X obj 105 310 vsl 70 140 0 1 0 0 empty empty empty 0 -9 0 10 -262144
-1 -1 10425 1;
#X obj 108 178 hsl 65 15 0 1 0 0 empty empty mid -2 -8 0 10 -262144
-1 -1 3175 1;
#X obj 108 213 hsl 65 15 0 1 0 0 empty empty lo -2 -8 0 10 -262144
-1 -1 2772 1;
#X obj 105 272 tgl 30 0 empty empty mute 36 15 0 10 -262144 -1 -1 0
1;
#X obj 108 144 hsl 65 15 0 1 0 0 empty empty hi -2 -8 0 10 -262144
-1 -1 3074 1;
#X obj 10 408 select 1;
#X obj 105 497 f;
#X msg 10 443 0;
#X obj 105 561 f;
#X text 706 742 for linking control;
#X obj 124 15 loadbang;
#X msg 124 72 0.5;
#X msg 155 72 0;
#X msg 185 72 0.75;
#X obj 124 37 t b b b;
#X obj 449 78 route /pan /vol /ramp /lo /mid /hi /mute;
#X obj 55 443 t b;
#X obj 105 531 spigot;
#X obj 138 503 tgl 15 0 empty empty empty 17 7 0 10 -262144 -1 -1 1
1;
#X obj 10 382 t f f;
#N canvas 543 735 450 300 !- 0;
#X obj 102 31 inlet;
#X obj 134 250 outlet;
#X floatatom 102 67 5 0 0 0 - - -, f 5;
#X obj 134 214 - 1;
#X obj 102 116 trigger b f;
#X obj 92 168 f 1;
#X connect 0 0 2 0;
#X connect 2 0 4 0;
#X connect 3 0 1 0;
#X connect 4 0 5 0;
#X connect 4 1 3 1;
#X connect 5 0 3 0;
#X restore 138 470 pd !-;
#N canvas 274 208 1223 721 eq_biquad_______ 0;
#X obj 429 488 *~;
#X obj 459 488 *~;
#X obj 389 488 *~;
#X obj 389 627 outlet~;
#X obj 389 555 +~;
#X obj 7 113 biquad~ 1.86972 -0.872325 0.000650245 0.00130049 0.000650245
;
#X obj 7 133 biquad~ 1.86972 -0.872325 0.000650245 0.00130049 0.000650245
;
#X obj 7 153 biquad~ 1.86972 -0.872325 0.000650245 0.00130049 0.000650245
;
#X obj 208 240 biquad~ 1.36591 -0.385279 0.307361 0 -0.307361;
#X obj 208 260 biquad~ 1.36591 -0.385279 0.307361 0 -0.307361;
#X obj 208 280 biquad~ 1.36591 -0.385279 0.307361 0 -0.307361;
#X obj 719 380 biquad~ 1.63386 -0.729864 0.840931 -1.68186 0.840931
;
#X obj 719 400 biquad~ 1.63386 -0.729864 0.840931 -1.68186 0.840931
;
#X obj 771 50 inlet;
#X obj 771 127 pack f 20;
#X obj 771 153 line~;
#X obj 834 50 inlet;
#X obj 834 127 pack f 20;
#X obj 834 153 line~;
#X obj 898 50 inlet;
#X obj 898 127 pack f 20;
#X obj 898 153 line~;
#X obj 7 45 inlet~;
#X text 389 44 biquad~ stuff adapted from a Derek Holzer patch;
#X obj 7 174 biquad~ 1.86972 -0.872325 0.000650245 0.00130049 0.000650245
;
#X text 126 92 lo x4;
#X text 343 220 mid x3;
#X text 859 358 hi x2;
#X connect 0 0 4 1;
#X connect 1 0 4 1;
#X connect 2 0 4 0;
#X connect 4 0 3 0;
#X connect 5 0 6 0;
#X connect 6 0 7 0;
#X connect 7 0 24 0;
#X connect 8 0 9 0;
#X connect 9 0 10 0;
#X connect 10 0 0 0;
#X connect 11 0 12 0;
#X connect 12 0 1 0;
#X connect 13 0 14 0;
#X connect 14 0 15 0;
#X connect 15 0 2 1;
#X connect 16 0 17 0;
#X connect 17 0 18 0;
#X connect 18 0 0 1;
#X connect 19 0 20 0;
#X connect 20 0 21 0;
#X connect 21 0 1 1;
#X connect 22 0 5 0;
#X connect 22 0 8 0;
#X connect 22 0 11 0;
#X connect 24 0 2 0;
#X restore 263 272 pd eq_biquad_______;
#X connect 0 0 50 0;
#X connect 1 0 44 0;
#X connect 2 0 3 0;
#X connect 3 0 4 0;
#X connect 4 0 5 0;
#X connect 5 0 6 0;
#X connect 5 0 7 0;
#X connect 6 0 10 1;
#X connect 7 0 8 0;
#X connect 8 0 9 1;
#X connect 9 0 11 0;
#X connect 10 0 12 0;
#X connect 14 0 44 0;
#X connect 15 0 2 0;
#X connect 19 0 25 0;
#X connect 20 0 21 0;
#X connect 21 0 22 0;
#X connect 22 0 23 0;
#X connect 23 0 24 0;
#X connect 24 0 19 0;
#X connect 25 0 26 0;
#X connect 25 0 27 0;
#X connect 26 0 18 0;
#X connect 27 0 28 1;
#X connect 28 0 9 0;
#X connect 28 0 10 0;
#X connect 29 0 35 0;
#X connect 30 0 50 2;
#X connect 31 0 50 1;
#X connect 32 0 48 0;
#X connect 33 0 50 3;
#X connect 34 0 36 0;
#X connect 34 1 45 0;
#X connect 35 0 46 0;
#X connect 36 0 37 0;
#X connect 37 0 20 0;
#X connect 39 0 43 0;
#X connect 40 0 33 0;
#X connect 40 0 30 0;
#X connect 40 0 31 0;
#X connect 40 0 15 0;
#X connect 41 0 32 0;
#X connect 42 0 29 0;
#X connect 43 0 40 0;
#X connect 43 1 41 0;
#X connect 43 2 42 0;
#X connect 44 0 15 0;
#X connect 44 1 29 0;
#X connect 44 2 25 1;
#X connect 44 3 31 0;
#X connect 44 4 30 0;
#X connect 44 5 33 0;
#X connect 44 6 32 0;
#X connect 45 0 35 0;
#X connect 46 0 37 0;
#X connect 47 0 46 1;
#X connect 48 0 34 0;
#X connect 48 1 49 0;
#X connect 49 0 47 0;
#X connect 50 0 28 0;
#X coords 0 -1 1 1 80 360 1 100 100;
