#N canvas 959 252 982 565 10;
#X floatatom 266 150 5 0 0 1 midi_input - -, f 5;
#X obj 379 253 % 12;
#X floatatom 379 275 5 0 0 1 pitch_class - -, f 5;
#X obj 266 226 / 12;
#X obj 266 248 - 1;
#X floatatom 266 270 5 0 0 1 register - -, f 5;
#X obj 266 194 t f f;
#X obj 266 300 int;
#X floatatom 266 323 5 0 0 1 register - -, f 5;
#X obj 266 63 inlet;
#X obj 266 422 outlet;
#X obj 379 347 outlet;
#X obj 45 186 cnv 15 75 25 empty empty empty 20 12 0 14 -262130 -66577
0;
#X text 51 188 [s3g 2014];
#X obj 378 23 cnv 15 400 25 empty empty empty 20 12 0 14 -262130 -66577
0;
#X text 391 26 MIDI to octave and pitch class output (12 notes per
octave);
#X connect 0 0 6 0;
#X connect 1 0 2 0;
#X connect 2 0 11 0;
#X connect 3 0 4 0;
#X connect 4 0 5 0;
#X connect 5 0 7 0;
#X connect 6 0 3 0;
#X connect 6 1 1 0;
#X connect 7 0 8 0;
#X connect 8 0 10 0;
#X connect 9 0 0 0;
#X coords 0 565 1 564 100 50 0;
