#N canvas 555 44 898 629 10;
#X obj 136 193 6_mop;
#X floatatom 136 244 5 0 0 1 octave_ - -, f 5;
#X floatatom 229 245 5 0 0 1 pitch_class - -, f 5;
#X floatatom 136 165 5 0 0 0 - - -, f 5;
#X obj 139 143 hsl 128 15 0 127 0 0 empty empty empty -2 -8 0 10 -262144
-1 -1 12700 1;
#X obj 53 36 cnv 15 380 60 empty empty empty 20 12 0 14 -262130 -66577
0;
#X text 65 40 [6_mop];
#X text 67 55 MIDI to octave and pitch class.;
#X obj 380 219 mtof;
#X floatatom 380 244 10 0 0 1 frequency - -, f 10;
#X obj 136 546 mtof;
#X obj 136 495 + 0;
#X obj 136 409 t b f;
#X obj 136 452 f;
#X obj 136 363 * 12;
#X obj 136 330 + 1;
#X floatatom 136 572 10 0 0 1 frequency - -, f 10;
#X floatatom 136 520 5 0 0 0 - - -, f 5;
#X text 215 398 reverse calculation;
#X connect 0 0 1 0;
#X connect 0 1 2 0;
#X connect 1 0 15 0;
#X connect 2 0 13 0;
#X connect 3 0 0 0;
#X connect 3 0 8 0;
#X connect 4 0 3 0;
#X connect 8 0 9 0;
#X connect 10 0 16 0;
#X connect 11 0 17 0;
#X connect 12 0 13 0;
#X connect 12 1 11 1;
#X connect 13 0 11 0;
#X connect 14 0 12 0;
#X connect 15 0 14 0;
#X connect 17 0 10 0;
