#N canvas 219 139 501 466 10;
#X obj 152 108 inlet;
#X obj 152 273 outlet;
#X obj 152 205 * 44.1;
#X obj 214 111 samplerate~;
#X floatatom 214 135 8 0 0 0 - - -;
#X obj 214 68 bng 30 250 50 0 empty empty empty 0 -6 0 8 -260818 -1
-1;
#X obj 214 34 loadbang;
#X obj 214 167 * 0.001;
#X obj 152 239 int;
#X obj 149 302 cnv 15 75 25 empty empty empty 20 12 0 14 -262130 -66577
0;
#X text 155 304 [s3g 2014];
#X connect 0 0 2 0;
#X connect 2 0 8 0;
#X connect 3 0 4 0;
#X connect 4 0 7 0;
#X connect 5 0 3 0;
#X connect 6 0 5 0;
#X connect 7 0 2 1;
#X connect 8 0 1 0;
