#N canvas 0 22 678 388 10;
#X floatatom 165 100 0 0 0 1 midi_note - -;
#X obj 165 126 - 69;
#X obj 165 150 / 12;
#X obj 165 177 t b f;
#X obj 177 241 pow;
#X obj 177 264 * 440;
#X floatatom 177 288 5 0 0 1 frequency - -;
#X msg 165 203 2;
#X obj 165 63 inlet;
#X obj 177 316 outlet;
#X text 305 127 fairly unneccesary as this is the same as mtof object
;
#X text 306 145 but maybe helpful if needing to modify MIDI conversion
;
#X obj 308 174 cnv 15 75 25 empty empty empty 20 12 0 14 -262130 -66577
0;
#X text 314 176 [s3g 2014];
#X connect 0 0 1 0;
#X connect 1 0 2 0;
#X connect 2 0 3 0;
#X connect 3 0 7 0;
#X connect 3 1 4 1;
#X connect 4 0 5 0;
#X connect 5 0 6 0;
#X connect 6 0 9 0;
#X connect 7 0 4 0;
#X connect 8 0 0 0;
