#N canvas 188 22 1335 882 10;
#X obj 647 184 loadbang;
#X msg 675 288 \; l5 /ramp 500 \; l5 /vol 0.4;
#X obj 630 47 cnv 15 380 60 empty empty empty 20 12 0 14 -262130 -66577
0;
#X text 644 66 A drone-ready oscillator module. The instantiation argument
is the address for sending parameter messages.;
#X msg 556 382 \; o1 /freq 0.24 \; o1 /octave 7 \; o1 /ripple 0.3 \;
o1 /width 0.1 \; o1 /out 0.3 \;;
#X msg 556 473 \; o1 /freq 0.2 \; o1 /octave 10 \; o1 /ripple 0.3 \;
o1 /width 0.1 \; o1 /out 0.3 \;;
#X obj 72 57 6_om~ o1;
#X obj 72 451 6_linslider~ l5;
#X obj 72 782 6_ezdac~;
#X obj 647 216 t b b;
#X text 642 51 [6_om~];
#X msg 554 290 \; o1 /freq 0.7 \; o1 /octave 6 \; o1 /ripple 0.5 \;
o1 /width 0.4 \; o1 /out 0.3 \;;
#X connect 0 0 9 0;
#X connect 6 0 7 0;
#X connect 7 0 8 0;
#X connect 7 0 8 1;
#X connect 9 0 11 0;
#X connect 9 1 1 0;
