#N canvas 698 92 586 534 10;
#X obj 253 66 inlet~;
#X obj 439 138 lop~ 1;
#X obj 439 161 *~ 0.25;
#X obj 439 184 -~ 0.25;
#X obj 439 207 cos~;
#X obj 297 237 -~ 0.25;
#X obj 297 259 cos~;
#X obj 253 308 *~;
#X obj 424 308 *~;
#X obj 253 388 outlet~;
#X obj 424 388 outlet~;
#X text 89 431 Cos-sin law panner \, reference: Andy Farnell's Designing
Sound \, p. 222;
#X obj 88 243 cnv 15 75 25 empty empty empty 20 12 0 14 -262130 -66577
0;
#X obj 439 68 inlet~;
#X text 94 245 [s3g 2016];
#X connect 0 0 7 0;
#X connect 0 0 8 0;
#X connect 1 0 2 0;
#X connect 2 0 3 0;
#X connect 3 0 4 0;
#X connect 3 0 5 0;
#X connect 4 0 8 1;
#X connect 5 0 6 0;
#X connect 6 0 7 1;
#X connect 7 0 9 0;
#X connect 8 0 10 0;
#X connect 13 0 1 0;
#X coords 0 534 1 533 100 50 0;
