#N canvas 70 65 774 765 10;
#X obj 188 484 dac~;
#X msg 97 106 \; pd dsp \$1;
#X obj 97 83 tgl 15 0 empty empty empty 17 7 0 10 -262144 -1 -1 0 1
;
#X text 119 79 <- turn on sound;
#X floatatom 327 316 5 0 0 0 - - -, f 5;
#X floatatom 385 318 5 0 0 0 - - -, f 5;
#X obj 77 337 osc~ 200;
#X obj 134 337 osc~ 400;
#X obj 191 337 osc~ 600;
#X obj 248 337 osc~ 800;
#X obj 188 449 *~ 0.3;
#X msg 327 339 /x \$1;
#X msg 385 340 /y \$1;
#X msg 450 340 /ramp \$1;
#X floatatom 450 318 5 0 0 0 - - -, f 5;
#X obj 77 -106 cnv 15 380 60 empty empty empty 20 12 0 14 -262130 -66577
0;
#X text 91 -87 Equal power quad crossfader.;
#X obj 329 120 hsl 128 15 0 1 0 0 empty empty empty -2 -8 0 10 -262144
-1 -1 0 1;
#X obj 444 141 vsl 15 128 0 1 0 0 empty empty empty 0 -9 0 10 -262144
-1 -1 0 1;
#X text 89 -102 [6_qxfade~];
#X obj 188 417 6_qxfade~ 1000;
#X text 304 416 argument is the ramp time;
#X connect 2 0 1 0;
#X connect 4 0 11 0;
#X connect 5 0 12 0;
#X connect 6 0 20 0;
#X connect 7 0 20 1;
#X connect 8 0 20 2;
#X connect 9 0 20 3;
#X connect 10 0 0 0;
#X connect 10 0 0 1;
#X connect 11 0 20 4;
#X connect 12 0 20 4;
#X connect 13 0 20 4;
#X connect 14 0 13 0;
#X connect 17 0 4 0;
#X connect 18 0 5 0;
#X connect 20 0 10 0;
