#N canvas 0 22 871 592 10;
#X obj 69 43 inlet~;
#X obj 69 502 outlet~;
#X obj 69 155 *~;
#X obj 118 43 inlet~;
#X obj 118 155 *~;
#X obj 168 43 inlet~;
#X obj 168 155 *~;
#X obj 217 43 inlet~;
#X obj 217 155 *~;
#X obj 69 245 +~;
#X obj 118 245 +~;
#X obj 69 399 *~;
#X obj 118 399 *~;
#X obj 69 458 +~;
#X obj 417 264 sin;
#X obj 348 264 cos;
#X obj 348 129 * 2;
#X obj 348 151 - 1;
#X obj 348 173 + 1;
#X obj 348 195 / 4;
#X obj 348 217 * 3.14159;
#X floatatom 348 239 5 0 0 0 - - -, f 5;
#X obj 417 319 line~;
#X obj 348 319 line~;
#X obj 615 264 sin;
#X obj 524 264 cos;
#X obj 524 130 * 2;
#X obj 524 152 - 1;
#X obj 524 174 + 1;
#X obj 524 196 / 4;
#X obj 524 218 * 3.14159;
#X floatatom 524 240 5 0 0 0 - - -, f 5;
#X obj 615 319 line~;
#X obj 524 319 line~;
#X text 69 27 1;
#X text 119 27 2;
#X text 168 27 3;
#X text 218 27 4;
#X obj 425 75 route /x /y /ramp;
#X obj 425 47 inlet;
#X obj 428 385 cnv 15 75 25 empty empty empty 20 12 0 14 -262130 -66577
0;
#X text 434 387 [s3g 2014];
#X obj 348 287 pack f \$1;
#X obj 417 287 pack f \$1;
#X obj 524 287 pack f \$1;
#X obj 615 287 pack f \$1;
#X connect 0 0 2 0;
#X connect 2 0 9 0;
#X connect 3 0 6 0;
#X connect 4 0 9 1;
#X connect 5 0 8 0;
#X connect 6 0 10 0;
#X connect 7 0 4 0;
#X connect 8 0 10 1;
#X connect 9 0 11 0;
#X connect 10 0 12 0;
#X connect 11 0 13 0;
#X connect 12 0 13 1;
#X connect 13 0 1 0;
#X connect 14 0 43 0;
#X connect 15 0 42 0;
#X connect 16 0 17 0;
#X connect 17 0 18 0;
#X connect 18 0 19 0;
#X connect 19 0 20 0;
#X connect 20 0 21 0;
#X connect 21 0 14 0;
#X connect 21 0 15 0;
#X connect 22 0 4 1;
#X connect 22 0 8 1;
#X connect 23 0 2 1;
#X connect 23 0 6 1;
#X connect 24 0 45 0;
#X connect 25 0 44 0;
#X connect 26 0 27 0;
#X connect 27 0 28 0;
#X connect 28 0 29 0;
#X connect 29 0 30 0;
#X connect 30 0 31 0;
#X connect 31 0 24 0;
#X connect 31 0 25 0;
#X connect 32 0 12 1;
#X connect 33 0 11 1;
#X connect 38 0 16 0;
#X connect 38 1 26 0;
#X connect 38 2 42 1;
#X connect 38 2 43 1;
#X connect 38 2 44 1;
#X connect 38 2 45 1;
#X connect 39 0 38 0;
#X connect 42 0 23 0;
#X connect 43 0 22 0;
#X connect 44 0 33 0;
#X connect 45 0 32 0;
