#N canvas 671 399 938 447 10;
#X obj 353 40 cnv 15 380 60 empty empty empty 20 12 0 14 -262130 -66577
0;
#X text 367 59 Get incoming number stream at a different rate;
#X floatatom 236 202 5 0 0 1 rate - -, f 5;
#X floatatom 155 189 5 0 0 0 - - -, f 5;
#X floatatom 155 293 5 0 0 0 - - -, f 5;
#X obj 155 322 bng 15 250 50 0 empty empty empty 17 7 0 10 -262144
-1 -1;
#X obj 125 189 bng 15 250 50 0 empty empty empty 17 7 0 10 -262144
-1 -1;
#X obj 155 150 random 1000;
#X obj 155 98 tgl 15 0 empty empty empty 17 7 0 10 -262144 -1 -1 1
1;
#X obj 155 124 metro 100;
#X obj 155 237 6_resample 300;
#X text 365 44 [6_resample];
#X connect 2 0 10 1;
#X connect 3 0 10 0;
#X connect 4 0 5 0;
#X connect 7 0 3 0;
#X connect 7 0 6 0;
#X connect 8 0 9 0;
#X connect 9 0 7 0;
#X connect 10 0 4 0;
