#N canvas 830 50 579 418 10;
#X obj 132 121 != 0;
#X obj 133 166 sel 1;
#X obj 153 255 list 0;
#X obj 154 306 outlet;
#X obj 132 100 \$1;
#X obj 132 78 loadbang;
#X obj 153 227 metro \$1;
#X obj 197 60 inlet;
#X obj 235 99 inlet;
#X connect 0 0 1 0;
#X connect 1 0 6 0;
#X connect 2 0 3 0;
#X connect 4 0 0 0;
#X connect 5 0 4 0;
#X connect 6 0 2 0;
#X connect 7 0 2 1;
#X connect 8 0 6 1;
