#N canvas 566 114 941 768 10;
#X text 631 469 reference: Trevor Wilson;
#X text 631 439 https://github.com/wilsontr;
#X obj 250 276 6_bitsample;
#X obj 250 99 inlet;
#X obj 368 99 inlet;
#X text 299 98 bang;
#X text 417 98 float;
#X obj 418 224 delay 7;
#X obj 418 160 bang;
#X obj 418 192 t b b b b b b b b, f 59;
#X obj 718 224 delay 1;
#X obj 668 224 delay 2;
#X obj 618 224 delay 3;
#X obj 568 224 delay 4;
#X obj 518 224 delay 5;
#X obj 468 224 delay 6;
#X obj 477 542 pack f f f;
#X obj 478 647 6_bytepack;
#X obj 250 528 t b;
#X obj 478 679 / 8;
#X obj 478 711 outlet;
#X floatatom 586 647 5 0 0 0 - - -, f 5;
#X obj 587 714 outlet;
#X obj 192 163 until;
#X msg 192 131 8;
#X obj 192 99 loadbang;
#X obj 418 130 bng 15 250 50 0 empty empty empty 17 7 0 10 -262144
-1 -1;
#X obj 250 311 6_bitsample;
#X obj 250 342 6_bitsample;
#X obj 250 373 6_bitsample;
#X obj 250 404 6_bitsample;
#X obj 250 435 6_bitsample;
#X obj 250 466 6_bitsample;
#X obj 250 497 6_bitsample;
#X floatatom 216 311 5 0 0 0 - - -, f 5;
#X floatatom 216 342 5 0 0 0 - - -, f 5;
#X floatatom 216 373 5 0 0 0 - - -, f 5;
#X floatatom 216 404 5 0 0 0 - - -, f 5;
#X floatatom 216 435 5 0 0 0 - - -, f 5;
#X floatatom 216 466 5 0 0 0 - - -, f 5;
#X floatatom 216 497 5 0 0 0 - - -, f 5;
#X floatatom 216 528 5 0 0 0 - - -, f 5;
#X floatatom 439 680 5 0 0 0 - - -, f 5;
#X floatatom 439 712 5 0 0 0 - - -, f 5;
#X connect 2 0 27 0;
#X connect 2 0 34 0;
#X connect 3 0 26 0;
#X connect 4 0 2 0;
#X connect 7 0 2 1;
#X connect 8 0 9 0;
#X connect 9 0 7 0;
#X connect 9 1 15 0;
#X connect 9 2 14 0;
#X connect 9 3 13 0;
#X connect 9 4 12 0;
#X connect 9 5 11 0;
#X connect 9 6 10 0;
#X connect 9 7 33 1;
#X connect 10 0 32 1;
#X connect 11 0 31 1;
#X connect 12 0 30 1;
#X connect 13 0 29 1;
#X connect 14 0 28 1;
#X connect 15 0 27 1;
#X connect 16 0 17 0;
#X connect 17 0 19 0;
#X connect 17 0 42 0;
#X connect 18 0 17 0;
#X connect 19 0 20 0;
#X connect 19 0 43 0;
#X connect 21 0 22 0;
#X connect 23 0 8 0;
#X connect 24 0 23 0;
#X connect 25 0 24 0;
#X connect 26 0 8 0;
#X connect 27 0 28 0;
#X connect 27 0 35 0;
#X connect 28 0 29 0;
#X connect 28 0 36 0;
#X connect 29 0 30 0;
#X connect 29 0 37 0;
#X connect 30 0 31 0;
#X connect 30 0 38 0;
#X connect 31 0 16 2;
#X connect 31 0 32 0;
#X connect 31 0 39 0;
#X connect 32 0 16 1;
#X connect 32 0 33 0;
#X connect 32 0 40 0;
#X connect 33 0 16 0;
#X connect 33 0 18 0;
#X connect 33 0 21 0;
#X connect 33 0 41 0;
