#N canvas 184 100 1289 831 10;
#X obj 377 395 pack f f f f f f f f f f f f f f f f;
#X floatatom 332 265 5 0 0 0 - - -;
#X obj 115 131 hsl 100 15 0 1 0 0 empty empty empty -2 -8 0 10 -262144
-1 -1 0 1;
#X floatatom 369 265 5 0 0 0 - - -;
#X obj 115 151 hsl 100 15 0 1 0 0 empty empty empty -2 -8 0 10 -262144
-1 -1 1000 1;
#X floatatom 404 265 5 0 0 0 - - -;
#X floatatom 440 265 5 0 0 0 - - -;
#X obj 115 171 hsl 100 15 0 1 0 0 empty empty empty -2 -8 0 10 -262144
-1 -1 0 1;
#X obj 115 191 hsl 100 15 0 1 0 0 empty empty empty -2 -8 0 10 -262144
-1 -1 0 1;
#X obj 115 211 hsl 100 15 0 1 0 0 empty empty empty -2 -8 0 10 -262144
-1 -1 0 1;
#X obj 115 231 hsl 100 15 0 1 0 0 empty empty empty -2 -8 0 10 -262144
-1 -1 0 1;
#X obj 115 251 hsl 100 15 0 1 0 0 empty empty empty -2 -8 0 10 -262144
-1 -1 0 1;
#X obj 115 271 hsl 100 15 0 1 0 0 empty empty empty -2 -8 0 10 -262144
-1 -1 0 1;
#X obj 115 291 hsl 100 15 0 1 0 0 empty empty empty -2 -8 0 10 -262144
-1 -1 0 1;
#X obj 115 311 hsl 100 15 0 1 0 0 empty empty empty -2 -8 0 10 -262144
-1 -1 0 1;
#X obj 115 331 hsl 100 15 0 1 0 0 empty empty empty -2 -8 0 10 -262144
-1 -1 0 1;
#X obj 115 351 hsl 100 15 0 1 0 0 empty empty empty -2 -8 0 10 -262144
-1 -1 0 1;
#X obj 115 371 hsl 100 15 0 1 0 0 empty empty empty -2 -8 0 10 -262144
-1 -1 0 1;
#X obj 115 391 hsl 100 15 0 1 0 0 empty empty empty -2 -8 0 10 -262144
-1 -1 0 1;
#X obj 115 411 hsl 100 15 0 1 0 0 empty empty empty -2 -8 0 10 -262144
-1 -1 0 1;
#X obj 115 431 hsl 100 15 0 1 0 0 empty empty empty -2 -8 0 10 -262144
-1 -1 0 1;
#X floatatom 476 266 5 0 0 0 - - -;
#X floatatom 513 266 5 0 0 0 - - -;
#X floatatom 548 266 5 0 0 0 - - -;
#X floatatom 584 266 5 0 0 0 - - -;
#X floatatom -40 753 5 0 0 0 - - -;
#X floatatom -3 753 5 0 0 0 - - -;
#X floatatom 32 753 5 0 0 0 - - -;
#X floatatom 68 753 5 0 0 0 - - -;
#X floatatom 420 753 5 0 0 0 - - -;
#X floatatom 457 753 5 0 0 0 - - -;
#X floatatom 492 753 5 0 0 0 - - -;
#X floatatom 528 753 5 0 0 0 - - -;
#X obj 398 438 outlet;
#X obj 332 51 t b f;
#X obj 369 51 t b f;
#X obj 406 51 t b f;
#X obj 446 51 t b f;
#X obj 483 51 t b f;
#X obj 520 51 t b f;
#X obj 557 51 t b f;
#X obj -118 681 t b f;
#X obj -81 681 t b f;
#X obj -44 681 t b f;
#X obj -7 681 t b f;
#X obj 348 680 t b f;
#X obj 385 680 t b f;
#X obj 422 680 t b f;
#X obj 459 680 t b f;
#X obj 701 28 inlet;
#X obj 738 28 r \$1;
#X obj 642 105 route /s1 /s2 /s3 /s4 /s5 /s6 /s7 /s8;
#X obj 861 295 route /s9 /s10 /s11 /s12 /s13 /s14 /s15 /s16;
#X connect 0 0 33 0;
#X connect 1 0 0 0;
#X connect 2 0 1 0;
#X connect 3 0 0 1;
#X connect 4 0 34 0;
#X connect 5 0 0 2;
#X connect 6 0 0 3;
#X connect 7 0 35 0;
#X connect 8 0 36 0;
#X connect 9 0 37 0;
#X connect 10 0 38 0;
#X connect 11 0 39 0;
#X connect 12 0 40 0;
#X connect 13 0 41 0;
#X connect 14 0 42 0;
#X connect 15 0 43 0;
#X connect 16 0 44 0;
#X connect 17 0 45 0;
#X connect 18 0 46 0;
#X connect 19 0 47 0;
#X connect 20 0 48 0;
#X connect 21 0 0 4;
#X connect 22 0 0 5;
#X connect 23 0 0 6;
#X connect 24 0 0 7;
#X connect 25 0 0 8;
#X connect 26 0 0 9;
#X connect 27 0 0 10;
#X connect 28 0 0 11;
#X connect 29 0 0 12;
#X connect 30 0 0 13;
#X connect 31 0 0 14;
#X connect 32 0 0 15;
#X connect 34 0 1 0;
#X connect 34 1 3 0;
#X connect 35 0 1 0;
#X connect 35 1 5 0;
#X connect 36 0 1 0;
#X connect 36 1 6 0;
#X connect 37 0 1 0;
#X connect 37 1 21 0;
#X connect 38 0 1 0;
#X connect 38 1 22 0;
#X connect 39 0 1 0;
#X connect 39 1 23 0;
#X connect 40 0 1 0;
#X connect 40 1 24 0;
#X connect 41 0 1 0;
#X connect 41 1 25 0;
#X connect 42 0 1 0;
#X connect 42 1 26 0;
#X connect 43 0 1 0;
#X connect 43 1 27 0;
#X connect 44 0 1 0;
#X connect 44 1 28 0;
#X connect 45 0 1 0;
#X connect 45 1 29 0;
#X connect 46 0 1 0;
#X connect 46 1 30 0;
#X connect 47 0 1 0;
#X connect 47 1 31 0;
#X connect 48 0 1 0;
#X connect 48 1 32 0;
#X connect 49 0 51 0;
#X connect 50 0 51 0;
#X connect 51 0 20 0;
#X connect 51 1 19 0;
#X connect 51 2 18 0;
#X connect 51 3 17 0;
#X connect 51 4 16 0;
#X connect 51 5 15 0;
#X connect 51 6 14 0;
#X connect 51 7 13 0;
#X connect 51 8 52 0;
#X connect 52 0 12 0;
#X connect 52 1 11 0;
#X connect 52 2 10 0;
#X connect 52 3 9 0;
#X connect 52 4 8 0;
#X connect 52 5 7 0;
#X connect 52 6 4 0;
#X connect 52 7 2 0;
#X coords 0 -1 1 1 130 360 1 100 100;
