#N canvas 421 111 411 207 10;
#X obj 40 142 outlet~;
#X obj 40 36 inlet~;
#X obj 40 63 phasor~;
#X obj 40 89 expr~ $v1 > 0.5;
#X obj 40 114 expr~ $v1 * 2 - 1;
#X obj 91 36 inlet;
#X obj 197 98 cnv 15 75 25 empty empty empty 20 12 0 14 -262130 -66577
0;
#X text 203 100 [s3g 2014];
#X connect 1 0 2 0;
#X connect 2 0 3 0;
#X connect 3 0 4 0;
#X connect 4 0 0 0;
#X connect 5 0 2 1;
