#N canvas 250 83 688 565 10;
#X obj 113 327 dac~;
#X obj 112 274 *~ 0.3;
#N canvas 0 22 450 300 (subpatch) 0;
#X array array_square1 100 float 0;
#X coords 0 1 99 -1 200 140 1 0 0;
#X restore 276 393 graph;
#X obj 275 273 tgl 30 0 empty empty empty 17 7 0 10 -262144 -1 -1 1
1;
#X text 315 274 <- graph;
#X msg 114 462 \; pd dsp \$1;
#X obj 114 414 tgl 30 0 empty empty empty 17 7 0 10 -262144 -1 -1 1
1;
#X obj 275 310 metro 50;
#X obj 275 340 tabwrite~ array_square1;
#X obj 112 194 pack f 200;
#X obj 112 221 line~;
#X floatatom 112 166 5 0 0 0 - - -, f 5;
#X obj 101 56 cnv 15 380 60 empty empty empty 20 12 0 14 -262130 -66577
0;
#X text 115 75 A square wave made with expr~.;
#X obj 112 249 6_square~;
#X text 113 60 [6_square~];
#X connect 1 0 0 0;
#X connect 1 0 0 1;
#X connect 1 0 8 0;
#X connect 3 0 7 0;
#X connect 6 0 5 0;
#X connect 7 0 8 0;
#X connect 9 0 10 0;
#X connect 10 0 14 0;
#X connect 11 0 9 0;
#X connect 14 0 1 0;
