#N canvas 0 22 568 521 10;
#X msg 225 136 0;
#X obj 78 179 phasor~;
#X obj 179 179 phasor~;
#X obj 78 219 *~ 2;
#X obj 78 246 -~ 1;
#X obj 78 278 clip~ 0 1;
#X obj 179 219 *~ 2;
#X obj 179 246 -~ 1;
#X obj 179 278 clip~ 0 1;
#X obj 78 353 +~;
#X obj 78 471 outlet~;
#X text 262 134 <- phase synchronization;
#X obj 188 29 inlet;
#X text 354 216 triangle wave;
#X obj 79 29 inlet~;
#X obj 136 136 *~ -1;
#X obj 78 393 expr~ $v1 * 2 - 1;
#X obj 367 28 loadbang;
#X obj 249 402 cnv 15 75 25 empty empty empty 20 12 0 14 -262130 -66577
0;
#X text 255 404 [s3g 2014];
#X connect 0 0 2 1;
#X connect 0 0 1 1;
#X connect 1 0 3 0;
#X connect 2 0 6 0;
#X connect 3 0 4 0;
#X connect 4 0 5 0;
#X connect 5 0 9 0;
#X connect 6 0 7 0;
#X connect 7 0 8 0;
#X connect 8 0 9 1;
#X connect 9 0 16 0;
#X connect 12 0 2 1;
#X connect 12 0 1 1;
#X connect 14 0 1 0;
#X connect 14 0 15 0;
#X connect 15 0 2 0;
#X connect 16 0 10 0;
#X connect 17 0 0 0;
