#N canvas 59 273 1676 828 10;
#X obj 636 577 outlet~;
#X obj 198 18 inlet;
#X obj 7 483 loadbang;
#X obj 7 506 f \$0;
#X floatatom 7 531 5 0 0 0 - - -, f 5;
#X obj 872 464 osc~;
#N canvas 0 22 914 697 wave_select 0;
#X obj 117 21 inlet;
#X obj 122 605 outlet;
#X obj 265 71 select 0 1 2 3;
#X obj 283 606 outlet;
#X obj 477 611 outlet;
#X obj 678 603 outlet;
#X obj 116 155 t b b b b;
#X msg 159 211 0;
#X msg 202 211 0;
#X msg 117 211 0;
#X msg 244 211 1;
#X obj 300 157 t b b b b;
#X msg 343 213 0;
#X msg 301 213 0;
#X msg 386 213 1;
#X msg 428 213 0;
#X obj 477 157 t b b b b;
#X msg 478 213 0;
#X msg 605 213 0;
#X msg 520 213 1;
#X msg 563 213 0;
#X obj 655 157 t b b b b;
#X msg 783 213 0;
#X msg 741 213 0;
#X msg 656 213 1;
#X msg 698 213 0;
#X connect 0 0 2 0;
#X connect 2 0 6 0;
#X connect 2 1 11 0;
#X connect 2 2 16 0;
#X connect 2 3 21 0;
#X connect 6 0 9 0;
#X connect 6 1 7 0;
#X connect 6 2 8 0;
#X connect 6 3 10 0;
#X connect 7 0 3 0;
#X connect 8 0 4 0;
#X connect 9 0 1 0;
#X connect 10 0 5 0;
#X connect 11 0 13 0;
#X connect 11 1 12 0;
#X connect 11 2 14 0;
#X connect 11 3 15 0;
#X connect 12 0 3 0;
#X connect 13 0 1 0;
#X connect 14 0 4 0;
#X connect 15 0 5 0;
#X connect 16 0 17 0;
#X connect 16 1 19 0;
#X connect 16 2 20 0;
#X connect 16 3 18 0;
#X connect 17 0 1 0;
#X connect 18 0 5 0;
#X connect 19 0 3 0;
#X connect 20 0 4 0;
#X connect 21 0 24 0;
#X connect 21 1 25 0;
#X connect 21 2 23 0;
#X connect 21 3 22 0;
#X connect 22 0 5 0;
#X connect 23 0 4 0;
#X connect 24 0 1 0;
#X connect 25 0 3 0;
#X restore 1037 463 pd wave_select;
#N canvas 0 22 771 392 wave_gate 0;
#X obj 110 167 *~ 0;
#X obj 147 82 tgl 15 0 empty empty empty 17 7 0 10 -262144 -1 -1 0
1;
#X obj 147 136 line;
#X msg 147 106 \$1 30;
#X obj 110 220 outlet~;
#X obj 109 36 inlet~;
#X obj 180 36 inlet;
#X connect 0 0 4 0;
#X connect 1 0 3 0;
#X connect 2 0 0 1;
#X connect 3 0 2 0;
#X connect 5 0 0 0;
#X connect 6 0 1 0;
#X restore 636 500 pd wave_gate;
#N canvas 0 22 771 392 wave_gate 0;
#X obj 110 167 *~ 0;
#X obj 147 82 tgl 15 0 empty empty empty 17 7 0 10 -262144 -1 -1 0
1;
#X obj 147 136 line;
#X msg 147 106 \$1 30;
#X obj 110 220 outlet~;
#X obj 109 36 inlet~;
#X obj 180 36 inlet;
#X connect 0 0 4 0;
#X connect 1 0 3 0;
#X connect 2 0 0 1;
#X connect 3 0 2 0;
#X connect 5 0 0 0;
#X connect 6 0 1 0;
#X restore 715 500 pd wave_gate;
#N canvas 0 22 771 392 wave_gate 0;
#X obj 110 167 *~ 0;
#X obj 147 82 tgl 15 0 empty empty empty 17 7 0 10 -262144 -1 -1 1
1;
#X obj 147 136 line;
#X msg 147 106 \$1 30;
#X obj 110 220 outlet~;
#X obj 109 36 inlet~;
#X obj 180 36 inlet;
#X connect 0 0 4 0;
#X connect 1 0 3 0;
#X connect 2 0 0 1;
#X connect 3 0 2 0;
#X connect 5 0 0 0;
#X connect 6 0 1 0;
#X restore 794 500 pd wave_gate;
#N canvas 0 22 771 392 wave_gate 0;
#X obj 110 167 *~ 0;
#X obj 147 82 tgl 15 0 empty empty empty 17 7 0 10 -262144 -1 -1 0
1;
#X obj 147 136 line;
#X msg 147 106 \$1 30;
#X obj 110 220 outlet~;
#X obj 109 36 inlet~;
#X obj 180 36 inlet;
#X connect 0 0 4 0;
#X connect 1 0 3 0;
#X connect 2 0 0 1;
#X connect 3 0 2 0;
#X connect 5 0 0 0;
#X connect 6 0 1 0;
#X restore 872 500 pd wave_gate;
#X floatatom 108 163 5 0 0 1 phase - -, f 5;
#X obj 637 362 line~;
#X msg -57 148 0;
#X obj -57 126 loadbang;
#X obj 108 137 hradio 21 1 0 4 empty empty empty 0 -8 0 10 -262144
-1 -1 1;
#X text 114 121 sn|sw|sqr|tri;
#X obj 105 18 receive \$1;
#X obj 121 484 cnv 15 75 25 empty empty empty 20 12 0 14 -262130 -66577
0;
#X text 127 486 [s3g 2014];
#X floatatom 638 65 5 0 0 0 - - -, f 5;
#X floatatom 695 225 5 0 0 1 glide_ms - -, f 5;
#X obj 638 258 pack f 200;
#X obj 638 32 * 11;
#X obj 638 195 mtof;
#X obj 638 152 + 0;
#X obj 759 125 t b f;
#X obj 638 109 f;
#X obj 759 79 * 12;
#X obj 695 201 * 1000;
#X floatatom 759 14 5 0 0 0 - - -, f 5;
#X obj 111 199 vradio 15 1 0 13 empty empty octave 0 -8 0 10 -262144
-1 -1 6;
#X obj 131 231 vsl 15 160 0 1 0 0 empty empty freq 0 -9 0 10 -262144
-1 -1 9900 1;
#X obj 151 241 vsl 15 150 0 1 0 0 empty empty glide 0 -9 0 10 -262144
-1 -1 9798 1;
#X obj 172 251 vsl 15 140 0 1 0 0 empty empty out 0 -9 0 10 -262144
-1 -1 10160 1;
#X obj 13 56 route /wave /freq /phase /out /octave /glide;
#X obj 759 -14 - 3;
#X floatatom 454 32 5 0 0 0 - - -, f 5;
#X floatatom 264 134 5 0 0 0 - - -, f 5;
#X obj 759 46 + 1;
#X obj 636 464 6_tri~;
#X obj 715 464 6_square~;
#X obj 794 464 6_saw~;
#X obj 636 549 6_logfade~;
#X obj 264 111 6_!- 13;
#X obj 454 9 6_!- 13;
#X connect 1 0 35 0;
#X connect 2 0 3 0;
#X connect 3 0 4 0;
#X connect 5 0 10 0;
#X connect 6 0 7 1;
#X connect 6 1 8 1;
#X connect 6 2 9 1;
#X connect 6 3 10 1;
#X connect 7 0 43 0;
#X connect 8 0 43 0;
#X connect 9 0 43 0;
#X connect 10 0 43 0;
#X connect 11 0 5 1;
#X connect 11 0 40 1;
#X connect 11 0 41 1;
#X connect 11 0 42 1;
#X connect 12 0 5 0;
#X connect 12 0 40 0;
#X connect 12 0 41 0;
#X connect 12 0 42 0;
#X connect 13 0 11 0;
#X connect 14 0 13 0;
#X connect 15 0 6 0;
#X connect 17 0 35 0;
#X connect 20 0 27 0;
#X connect 21 0 22 1;
#X connect 22 0 12 0;
#X connect 23 0 20 0;
#X connect 24 0 22 0;
#X connect 25 0 24 0;
#X connect 26 0 27 0;
#X connect 26 1 25 1;
#X connect 27 0 25 0;
#X connect 28 0 26 0;
#X connect 29 0 21 0;
#X connect 30 0 39 0;
#X connect 31 0 45 0;
#X connect 32 0 23 0;
#X connect 33 0 29 0;
#X connect 34 0 43 1;
#X connect 35 0 15 0;
#X connect 35 1 32 0;
#X connect 35 2 11 0;
#X connect 35 3 34 0;
#X connect 35 4 44 0;
#X connect 35 5 33 0;
#X connect 36 0 30 0;
#X connect 37 0 36 0;
#X connect 38 0 31 0;
#X connect 39 0 28 0;
#X connect 40 0 7 0;
#X connect 41 0 8 0;
#X connect 42 0 9 0;
#X connect 43 0 0 0;
#X connect 44 0 38 0;
#X connect 45 0 37 0;
#X coords 0 -1 1 1 100 300 1 100 100;
