#N canvas 263 211 680 461 10;
#X msg 265 354 \; pd dsp 0;
#X msg 330 354 \; pd dsp 1;
#X obj 117 145 osc~ 440;
#X obj 142 168 osc~ 880;
#X floatatom 167 240 5 0 0 0 - - -, f 5;
#X obj 117 370 dac~;
#X obj 170 207 hsl 128 15 0 1 0 0 empty empty crossfader_ch1=0_ch2=1
-2 -8 0 10 -262144 -1 -1 0 1;
#X floatatom 211 240 5 0 0 1 ramp/smoothing - -, f 5;
#X obj 111 20 cnv 15 380 60 empty empty empty 20 12 0 14 -262130 -66577
0;
#X text 125 39 Equal power crossfader.;
#X obj 117 280 6_xfade~ 1000;
#X text 214 281 argument is ramp time;
#X obj 117 319 *~ 0.2;
#X text 123 24 [6_xfade~];
#X connect 2 0 10 0;
#X connect 3 0 10 1;
#X connect 4 0 10 2;
#X connect 6 0 4 0;
#X connect 7 0 10 3;
#X connect 10 0 12 0;
#X connect 12 0 5 0;
#X connect 12 0 5 1;
