#N canvas 0 22 513 489 10;
#X obj 176 43 inlet~;
#X obj 220 43 inlet;
#X obj 176 282 *~;
#X text 221 24 crossfade;
#X obj 83 43 inlet~;
#X obj 83 282 *~;
#X obj 83 312 +~;
#X obj 83 341 outlet~;
#X obj 191 204 sin;
#X obj 98 204 cos;
#X text 81 25 1;
#X text 177 24 2;
#X obj 220 68 * 2;
#X obj 220 90 - 1;
#X obj 220 112 + 1;
#X obj 220 134 / 4;
#X obj 220 156 * 3.14159;
#X floatatom 220 178 5 0 0 0 - - -, f 5;
#X obj 191 253 line~;
#X obj 98 253 line~;
#X obj 346 44 inlet;
#X text 345 23 ramp;
#X text 81 369 adapted from KeithIrwin post at http://puredata.hurleur.com/sujet-5326-stereo-crossfader-adjustable-curve
;
#X obj 86 426 cnv 15 75 25 empty empty empty 20 12 0 14 -262130 -66577
0;
#X text 92 428 [s3g 2014];
#X obj 98 226 pack f \$1;
#X obj 191 226 pack f \$1;
#X connect 0 0 2 0;
#X connect 1 0 12 0;
#X connect 2 0 6 1;
#X connect 4 0 5 0;
#X connect 5 0 6 0;
#X connect 6 0 7 0;
#X connect 8 0 26 0;
#X connect 9 0 25 0;
#X connect 12 0 13 0;
#X connect 13 0 14 0;
#X connect 14 0 15 0;
#X connect 15 0 16 0;
#X connect 16 0 17 0;
#X connect 17 0 8 0;
#X connect 17 0 9 0;
#X connect 18 0 2 1;
#X connect 19 0 5 1;
#X connect 20 0 25 1;
#X connect 20 0 26 1;
#X connect 25 0 19 0;
#X connect 26 0 18 0;
