#N canvas 158 75 1465 832 10;
#X obj 593 390 pack f f f f f f f f f f f f f f f f;
#X floatatom 548 260 5 0 0 0 - - -, f 5;
#X floatatom 585 260 5 0 0 0 - - -, f 5;
#X floatatom 620 260 5 0 0 0 - - -, f 5;
#X floatatom 656 260 5 0 0 0 - - -, f 5;
#X floatatom 692 261 5 0 0 0 - - -, f 5;
#X floatatom 729 261 5 0 0 0 - - -, f 5;
#X floatatom 764 261 5 0 0 0 - - -, f 5;
#X floatatom 800 261 5 0 0 0 - - -, f 5;
#X floatatom -40 753 5 0 0 0 - - -, f 5;
#X floatatom -3 753 5 0 0 0 - - -, f 5;
#X floatatom 32 753 5 0 0 0 - - -, f 5;
#X floatatom 68 753 5 0 0 0 - - -, f 5;
#X floatatom 636 748 5 0 0 0 - - -, f 5;
#X floatatom 673 748 5 0 0 0 - - -, f 5;
#X floatatom 708 748 5 0 0 0 - - -, f 5;
#X floatatom 744 748 5 0 0 0 - - -, f 5;
#X obj 614 433 outlet;
#X obj 548 46 t b f;
#X obj 585 46 t b f;
#X obj 622 46 t b f;
#X obj 662 46 t b f;
#X obj 699 46 t b f;
#X obj 736 46 t b f;
#X obj 773 46 t b f;
#X obj -118 681 t b f;
#X obj -81 681 t b f;
#X obj -44 681 t b f;
#X obj -7 681 t b f;
#X obj 564 675 t b f;
#X obj 601 675 t b f;
#X obj 638 675 t b f;
#X obj 675 675 t b f;
#X obj 917 23 inlet;
#X obj 954 23 r \$1;
#X obj 110 120 hradio 15 1 0 16 empty empty empty 0 -8 0 10 -262144
-1 -1 0;
#X obj 858 100 route /b1 /b2 /b3 /b4 /b5 /b6 /b7 /b8;
#X obj 1013 596 route /b9 /b10 /b11 /b12 /b13 /b14 /b15 /b16;
#X obj 110 135 hradio 15 1 0 16 empty empty empty 0 -8 0 10 -262144
-1 -1 0;
#X obj 110 150 hradio 15 1 0 16 empty empty empty 0 -8 0 10 -262144
-1 -1 0;
#X obj 110 165 hradio 15 1 0 16 empty empty empty 0 -8 0 10 -262144
-1 -1 0;
#X obj 110 180 hradio 15 1 0 16 empty empty empty 0 -8 0 10 -262144
-1 -1 0;
#X obj 110 195 hradio 15 1 0 16 empty empty empty 0 -8 0 10 -262144
-1 -1 0;
#X obj 110 210 hradio 15 1 0 16 empty empty empty 0 -8 0 10 -262144
-1 -1 0;
#X obj 110 225 hradio 15 1 0 16 empty empty empty 0 -8 0 10 -262144
-1 -1 0;
#X obj 110 240 hradio 15 1 0 16 empty empty empty 0 -8 0 10 -262144
-1 -1 0;
#X obj 110 255 hradio 15 1 0 16 empty empty empty 0 -8 0 10 -262144
-1 -1 0;
#X obj 110 270 hradio 15 1 0 16 empty empty empty 0 -8 0 10 -262144
-1 -1 0;
#X obj 110 285 hradio 15 1 0 16 empty empty empty 0 -8 0 10 -262144
-1 -1 0;
#X obj 110 300 hradio 15 1 0 16 empty empty empty 0 -8 0 10 -262144
-1 -1 0;
#X obj 110 315 hradio 15 1 0 16 empty empty empty 0 -8 0 10 -262144
-1 -1 0;
#X obj 110 330 hradio 15 1 0 16 empty empty empty 0 -8 0 10 -262144
-1 -1 0;
#X obj 110 345 hradio 15 1 0 16 empty empty empty 0 -8 0 10 -262144
-1 -1 0;
#X connect 0 0 17 0;
#X connect 1 0 0 0;
#X connect 2 0 0 1;
#X connect 3 0 0 2;
#X connect 4 0 0 3;
#X connect 5 0 0 4;
#X connect 6 0 0 5;
#X connect 7 0 0 6;
#X connect 8 0 0 7;
#X connect 9 0 0 8;
#X connect 10 0 0 9;
#X connect 11 0 0 10;
#X connect 12 0 0 11;
#X connect 13 0 0 12;
#X connect 14 0 0 13;
#X connect 15 0 0 14;
#X connect 16 0 0 15;
#X connect 18 0 1 0;
#X connect 18 1 2 0;
#X connect 19 0 1 0;
#X connect 19 1 3 0;
#X connect 20 0 1 0;
#X connect 20 1 4 0;
#X connect 21 0 1 0;
#X connect 21 1 5 0;
#X connect 22 0 1 0;
#X connect 22 1 6 0;
#X connect 23 0 1 0;
#X connect 23 1 7 0;
#X connect 24 0 1 0;
#X connect 24 1 8 0;
#X connect 25 0 1 0;
#X connect 25 1 9 0;
#X connect 26 0 1 0;
#X connect 26 1 10 0;
#X connect 27 0 1 0;
#X connect 27 1 11 0;
#X connect 28 0 1 0;
#X connect 28 1 12 0;
#X connect 29 0 1 0;
#X connect 29 1 13 0;
#X connect 30 0 1 0;
#X connect 30 1 14 0;
#X connect 31 0 1 0;
#X connect 31 1 15 0;
#X connect 32 0 1 0;
#X connect 32 1 16 0;
#X connect 33 0 36 0;
#X connect 34 0 36 0;
#X connect 35 0 32 0;
#X connect 36 0 35 0;
#X connect 36 1 38 0;
#X connect 36 2 39 0;
#X connect 36 3 40 0;
#X connect 36 4 41 0;
#X connect 36 5 42 0;
#X connect 36 6 43 0;
#X connect 36 7 44 0;
#X connect 36 8 37 0;
#X connect 37 0 45 0;
#X connect 37 1 46 0;
#X connect 37 2 47 0;
#X connect 37 3 48 0;
#X connect 37 4 49 0;
#X connect 37 5 50 0;
#X connect 37 6 51 0;
#X connect 37 7 52 0;
#X connect 38 0 31 0;
#X connect 39 0 30 0;
#X connect 40 0 29 0;
#X connect 41 0 28 0;
#X connect 42 0 27 0;
#X connect 43 0 26 0;
#X connect 44 0 25 0;
#X connect 45 0 24 0;
#X connect 46 0 23 0;
#X connect 47 0 22 0;
#X connect 48 0 21 0;
#X connect 49 0 20 0;
#X connect 50 0 19 0;
#X connect 51 0 18 0;
#X connect 52 0 1 0;
#X coords 0 -1 1 1 260 270 1 100 100;
