#N canvas 158 123 1225 850 10;
#X obj 210 170 metro 125;
#X obj 210 118 tgl 15 0 empty empty empty 17 7 0 10 -262144 -1 -1 1
1;
#X obj 211 202 int;
#X obj 296 187 + 1;
#X obj 79 269 tabread pitch;
#X floatatom 79 366 5 0 0 0 - - -, f 5;
#X floatatom 261 141 5 0 0 0 - - -, f 5;
#X obj 296 214 % 16;
#X obj 202 345 tabread velocity;
#X obj 79 235 t f f f;
#N canvas 443 251 1004 593 presets 0;
#X text 132 26 pitches;
#X text 769 32 velocities;
#X obj 396 20 loadbang;
#X obj 396 43 t b b b;
#X msg 34 73 \; p1 /b1 1 \; p1 /b2 1 \; p1 /b3 2 \; p1 /b4 3 \; p1
/b5 5 \; p1 /b6 3 \; p1 /b7 7 \; p1 /b8 9 \; p1 /b9 16 \; p1 /b10 15
\; p1 /b11 12 \; p1 /b12 1 \; p1 /b13 12 \; p1 /b14 2 \; p1 /b15 2
\; p1 /b16 2 \;;
#X msg 118 73 \; p1 /b1 2 \; p1 /b2 2 \; p1 /b3 2 \; p1 /b4 2 \; p1
/b5 7 \; p1 /b6 2 \; p1 /b7 7 \; p1 /b8 4 \; p1 /b9 4 \; p1 /b10 2
\; p1 /b11 2 \; p1 /b12 2 \; p1 /b13 5 \; p1 /b14 5 \; p1 /b15 5 \;
p1 /b16 5 \;;
#X msg 191 72 \; p1 /b1 1 \; p1 /b2 5 \; p1 /b3 1 \; p1 /b4 1 \; p1
/b5 5 \; p1 /b6 5 \; p1 /b7 3 \; p1 /b8 3 \; p1 /b9 3 \; p1 /b10 1
\; p1 /b11 5 \; p1 /b12 2 \; p1 /b13 5 \; p1 /b14 5 \; p1 /b15 5 \;
p1 /b16 5 \;;
#X connect 2 0 3 0;
#X connect 3 0 4 0;
#X restore 52 143 pd presets;
#X obj 325 110 expr 1000/($f1/60);
#X floatatom 325 77 5 0 0 0 - - -, f 5;
#X msg 236 45 400;
#X msg 266 45 430;
#X msg 296 45 460;
#X msg 325 45 490;
#X msg 355 45 540;
#X msg 386 45 580;
#X floatatom 441 87 5 0 0 0 - - -, f 5;
#X obj 441 66 / 2;
#X text 520 749 partly based on MobMuPlat sequencer example;
#X obj 79 469 noteout;
#X obj 79 443 makenote;
#X floatatom 79 409 5 0 0 1 pitch_midi - -, f 5;
#X floatatom 202 409 5 0 0 1 velocity_midi - -, f 5;
#X floatatom 273 519 5 0 0 1 length_ms - -, f 5;
#X msg 273 494 50;
#X obj 273 457 loadbang;
#X obj 412 683 tabwrite pitch;
#X obj 412 547 list split 1;
#X obj 500 546 t l;
#X obj 412 519 t l l;
#X obj 454 572 list length;
#X obj 438 647 - 1;
#X obj 438 620 int;
#X obj 412 573 t f b;
#X obj 548 549 list split 1;
#X obj 636 548 t l;
#X obj 548 521 t l l;
#X obj 590 574 list length;
#X obj 574 649 - 1;
#X obj 574 620 int;
#X obj 548 575 t f b;
#X obj 412 705 table pitch 16;
#X obj 548 684 tabwrite velocity;
#X obj 548 706 table velocity 16;
#X obj 630 47 cnv 15 380 60 empty empty empty 20 12 0 14 -262130 -66577
0;
#X obj 412 153 6_bbank16 p1;
#X obj 678 153 6_bbank16 v1;
#X text 642 51 [6_bbank16];
#X obj 202 379 * 7;
#X obj 79 323 + 20;
#X obj 79 296 * 3;
#X text 644 66 Bank o' 16 \, 16-position radio buttons \, useful for
writing to a table;
#X connect 0 0 2 0;
#X connect 1 0 0 0;
#X connect 2 0 3 0;
#X connect 2 0 9 0;
#X connect 3 0 7 0;
#X connect 4 0 53 0;
#X connect 5 0 24 0;
#X connect 6 0 0 1;
#X connect 7 0 2 1;
#X connect 8 0 51 0;
#X connect 9 0 4 0;
#X connect 9 2 8 0;
#X connect 11 0 6 0;
#X connect 12 0 11 0;
#X connect 12 0 20 0;
#X connect 13 0 12 0;
#X connect 14 0 12 0;
#X connect 15 0 12 0;
#X connect 16 0 12 0;
#X connect 17 0 12 0;
#X connect 18 0 12 0;
#X connect 20 0 19 0;
#X connect 23 0 22 0;
#X connect 23 1 22 1;
#X connect 24 0 23 0;
#X connect 25 0 23 1;
#X connect 26 0 23 2;
#X connect 27 0 26 0;
#X connect 28 0 27 0;
#X connect 30 0 36 0;
#X connect 30 1 31 0;
#X connect 31 0 30 0;
#X connect 32 0 30 0;
#X connect 32 1 33 0;
#X connect 33 0 35 1;
#X connect 34 0 35 1;
#X connect 34 0 29 1;
#X connect 35 0 34 0;
#X connect 36 0 29 0;
#X connect 36 1 35 0;
#X connect 37 0 43 0;
#X connect 37 1 38 0;
#X connect 38 0 37 0;
#X connect 39 0 37 0;
#X connect 39 1 40 0;
#X connect 40 0 42 1;
#X connect 41 0 42 1;
#X connect 41 0 45 1;
#X connect 42 0 41 0;
#X connect 43 0 45 0;
#X connect 43 1 42 0;
#X connect 48 0 32 0;
#X connect 49 0 39 0;
#X connect 51 0 25 0;
#X connect 52 0 5 0;
#X connect 53 0 52 0;
