#N canvas 247 159 871 786 10;
#X floatatom 108 149 10 0 0 1 ramp - -, f 10;
#X obj 111 129 hsl 140 15 0 1 0 0 empty empty empty -2 -8 0 10 -262144
-66577 -66577 6700 1;
#X obj 201 8 inlet;
#X obj -127 24 inlet~;
#X obj -259 444 *~;
#X obj -378 24 inlet~;
#X obj -352 444 *~;
#X obj -243 528 +~;
#X obj -243 557 outlet~;
#X obj -43 253 sin;
#X obj -136 253 cos;
#X obj -14 158 * 2;
#X obj -14 183 / 4;
#X obj -14 205 * 3.14159;
#X floatatom -14 227 5 0 0 0 - - -, f 5;
#X obj -43 302 line~;
#X obj -136 302 line~;
#X obj -43 275 pack f 60;
#X obj -136 275 pack f 60;
#X text 231 290 adapted from KeithIrwin post at http://puredata.hurleur.com/sujet-5326-stereo-crossfader-adjustable-curve
;
#X obj 265 10 r \$1;
#X obj 97 547 outlet;
#X obj 197 388 cnv 15 75 25 empty empty empty 20 12 0 14 -262130 -66577
0;
#X text 203 390 [s3g 2014];
#X obj 97 414 line;
#X obj 201 36 route /xfade /ramp;
#X obj 97 382 pack f 60;
#X obj -74 24 inlet~;
#X obj -48 444 *~;
#X obj -327 24 inlet~;
#X obj -141 444 *~;
#X obj -32 528 +~;
#X obj -32 557 outlet~;
#X connect 0 0 18 1;
#X connect 0 0 17 1;
#X connect 1 0 11 0;
#X connect 1 0 26 0;
#X connect 2 0 25 0;
#X connect 3 0 4 0;
#X connect 4 0 7 1;
#X connect 5 0 6 0;
#X connect 6 0 7 0;
#X connect 7 0 8 0;
#X connect 9 0 17 0;
#X connect 10 0 18 0;
#X connect 11 0 12 0;
#X connect 12 0 13 0;
#X connect 13 0 14 0;
#X connect 14 0 9 0;
#X connect 14 0 10 0;
#X connect 15 0 4 1;
#X connect 15 0 28 1;
#X connect 16 0 6 1;
#X connect 16 0 30 1;
#X connect 17 0 15 0;
#X connect 18 0 16 0;
#X connect 20 0 25 0;
#X connect 24 0 21 0;
#X connect 25 0 1 0;
#X connect 25 1 0 0;
#X connect 25 1 26 1;
#X connect 26 0 24 0;
#X connect 27 0 28 0;
#X connect 28 0 31 1;
#X connect 29 0 30 0;
#X connect 30 0 31 0;
#X connect 31 0 32 0;
#X coords 0 -1 1 1 160 80 1 100 100;
