#N canvas 143 205 1055 558 10;
#X obj 63 191 osc~ 440;
#X floatatom 63 152 5 0 0 0 - - -, f 5;
#X obj 80 456 dac~;
#X msg 475 185 /ramp \$1;
#X floatatom 409 155 5 0 1 0 - - -, f 5;
#X floatatom 475 155 5 0 0 0 - - -, f 5;
#X msg 409 185 /xfade \$1;
#X floatatom 175 151 5 0 0 0 - - -, f 5;
#X obj 175 190 osc~ 300;
#X obj 601 118 loadbang;
#X obj 601 145 t b b;
#X msg 600 275 \; xf1 /ramp 3000 \; xf1 /xfade 0;
#X msg 599 321 \; xf1 /ramp 3000 \; xf1 /xfade 1;
#X floatatom 487 361 5 0 1 0 - - -, f 5;
#X msg 487 391 /xfade \$1;
#X obj 78 25 cnv 15 380 60 empty empty empty 20 12 0 14 -262130 -66577
0;
#X text 92 44 Equal power crossfader. The instantiation argument is
the address for sending parameter messages.;
#X msg 600 201 \; xf1 /ramp 300 \; xf1 /xfade 0.5;
#X obj 5 408 tgl 15 0 empty empty empty 17 7 0 10 -262144 -1 -1 0 1
;
#X msg 5 443 \; pd dsp \$1;
#X obj 80 396 *~ 0.2;
#X text 89 30 [6_crossfader~];
#X obj 79 240 6_crossfader~ xf1;
#X floatatom 119 152 5 0 0 0 - - -, f 5;
#X obj 119 191 osc~ 441;
#X floatatom 230 151 5 0 0 0 - - -, f 5;
#X obj 230 190 osc~ 304;
#X obj 294 432 6_crossfader~ xf2;
#X obj 130 397 *~ 0.2;
#X connect 0 0 22 0;
#X connect 1 0 0 0;
#X connect 4 0 6 0;
#X connect 5 0 3 0;
#X connect 7 0 8 0;
#X connect 8 0 22 2;
#X connect 9 0 10 0;
#X connect 10 0 17 0;
#X connect 13 0 14 0;
#X connect 14 0 27 4;
#X connect 18 0 19 0;
#X connect 20 0 2 0;
#X connect 22 0 20 0;
#X connect 22 1 28 0;
#X connect 22 2 13 0;
#X connect 23 0 24 0;
#X connect 24 0 22 1;
#X connect 25 0 26 0;
#X connect 26 0 22 3;
#X connect 28 0 2 1;
