#N canvas 200 96 1110 720 10;
#X obj 443 18 inlet~;
#X obj 179 554 outlet~;
#X obj 391 208 line~ 1;
#X obj 459 208 line~ 1;
#X obj 391 236 osc~;
#X obj 391 274 *~;
#X obj 536 208 line~ 1;
#X obj 391 315 *~;
#X obj 391 361 +~;
#X floatatom 391 157 5 0 0 0 - - -;
#X floatatom 459 157 5 0 0 0 - - -;
#X floatatom 536 157 5 0 0 0 - - -;
#X obj 391 132 * 100;
#X obj 459 132 * 1;
#X obj 536 131 * 100;
#X obj 505 18 inlet;
#X obj 391 182 pack f 100;
#X obj 459 182 pack f 100;
#X obj 536 182 pack f 100;
#X obj 443 56 delwrite~ \$0-dline 1000;
#X obj 391 392 vd~ \$0-dline 5;
#X obj 577 398 loadbang;
#X obj 577 421 f \$0;
#X floatatom 577 446 5 0 0 0 - - -;
#X obj 272 497 *~;
#X obj 179 497 *~;
#X obj 179 527 +~;
#X obj 287 419 sin;
#X obj 194 419 cos;
#X obj 316 283 * 2;
#X obj 316 305 - 1;
#X obj 316 327 + 1;
#X obj 316 349 / 4;
#X obj 316 371 * 3.14159;
#X floatatom 316 393 5 0 0 0 - - -;
#X obj 287 468 line~;
#X obj 194 468 line~;
#X obj 287 441 pack f 60;
#X obj 194 441 pack f 60;
#X obj 246 56 route /wet /rate /depth /delay;
#X obj 110 131 hsl 80 15 0 1 0 0 empty empty wet -2 -8 0 10 -262144
-1 -1 0 1;
#X obj 110 163 hsl 80 15 0 1 0 0 empty empty rate -2 -8 0 10 -262144
-1 -1 0 1;
#X obj 110 196 hsl 80 15 0 1 0 0 empty empty depth -2 -8 0 10 -262144
-1 -1 0 1;
#X obj 110 230 hsl 80 15 0 1 0 0 empty empty delay -2 -8 0 10 -262144
-1 -1 0 1;
#X obj 246 21 receive \$1;
#X obj 100 254 cnv 15 75 25 empty empty empty 20 12 0 14 -262130 -66577
0;
#X text 106 256 [s3g 2014];
#X connect 0 0 19 0;
#X connect 0 0 25 0;
#X connect 2 0 4 0;
#X connect 3 0 5 1;
#X connect 4 0 5 0;
#X connect 5 0 7 0;
#X connect 6 0 7 1;
#X connect 6 0 8 1;
#X connect 7 0 8 0;
#X connect 8 0 20 0;
#X connect 9 0 16 0;
#X connect 10 0 17 0;
#X connect 11 0 18 0;
#X connect 12 0 9 0;
#X connect 13 0 10 0;
#X connect 14 0 11 0;
#X connect 15 0 39 0;
#X connect 16 0 2 0;
#X connect 17 0 3 0;
#X connect 18 0 6 0;
#X connect 20 0 24 0;
#X connect 21 0 22 0;
#X connect 22 0 23 0;
#X connect 24 0 26 1;
#X connect 25 0 26 0;
#X connect 26 0 1 0;
#X connect 27 0 37 0;
#X connect 28 0 38 0;
#X connect 29 0 30 0;
#X connect 30 0 31 0;
#X connect 31 0 32 0;
#X connect 32 0 33 0;
#X connect 33 0 34 0;
#X connect 34 0 27 0;
#X connect 34 0 28 0;
#X connect 35 0 24 1;
#X connect 36 0 25 1;
#X connect 37 0 35 0;
#X connect 38 0 36 0;
#X connect 39 0 40 0;
#X connect 39 1 41 0;
#X connect 39 2 42 0;
#X connect 39 3 43 0;
#X connect 40 0 29 0;
#X connect 41 0 12 0;
#X connect 42 0 13 0;
#X connect 43 0 14 0;
#X connect 44 0 39 0;
#X coords 0 -1 1 1 100 150 1 100 100;
