#N canvas 119 69 758 706 10;
#X obj 117 203 osc~ 440;
#X floatatom 117 164 5 0 0 0 - - -, f 5;
#X obj 67 588 dac~;
#X msg 513 293 \; pd dsp 0;
#X msg 578 293 \; pd dsp 1;
#X msg 222 177 /vol \$1;
#X msg 283 177 /ramp \$1;
#X floatatom 222 147 5 0 1 0 - - -, f 5;
#X floatatom 283 147 5 0 0 0 - - -, f 5;
#X floatatom 330 298 20 0 0 0 - - -, f 20;
#X msg 330 402 /vol \$1;
#X floatatom 330 377 5 0 1 0 - - -, f 5;
#X floatatom 330 345 20 0 0 0 - - -, f 20;
#X floatatom 117 361 5 0 0 0 - - -, f 5;
#X obj 117 400 osc~ 300;
#X obj 66 534 *~ 0.35;
#X obj 84 17 cnv 15 380 60 empty empty empty 20 12 0 14 -262130 -66577
0;
#X text 98 36 Linear GUI volume slider. The instantiation argument
is the address for sending parameter messages.;
#X obj 281 499 loadbang;
#X msg 281 545 \; s1 /vol 0.8 \; s1 /ramp 200 \;;
#X obj 117 243 6_linslider~ s1;
#X obj 117 429 6_linslider~ s2;
#X obj 330 321 6_!- 1;
#X text 96 21 [6_linslider~];
#X connect 0 0 20 0;
#X connect 1 0 0 0;
#X connect 5 0 20 1;
#X connect 6 0 20 1;
#X connect 7 0 5 0;
#X connect 8 0 6 0;
#X connect 9 0 22 0;
#X connect 10 0 21 1;
#X connect 11 0 10 0;
#X connect 12 0 11 0;
#X connect 13 0 14 0;
#X connect 14 0 21 0;
#X connect 15 0 2 0;
#X connect 15 0 2 1;
#X connect 18 0 19 0;
#X connect 20 0 15 0;
#X connect 20 1 9 0;
#X connect 21 0 15 0;
#X connect 22 0 12 0;
