#N canvas 297 22 771 751 10;
#X floatatom 106 480 5 0 0 3 bar - -, f 5;
#X floatatom 199 481 5 0 0 3 beat - -, f 5;
#X msg 157 206 /reset;
#X msg 208 206 /speed \$1;
#X msg 277 206 /beats \$1;
#X floatatom 208 185 5 0 0 0 - - -, f 5;
#X floatatom 277 185 5 0 0 0 - - -, f 5;
#X msg 106 206 /on \$1;
#X obj 106 185 tgl 15 0 empty empty empty 17 7 0 10 -262144 -1 -1 1
1;
#X msg 363 327 \; m1 /reset \; m1 /on 1 \; m1 /speed 500 \; m1 /beats
4;
#X msg 471 327 \; m1 /reset \; m1 /on 1 \; m1 /speed 300 \; m1 /beats
16;
#X msg 364 404 \; m1 /reset \; m1 /on 1 \; m1 /speed 200 \; m1 /beats
13;
#X obj 363 270 loadbang;
#X obj 104 47 cnv 15 380 100 empty empty empty 20 12 0 14 -262130 -66577
0;
#X text 118 66 Metro/counter which outputs bar and beat numbers. The
instantiation argument is the address for sending parameter messages.
;
#X obj 106 312 6_measures m1;
#X text 116 51 [6_measures];
#X connect 2 0 15 0;
#X connect 3 0 15 0;
#X connect 4 0 15 0;
#X connect 5 0 3 0;
#X connect 6 0 4 0;
#X connect 7 0 15 0;
#X connect 8 0 7 0;
#X connect 12 0 9 0;
#X connect 15 0 0 0;
#X connect 15 1 1 0;
