#N canvas 231 22 1059 891 10;
#X msg 476 389 \; m2 /mute 1;
#X msg 476 424 \; m2 /mute 0;
#X obj 476 243 loadbang;
#X obj 476 268 t b b b;
#X msg 577 302 \; m1 /hi 0.5 \; m1 /mid 0.5 \; m1 /lo 0.5 \; m1 /pan
0.5 \; m1 /vol 0.75;
#X msg 577 388 \; m1 /mute 1;
#X msg 577 423 \; m1 /mute 0;
#X obj 377 79 cnv 15 380 60 empty empty empty 20 12 0 14 -262130 -66577
0;
#X text 391 98 Mixer channel with volume \, pan \, and EQ. The instantiation
argument is the address for sending parameter messages.;
#X msg 476 303 \; m2 /hi 0.2 \; m2 /mid 0.7 \; m2 /lo 0.1 \; m2 /pan
0.5 \; m2 /vol 0.75;
#X obj 152 634 dac~;
#X msg 43 623 \; pd dsp \$1;
#X obj 43 592 tgl 15 0 empty empty empty 17 7 0 10 -262144 -1 -1 0
1;
#X obj 119 211 6_mixch~ m1;
#X obj 205 210 6_mixch~ m2;
#X text 389 83 [6_mixch~];
#X obj 119 140 noise~;
#X obj 206 140 noise~;
#X connect 2 0 3 0;
#X connect 3 0 9 0;
#X connect 3 1 4 0;
#X connect 12 0 11 0;
#X connect 13 0 10 0;
#X connect 13 1 10 1;
#X connect 14 0 10 0;
#X connect 14 1 10 1;
#X connect 16 0 13 0;
#X connect 17 0 14 0;
