#N canvas 130 89 1383 803 10;
#X obj 314 737 outlet~;
#X obj 379 5 inlet;
#X obj 7 474 loadbang;
#X obj 7 506 f \$0;
#X floatatom 7 531 5 0 0 0 - - -, f 5;
#X obj 311 5 receive \$1;
#X obj 140 164 vsl 20 215 0 1 0 0 empty empty in2 0 -9 0 10 -262144
-1 -1 0 1;
#X obj 170 184 vsl 20 195 0 1 0 0 empty empty in3 0 -9 0 10 -262144
-1 -1 0 1;
#X obj 83 -1 inlet~;
#X text 691 656 s3g_2016;
#X msg 56 508 0;
#X obj 39 0 inlet~;
#X obj 111 144 vsl 20 235 0 1 0 0 empty empty in1 0 -9 0 10 -262144
-1 -1 0 1;
#X obj 199 204 vsl 20 175 0 1 0 0 empty empty in4 0 -9 0 10 -262144
-1 -1 0 1;
#N canvas 505 23 695 474 logfade 0;
#X obj 171 23 inlet~;
#X obj 241 23 inlet;
#X obj 171 330 *~;
#X obj 171 376 outlet~;
#X obj 241 136 sin;
#X obj 241 48 * 2;
#X obj 241 70 / 4;
#X obj 241 92 * 3.14159;
#X floatatom 241 114 5 0 0 0 - - -, f 5;
#X obj 241 256 line~;
#X msg 241 232 \$1 40;
#X connect 0 0 2 0;
#X connect 1 0 5 0;
#X connect 2 0 3 0;
#X connect 4 0 10 0;
#X connect 5 0 6 0;
#X connect 6 0 7 0;
#X connect 7 0 8 0;
#X connect 8 0 4 0;
#X connect 9 0 2 1;
#X connect 10 0 9 0;
#X restore 254 505 pd logfade;
#X obj 172 -2 inlet~;
#X obj 128 -1 inlet~;
#X text 108 112 >in1 >in2 >in3 >in4;
#X obj 311 51 route /in1 /in2 /in3 /in4;
#N canvas 505 23 695 474 logfade 0;
#X obj 171 23 inlet~;
#X obj 241 23 inlet;
#X obj 171 330 *~;
#X obj 171 376 outlet~;
#X obj 241 136 sin;
#X obj 241 48 * 2;
#X obj 241 70 / 4;
#X obj 241 92 * 3.14159;
#X floatatom 241 114 5 0 0 0 - - -, f 5;
#X obj 241 256 line~;
#X msg 241 232 \$1 40;
#X connect 0 0 2 0;
#X connect 1 0 5 0;
#X connect 2 0 3 0;
#X connect 4 0 10 0;
#X connect 5 0 6 0;
#X connect 6 0 7 0;
#X connect 7 0 8 0;
#X connect 8 0 4 0;
#X connect 9 0 2 1;
#X connect 10 0 9 0;
#X restore 321 505 pd logfade;
#N canvas 505 23 695 474 logfade 0;
#X obj 171 23 inlet~;
#X obj 241 23 inlet;
#X obj 171 330 *~;
#X obj 171 376 outlet~;
#X obj 241 136 sin;
#X obj 241 48 * 2;
#X obj 241 70 / 4;
#X obj 241 92 * 3.14159;
#X floatatom 241 114 5 0 0 0 - - -, f 5;
#X obj 241 256 line~;
#X msg 241 232 \$1 40;
#X connect 0 0 2 0;
#X connect 1 0 5 0;
#X connect 2 0 3 0;
#X connect 4 0 10 0;
#X connect 5 0 6 0;
#X connect 6 0 7 0;
#X connect 7 0 8 0;
#X connect 8 0 4 0;
#X connect 9 0 2 1;
#X connect 10 0 9 0;
#X restore 389 505 pd logfade;
#N canvas 505 23 695 474 logfade 0;
#X obj 171 23 inlet~;
#X obj 241 23 inlet;
#X obj 171 330 *~;
#X obj 171 376 outlet~;
#X obj 241 136 sin;
#X obj 241 48 * 2;
#X obj 241 70 / 4;
#X obj 241 92 * 3.14159;
#X floatatom 241 114 5 0 0 0 - - -, f 5;
#X obj 241 256 line~;
#X msg 241 232 \$1 40;
#X connect 0 0 2 0;
#X connect 1 0 5 0;
#X connect 2 0 3 0;
#X connect 4 0 10 0;
#X connect 5 0 6 0;
#X connect 6 0 7 0;
#X connect 7 0 8 0;
#X connect 8 0 4 0;
#X connect 9 0 2 1;
#X connect 10 0 9 0;
#X restore 456 505 pd logfade;
#X text 105 385 mixout >;
#X connect 1 0 18 0;
#X connect 2 0 3 0;
#X connect 2 0 10 0;
#X connect 3 0 4 0;
#X connect 5 0 18 0;
#X connect 6 0 19 1;
#X connect 7 0 20 1;
#X connect 8 0 19 0;
#X connect 11 0 14 0;
#X connect 12 0 14 1;
#X connect 13 0 21 1;
#X connect 14 0 0 0;
#X connect 15 0 21 0;
#X connect 16 0 20 0;
#X connect 18 0 12 0;
#X connect 18 1 6 0;
#X connect 18 2 7 0;
#X connect 18 3 13 0;
#X connect 19 0 0 0;
#X connect 20 0 0 0;
#X connect 21 0 0 0;
#X coords 0 -1 1 1 130 300 1 100 100;
