#N canvas 137 70 1138 726 10;
#X obj 198 18 inlet;
#X obj 1076 -40 loadbang;
#X obj 1076 -17 f \$0;
#X floatatom 1076 8 5 0 0 0 - - -, f 5;
#X obj 625 130 phasor~ 100;
#X obj 625 152 -~ 0.5;
#X obj 625 174 cos~;
#X obj 625 196 +~ 1;
#X obj 625 218 *~ 0.5;
#X obj 625 240 *~;
#X obj 730 140 sig~;
#X obj 730 162 lop~ 10;
#X obj 715 193 *~;
#X obj 715 215 cos~;
#X floatatom 625 79 5 0 0 1 frequency - -, f 5;
#X floatatom 730 79 5 0 0 1 ripple - -, f 5;
#X obj 625 302 *~;
#X floatatom 879 79 5 0 0 1 width - -, f 5;
#X obj 625 355 *~;
#X obj 625 377 +~ 1;
#X obj 561 450 /~;
#X obj 561 377 sig~ 1;
#X obj 561 474 hip~ 1;
#X text 848 217 based on a patch within Andy Farnell's Designing Sound
book;
#X obj 561 615 outlet~;
#X obj 625 36 line;
#X obj 730 36 line;
#X obj 879 36 line;
#X obj 740 -66 * 10;
#X obj 879 -48 * 20;
#X obj 110 163 hsl 80 13 0 1 0 0 empty empty out -2 -8 0 10 -262144
-1 -1 2370 1;
#X obj 105 18 receive \$1;
#X obj 561 571 *~;
#X obj 697 472 sin;
#X obj 697 340 * 2;
#X obj 697 362 - 1;
#X obj 697 384 + 1;
#X obj 697 406 / 4;
#X obj 697 428 * 3.14159;
#X floatatom 697 450 5 0 0 0 - - -, f 5;
#X obj 697 548 line~;
#X obj 697 521 pack f 20;
#X obj 822 263 cnv 15 75 25 empty empty empty 20 12 0 14 -262130 -66577
0;
#X text 828 265 [s3g 2014];
#X obj 115 199 vradio 15 1 0 13 empty empty octave 0 -8 0 10 -262144
-1 -1 6;
#X obj 136 211 vsl 15 180 0 1 0 0 empty empty freq 0 -9 0 10 -262144
-1 -1 12530 1;
#X obj 157 221 vsl 15 170 0 1 0 0 empty empty ripple 0 -9 0 10 -262144
-1 -1 8450 1;
#X obj 110 132 hsl 80 13 0 1 0 0 empty empty width -2 -8 0 10 -262144
-1 -1 3160 1;
#X floatatom 625 -156 5 0 0 0 - - -, f 5;
#X obj 625 -189 * 11;
#X obj 625 -26 mtof;
#X obj 625 -69 + 0;
#X obj 668 -85 t b f;
#X obj 625 -112 f;
#X obj 668 -131 * 12;
#X floatatom 668 -196 5 0 0 0 - - -, f 5;
#X obj 668 -224 - 3;
#X floatatom 479 -112 5 0 0 0 - - -, f 5;
#X obj 668 -164 + 1;
#X obj 105 53 route /freq /ripple /width /out /octave;
#X floatatom 289 102 5 0 0 0 - - -, f 5;
#X obj 879 -26 + 1;
#X obj 740 -39 + 0.5;
#X obj 625 3 pack f 10;
#X obj 730 3 pack f 10;
#X obj 879 3 pack f 10;
#X obj 289 79 6_!- 13;
#X obj 479 -135 6_!- 13;
#X connect 0 0 59 0;
#X connect 1 0 2 0;
#X connect 2 0 3 0;
#X connect 4 0 5 0;
#X connect 5 0 6 0;
#X connect 5 0 12 0;
#X connect 6 0 7 0;
#X connect 7 0 8 0;
#X connect 8 0 9 0;
#X connect 9 0 16 0;
#X connect 10 0 11 0;
#X connect 11 0 12 1;
#X connect 12 0 13 0;
#X connect 13 0 9 1;
#X connect 14 0 4 0;
#X connect 15 0 10 0;
#X connect 16 0 18 0;
#X connect 16 0 18 1;
#X connect 17 0 16 1;
#X connect 18 0 19 0;
#X connect 19 0 20 1;
#X connect 20 0 22 0;
#X connect 21 0 20 0;
#X connect 22 0 32 0;
#X connect 25 0 14 0;
#X connect 26 0 15 0;
#X connect 27 0 17 0;
#X connect 28 0 62 0;
#X connect 29 0 61 0;
#X connect 30 0 34 0;
#X connect 31 0 59 0;
#X connect 32 0 24 0;
#X connect 33 0 41 0;
#X connect 34 0 35 0;
#X connect 35 0 36 0;
#X connect 36 0 37 0;
#X connect 37 0 38 0;
#X connect 38 0 39 0;
#X connect 39 0 33 0;
#X connect 40 0 32 1;
#X connect 41 0 40 0;
#X connect 44 0 67 0;
#X connect 45 0 49 0;
#X connect 46 0 28 0;
#X connect 47 0 29 0;
#X connect 48 0 53 0;
#X connect 49 0 48 0;
#X connect 50 0 63 0;
#X connect 51 0 50 0;
#X connect 52 0 53 0;
#X connect 52 1 51 1;
#X connect 53 0 51 0;
#X connect 54 0 52 0;
#X connect 55 0 58 0;
#X connect 56 0 55 0;
#X connect 57 0 56 0;
#X connect 58 0 54 0;
#X connect 59 0 45 0;
#X connect 59 1 46 0;
#X connect 59 2 47 0;
#X connect 59 3 30 0;
#X connect 59 4 66 0;
#X connect 60 0 44 0;
#X connect 61 0 65 0;
#X connect 62 0 64 0;
#X connect 63 0 25 0;
#X connect 64 0 26 0;
#X connect 65 0 27 0;
#X connect 66 0 60 0;
#X connect 67 0 57 0;
#X coords 0 -1 1 1 100 300 1 100 100;
