#N canvas 196 107 929 839 10;
#X obj 627 217 loadbang;
#X msg 674 315 \; v1 /ramp 300 \; v1 /vol 0.5;
#X obj 516 68 cnv 15 380 80 empty empty empty 20 12 0 14 -262130 -66577
0;
#X obj 627 249 t b b b b b;
#X obj 118 388 6_linslider~ v1;
#X obj 118 523 6_ezdac~;
#X msg 200 41 /midi \$1;
#X floatatom 200 18 5 0 0 0 - - -, f 5;
#X text 530 87 A basic wave generator: sine \, saw \, triangle \, and
square. \; Range is linear going from ~32.70 Hz to 126434 Hz. Accepts
messages for lower and higher values for range than \; displayed.;
#X obj 77 41 sig~;
#X floatatom 77 18 5 0 0 0 - - -, f 5;
#X obj 294 41 sig~;
#X floatatom 294 18 5 0 0 0 - - -, f 5;
#X obj 77 74 6_osc~ w1;
#X text 528 72 [6_osc~];
#X obj 294 74 6_osc~ w2;
#X floatatom 417 25 5 0 0 0 - - -, f 5;
#X msg 417 48 /range \$1;
#X connect 0 0 3 0;
#X connect 3 3 1 0;
#X connect 4 0 5 0;
#X connect 4 0 5 1;
#X connect 6 0 13 2;
#X connect 7 0 6 0;
#X connect 9 0 13 0;
#X connect 10 0 9 0;
#X connect 11 0 15 0;
#X connect 12 0 11 0;
#X connect 13 1 4 0;
#X connect 15 0 13 1;
#X connect 16 0 17 0;
#X connect 17 0 15 2;
