#N canvas 207 76 1140 588 10;
#X obj 894 496 cnv 15 75 25 empty empty empty 20 12 0 14 -262130 -66577
0;
#X obj 903 269 f \$0;
#X obj 903 250 bng 15 250 50 0 empty empty empty 17 7 0 10 -262144
-1 -1;
#X floatatom 903 290 5 0 0 0 - - -, f 5;
#X msg 771 409 \; \$1 resize \$2;
#X obj 771 386 pack s f;
#X obj 829 83 loadbang;
#X obj 903 337 outlet;
#X obj 580 29 inlet;
#X obj 829 108 t b b b;
#X obj 771 362 symbol \$0-order;
#X floatatom 563 374 5 0 0 0 - - -, f 5;
#X obj 646 244 t b f f f b f;
#X floatatom 110 289 10 0 0 1 size - -, f 10;
#X obj 647 143 f;
#X floatatom 219 289 10 0 0 1 index - -, f 10;
#X floatatom 216 369 10 0 0 1 value - -, f 10;
#X obj 216 403 outlet;
#X obj 216 330 tabread \$0-order;
#X msg 858 134 10;
#X obj 371 31 inlet;
#X obj 371 61 bng 15 250 50 0 empty empty empty 17 7 0 10 -262144 -1
-1;
#X obj 371 85 t b b;
#X msg 829 134 1;
#X obj 413 335 t f f b;
#X obj 413 401 / 10;
#X obj 413 550 tabwrite \$0-order;
#N canvas 0 22 450 278 (subpatch) 0;
#X array \$0-order 10 float 3;
#A 0 -0.6 0.6 0.4 -0.8 0.8 0.4 -0.4 0.8 0.2 0.6;
#X coords 0 1 10 -1 200 140 1;
#X restore 110 143 graph;
#X obj 580 65 route /size /index /name;
#X obj 643 29 r \$1;
#X obj 413 460 * 2;
#X obj 413 483 - 1;
#X obj 413 288 6_gat 1 10;
#X text 954 334 send out unique array number;
#X obj 512 401 random 10;
#X text 900 498 [s3g 2016];
#X connect 1 0 3 0;
#X connect 2 0 1 0;
#X connect 3 0 7 0;
#X connect 5 0 4 0;
#X connect 6 0 9 0;
#X connect 8 0 28 0;
#X connect 9 0 23 0;
#X connect 9 1 19 0;
#X connect 9 2 2 0;
#X connect 10 0 5 0;
#X connect 11 0 34 1;
#X connect 12 0 32 0;
#X connect 12 1 32 2;
#X connect 12 2 25 1;
#X connect 12 3 11 0;
#X connect 12 4 10 0;
#X connect 12 5 5 1;
#X connect 13 0 14 0;
#X connect 14 0 12 0;
#X connect 15 0 18 0;
#X connect 16 0 17 0;
#X connect 18 0 16 0;
#X connect 19 0 13 0;
#X connect 20 0 21 0;
#X connect 21 0 22 0;
#X connect 22 0 15 0;
#X connect 22 1 14 0;
#X connect 24 0 25 0;
#X connect 24 2 34 0;
#X connect 25 0 30 0;
#X connect 28 0 13 0;
#X connect 28 1 15 0;
#X connect 28 2 2 0;
#X connect 29 0 28 0;
#X connect 30 0 31 0;
#X connect 31 0 26 0;
#X connect 32 0 24 0;
#X connect 34 0 26 1;
#X coords 0 -1 1 1 220 220 1 100 100;
