#N canvas 196 67 1454 916 10;
#N canvas 289 115 1246 875 recording 0;
#X obj 101 31 inlet~;
#X msg 173 204 start;
#X msg 210 204 stop;
#X obj 116 132 line~;
#X obj 146 56 t b b;
#X obj 338 159 change;
#X obj 338 31 inlet;
#X obj 146 31 r \$0-startRecording;
#X obj 210 99 r \$0-stopRecording;
#X msg 244 740 \; \$1 resize \$2;
#X obj 244 717 pack s f;
#X obj 244 577 t b b;
#X obj 244 553 loadbang;
#X obj 338 191 select 1;
#X obj 925 465 timer;
#X floatatom 925 498 15 0 0 0 - - -, f 15;
#X obj 383 214 s \$0-stopRecording;
#X obj 399 706 s \$0-startRecording;
#X obj 409 481 pack s 0;
#X msg 409 504 \; \$1 const \$2;
#X obj 925 575 outlet;
#X obj 925 531 * 0.1;
#X obj 436 426 bng 15 250 50 0 empty empty empty 17 7 0 10 -262144
-1 -1;
#X obj 338 276 t b b b b;
#X obj 221 552 bng 15 250 50 0 empty empty empty 17 7 0 10 -262144
-1 -1;
#X obj 210 128 t b b b;
#X obj 101 170 *~;
#X msg 146 100 0 \, 1 20;
#X msg 253 151 1 \, 0 20;
#X obj 210 175 delay 22;
#X text 295 587 5 minutes;
#X msg 288 606 1.323e+07;
#X obj 877 466 / 44.1;
#X obj 54 381 tabwrite~ \$0-tapereel1;
#X obj 101 349 tabwrite~ \$0-tapereel2;
#X obj 54 31 inlet~;
#X obj 54 170 *~;
#X obj 244 693 symbol \$0-tapereel1;
#X msg 118 739 \; \$1 resize \$2;
#X obj 118 716 pack s f;
#X obj 118 692 symbol \$0-tapereel2;
#X obj 536 481 pack s 0;
#X msg 536 504 \; \$1 const \$2;
#X obj 409 457 symbol \$0-tapereel2;
#X obj 536 457 symbol \$0-tapereel1;
#X connect 0 0 26 0;
#X connect 1 0 34 0;
#X connect 1 0 33 0;
#X connect 2 0 34 0;
#X connect 2 0 33 0;
#X connect 3 0 26 1;
#X connect 3 0 36 1;
#X connect 4 0 27 0;
#X connect 4 1 1 0;
#X connect 5 0 13 0;
#X connect 6 0 5 0;
#X connect 7 0 4 0;
#X connect 8 0 25 0;
#X connect 10 0 9 0;
#X connect 11 0 37 0;
#X connect 11 0 40 0;
#X connect 11 1 31 0;
#X connect 12 0 11 0;
#X connect 13 0 23 0;
#X connect 13 1 16 0;
#X connect 14 0 15 0;
#X connect 15 0 21 0;
#X connect 18 0 19 0;
#X connect 21 0 20 0;
#X connect 22 0 43 0;
#X connect 23 0 17 0;
#X connect 23 1 43 0;
#X connect 23 2 44 0;
#X connect 23 3 14 0;
#X connect 24 0 11 0;
#X connect 25 0 14 1;
#X connect 25 1 29 0;
#X connect 25 2 28 0;
#X connect 26 0 34 0;
#X connect 27 0 3 0;
#X connect 28 0 3 0;
#X connect 29 0 2 0;
#X connect 31 0 10 1;
#X connect 31 0 32 0;
#X connect 31 0 39 1;
#X connect 32 0 15 0;
#X connect 35 0 36 0;
#X connect 36 0 33 0;
#X connect 37 0 10 0;
#X connect 39 0 38 0;
#X connect 40 0 39 0;
#X connect 41 0 42 0;
#X connect 43 0 18 0;
#X connect 44 0 41 0;
#X restore 2 244 pd recording;
#X obj 744 -29 inlet;
#X obj 367 764 outlet~;
#X obj 306 547 *~;
#X msg 338 496 \$1 20;
#X obj 338 518 line~;
#X floatatom 443 249 10 0 0 0 - - -, f 10;
#X obj 187 163 bng 30 250 50 0 empty empty pitch_reset 36 7 0 10 -262144
-1 -1;
#X obj 190 123 hsl 100 30 0 1 0 0 empty empty transpose 34 8 0 10 -262144
-1 -1 4950 1;
#X msg 401 202 0.5;
#X obj 792 -29 r \$1;
#X obj 108 163 tgl 30 0 empty empty record 36 7 0 10 -262144 -1 -1
0 1;
#X obj 108 123 tgl 30 0 empty empty play 36 7 0 10 -262144 -1 -1 0
1;
#X msg 199 57 0;
#X obj 643 490 f \$0;
#X obj 643 471 bng 15 250 50 0 empty empty empty 17 7 0 10 -262144
-1 -1;
#X floatatom 643 511 5 0 0 0 - - -, f 5;
#X obj 643 443 loadbang;
#X obj 643 588 outlet;
#X obj 139 -70 select 1;
#X msg 184 -42 0;
#X msg 593 183 1;
#X obj 593 153 select 1;
#X msg 638 182 0;
#X obj 443 202 * 480;
#X obj 443 227 - 240;
#X obj 704 589 outlet;
#X obj 72 411 table \$0-tapereel1;
#X obj 72 436 table \$0-tapereel2;
#N canvas 266 124 1322 823 playback1 0;
#X floatatom 69 167 10 0 0 0 - - -, f 10;
#X obj 84 527 +~ 1;
#X obj 84 605 *~;
#X obj -217 201 line~;
#X obj -217 151 * 441;
#X floatatom -217 126 0 0 100 0 - - -;
#X obj -217 176 pack 0 100;
#X text -183 127 <-- read point in 100ths of a second;
#X obj 84 556 +~;
#X obj 140 556 samphold~;
#X obj 84 455 samphold~;
#X obj 84 502 *~;
#X floatatom 463 121 0 0 0 0 - - -;
#X obj 121 192 * 0.01;
#X text 233 193 chunk size;
#X obj 474 183 t b f;
#X obj 463 225 /;
#X obj 463 66 loadbang;
#X obj 249 527 -~ 0.5;
#X obj 249 556 *~ 0.5;
#X obj 249 581 cos~;
#X obj 463 146 expr pow(2 \, $f1/120);
#X text 602 146 speed change;
#X obj 463 249 phasor~;
#X obj 550 268 +~ 0.5;
#X obj 550 294 wrap~;
#X obj 338 527 +~ 1;
#X obj 338 616 *~;
#X obj 338 556 +~;
#X obj 393 556 samphold~;
#X obj 338 455 samphold~;
#X obj 338 502 *~;
#X obj 503 527 -~ 0.5;
#X obj 503 556 *~ 0.5;
#X obj 503 581 cos~;
#X obj 84 634 +~;
#X text 498 121 <-- transposition \, halftones/10;
#X text 501 224 loop frequency;
#X obj 84 686 outlet~;
#X msg 463 97 0;
#X obj 42 12 inlet;
#X obj 412 12 inlet;
#X obj 69 192 * 441;
#X text 140 166 <-- chunk size (100ths of a second);
#X msg -217 99 0;
#X obj 708 12 inlet;
#X text 756 11 <-- phase position;
#X msg 608 218 0;
#X obj -217 59 t b f;
#X obj 42 50 t f f;
#X text 105 136 <-- overlap factor;
#X obj 84 301 sig~;
#X obj 81 257 t b f;
#X obj 84 581 tabread4~ \$0-tapereel1;
#X obj 338 581 tabread4~ \$0-tapereel1;
#X floatatom 734 283 5 0 0 0 - - -, f 5;
#X floatatom 32 245 5 0 0 0 - - -, f 5;
#X obj 69 138 - 20;
#X obj 69 113 * 1.5;
#X obj 69 83 f;
#X obj 903 17 inlet;
#X text 953 16 <-- read point in 100ths of a second;
#X connect 0 0 13 0;
#X connect 0 0 42 0;
#X connect 1 0 8 0;
#X connect 2 0 35 0;
#X connect 3 0 29 0;
#X connect 3 0 9 0;
#X connect 4 0 6 0;
#X connect 5 0 4 0;
#X connect 6 0 3 0;
#X connect 8 0 53 0;
#X connect 9 0 8 1;
#X connect 10 0 11 0;
#X connect 11 0 1 0;
#X connect 12 0 21 0;
#X connect 13 0 15 0;
#X connect 15 0 16 0;
#X connect 15 1 16 1;
#X connect 16 0 23 0;
#X connect 16 0 55 0;
#X connect 17 0 39 0;
#X connect 18 0 19 0;
#X connect 19 0 20 0;
#X connect 20 0 2 1;
#X connect 21 0 16 0;
#X connect 23 0 24 0;
#X connect 23 0 18 0;
#X connect 23 0 9 1;
#X connect 23 0 10 1;
#X connect 23 0 11 1;
#X connect 24 0 25 0;
#X connect 25 0 32 0;
#X connect 25 0 29 1;
#X connect 25 0 30 1;
#X connect 25 0 31 1;
#X connect 26 0 28 0;
#X connect 27 0 35 1;
#X connect 28 0 54 0;
#X connect 29 0 28 1;
#X connect 30 0 31 0;
#X connect 31 0 26 0;
#X connect 32 0 33 0;
#X connect 33 0 34 0;
#X connect 34 0 27 1;
#X connect 35 0 38 0;
#X connect 39 0 12 0;
#X connect 40 0 49 0;
#X connect 41 0 12 0;
#X connect 42 0 52 0;
#X connect 42 0 56 0;
#X connect 44 0 5 0;
#X connect 45 0 23 1;
#X connect 47 0 23 1;
#X connect 48 0 44 0;
#X connect 48 1 6 1;
#X connect 49 0 48 0;
#X connect 49 1 59 0;
#X connect 51 0 10 0;
#X connect 51 0 30 0;
#X connect 52 0 47 0;
#X connect 52 1 51 0;
#X connect 53 0 2 0;
#X connect 54 0 27 0;
#X connect 57 0 0 0;
#X connect 58 0 57 0;
#X connect 59 0 58 0;
#X connect 60 0 5 0;
#X restore 238 504 pd playback1;
#X obj 461 543 *~;
#X msg 493 492 \$1 20;
#X obj 493 514 line~;
#N canvas 327 132 1322 823 playback2 0;
#X floatatom 69 197 10 0 0 0 - - -, f 10;
#X obj 84 527 +~ 1;
#X obj 84 605 *~;
#X obj -215 224 line~;
#X obj -215 174 * 441;
#X floatatom -215 149 0 0 100 0 - - -;
#X obj -215 199 pack 0 100;
#X text -181 150 <-- read point in 100ths of a second;
#X obj 84 556 +~;
#X obj 140 556 samphold~;
#X obj 84 455 samphold~;
#X obj 84 502 *~;
#X floatatom 463 121 0 0 0 0 - - -;
#X obj 121 222 * 0.01;
#X text 233 154 chunk size;
#X obj 474 201 t b f;
#X obj 463 225 /;
#X obj 463 66 loadbang;
#X obj 249 527 -~ 0.5;
#X obj 249 556 *~ 0.5;
#X obj 249 581 cos~;
#X obj 463 146 expr pow(2 \, $f1/120);
#X text 602 146 speed change;
#X obj 463 249 phasor~;
#X obj 550 268 +~ 0.5;
#X obj 550 294 wrap~;
#X obj 338 527 +~ 1;
#X obj 338 616 *~;
#X obj 338 556 +~;
#X obj 393 556 samphold~;
#X obj 338 455 samphold~;
#X obj 338 502 *~;
#X obj 503 527 -~ 0.5;
#X obj 503 556 *~ 0.5;
#X obj 503 581 cos~;
#X obj 84 634 +~;
#X text 498 121 <-- transposition \, halftones/10;
#X text 501 224 loop frequency;
#X obj 84 686 outlet~;
#X msg 463 97 0;
#X obj 42 12 inlet;
#X obj 412 12 inlet;
#X obj 69 222 * 441;
#X text 140 196 <-- chunk size (100ths of a second);
#X msg -215 122 0;
#X obj 708 12 inlet;
#X text 756 11 <-- phase position;
#X msg 608 218 0;
#X obj -215 82 t b f;
#X obj 42 50 t f f;
#X text 105 166 <-- overlap factor;
#X obj 84 331 sig~;
#X obj 81 287 t b f;
#X obj 84 581 tabread4~ \$0-tapereel2;
#X obj 338 581 tabread4~ \$0-tapereel2;
#X floatatom 162 63 5 0 0 0 - - -, f 5;
#X obj 69 143 * 1.5;
#X obj 69 168 - 20;
#X obj 71 90 f;
#X obj 903 17 inlet;
#X text 953 16 <-- read point in 100ths of a second;
#X connect 0 0 13 0;
#X connect 0 0 42 0;
#X connect 1 0 8 0;
#X connect 2 0 35 0;
#X connect 3 0 29 0;
#X connect 3 0 9 0;
#X connect 4 0 6 0;
#X connect 5 0 4 0;
#X connect 6 0 3 0;
#X connect 8 0 53 0;
#X connect 9 0 8 1;
#X connect 10 0 11 0;
#X connect 11 0 1 0;
#X connect 12 0 21 0;
#X connect 13 0 15 0;
#X connect 15 0 16 0;
#X connect 15 1 16 1;
#X connect 16 0 23 0;
#X connect 17 0 39 0;
#X connect 18 0 19 0;
#X connect 19 0 20 0;
#X connect 20 0 2 1;
#X connect 21 0 16 0;
#X connect 23 0 24 0;
#X connect 23 0 18 0;
#X connect 23 0 9 1;
#X connect 23 0 10 1;
#X connect 23 0 11 1;
#X connect 24 0 25 0;
#X connect 25 0 32 0;
#X connect 25 0 29 1;
#X connect 25 0 30 1;
#X connect 25 0 31 1;
#X connect 26 0 28 0;
#X connect 27 0 35 1;
#X connect 28 0 54 0;
#X connect 29 0 28 1;
#X connect 30 0 31 0;
#X connect 31 0 26 0;
#X connect 32 0 33 0;
#X connect 33 0 34 0;
#X connect 34 0 27 1;
#X connect 35 0 38 0;
#X connect 39 0 12 0;
#X connect 40 0 49 0;
#X connect 40 0 55 0;
#X connect 41 0 12 0;
#X connect 42 0 52 0;
#X connect 44 0 5 0;
#X connect 45 0 23 1;
#X connect 47 0 23 1;
#X connect 48 0 44 0;
#X connect 48 1 6 1;
#X connect 49 0 48 0;
#X connect 49 1 58 0;
#X connect 51 0 10 0;
#X connect 51 0 30 0;
#X connect 52 0 47 0;
#X connect 52 1 51 0;
#X connect 53 0 2 0;
#X connect 54 0 27 0;
#X connect 56 0 57 0;
#X connect 57 0 0 0;
#X connect 58 0 56 0;
#X connect 59 0 5 0;
#X restore 403 506 pd playback2;
#X obj 491 764 outlet~;
#X obj 0 -69 inlet~;
#X msg 139 -39 1;
#X msg 543 258 0;
#X obj 792 63 route /rec /play /stop /transpose /pitchreset /arrayname
/readpoint1 /readpoint2;
#X obj 45 -69 inlet~;
#X obj 112 203 hsl 178 30 0 1 0 0 empty empty read_point1 34 8 0 10
-262144 -1 -1 5854 1;
#X obj 112 242 hsl 178 30 0 1 0 0 empty empty read_point2 34 8 0 10
-262144 -1 -1 0 1;
#X obj 236 442 * 100;
#X obj 518 446 * 100;
#X connect 0 0 29 0;
#X connect 0 0 26 0;
#X connect 0 0 33 0;
#X connect 1 0 38 0;
#X connect 3 0 2 0;
#X connect 4 0 5 0;
#X connect 5 0 3 1;
#X connect 6 0 29 1;
#X connect 6 0 33 1;
#X connect 7 0 9 0;
#X connect 8 0 24 0;
#X connect 9 0 8 0;
#X connect 10 0 38 0;
#X connect 11 0 0 2;
#X connect 12 0 4 0;
#X connect 12 0 31 0;
#X connect 13 0 12 0;
#X connect 13 0 11 0;
#X connect 14 0 16 0;
#X connect 15 0 14 0;
#X connect 16 0 18 0;
#X connect 17 0 15 0;
#X connect 19 0 36 0;
#X connect 19 1 20 0;
#X connect 20 0 11 0;
#X connect 21 0 12 0;
#X connect 22 0 21 0;
#X connect 22 1 23 0;
#X connect 23 0 12 0;
#X connect 24 0 25 0;
#X connect 25 0 6 0;
#X connect 29 0 3 0;
#X connect 30 0 34 0;
#X connect 31 0 32 0;
#X connect 32 0 30 1;
#X connect 33 0 30 0;
#X connect 35 0 0 0;
#X connect 36 0 11 0;
#X connect 37 0 29 2;
#X connect 37 0 33 2;
#X connect 38 0 19 0;
#X connect 38 1 22 0;
#X connect 38 2 13 0;
#X connect 38 3 8 0;
#X connect 38 4 7 0;
#X connect 38 5 15 0;
#X connect 38 6 40 0;
#X connect 38 7 41 0;
#X connect 39 0 0 1;
#X connect 40 0 42 0;
#X connect 41 0 43 0;
#X connect 42 0 29 3;
#X connect 43 0 33 3;
#X coords 0 -1 1 1 200 200 1 100 100;
