#N canvas 93 23 1291 951 10;
#X msg 293 66 /name;
#X floatatom 224 39 5 0 0 0 - - -, f 5;
#X floatatom 155 39 10 0 0 0 - - -, f 10;
#X msg 155 66 /size \$1;
#X obj 354 15 cnv 15 380 60 empty empty empty 20 12 0 14 -262130 -66577
0;
#X obj 64 109 bng 15 250 50 0 empty empty empty 17 7 0 10 -262144 -1
-1;
#X floatatom 64 379 5 0 0 0 - - -, f 5;
#X obj 64 407 + 1;
#X obj 64 432 / 2;
#X floatatom 64 457 5 0 0 0 - - -, f 5;
#X text 104 378 output will be: -1 to +1;
#X text 105 419 rescale to: 0 to 1;
#X text 107 482 scale;
#X obj 64 506 + 1;
#X text 107 506 offset;
#X msg 224 66 /index \$1;
#X obj 599 115 tgl 15 0 empty empty empty 17 7 0 10 -262144 -1 -1 0
1;
#X obj 599 331 - 1;
#X msg 828 176 \; ro1 /size 10;
#X obj 743 109 loadbang;
#X obj 298 438 select 1 2 3 4 5 6 7 8 9 10;
#X obj 298 509 bng 15 250 50 0 empty empty empty 17 7 0 10 -262144
-1 -1;
#X obj 316 509 bng 15 250 50 0 empty empty empty 17 7 0 10 -262144
-1 -1;
#X obj 334 509 bng 15 250 50 0 empty empty empty 17 7 0 10 -262144
-1 -1;
#X obj 352 509 bng 15 250 50 0 empty empty empty 17 7 0 10 -262144
-1 -1;
#X obj 370 509 bng 15 250 50 0 empty empty empty 17 7 0 10 -262144
-1 -1;
#X obj 388 509 bng 15 250 50 0 empty empty empty 17 7 0 10 -262144
-1 -1;
#X obj 406 509 bng 15 250 50 0 empty empty empty 17 7 0 10 -262144
-1 -1;
#X obj 424 509 bng 15 250 50 0 empty empty empty 17 7 0 10 -262144
-1 -1;
#X obj 442 509 bng 15 250 50 0 empty empty empty 17 7 0 10 -262144
-1 -1;
#X obj 460 509 bng 15 250 50 0 empty empty empty 17 7 0 10 -262144
-1 -1;
#X floatatom 650 114 5 0 0 0 - - -, f 5;
#X obj 64 482 * 10;
#X obj 743 136 t b b b b;
#X floatatom 755 751 5 0 0 0 - - -, f 5;
#X obj 755 611 bng 15 250 50 0 empty empty empty 17 7 0 10 -262144
-1 -1;
#X floatatom 755 664 5 0 0 0 - - -, f 5;
#X floatatom 942 749 5 0 0 0 - - -, f 5;
#X obj 942 609 bng 15 250 50 0 empty empty empty 17 7 0 10 -262144
-1 -1;
#X floatatom 942 662 5 0 0 0 - - -, f 5;
#X msg 755 776 \; te3 /speed \$1;
#X msg 942 774 \; te1 /speed \$1;
#X obj 599 365 select 9;
#X obj 600 492 spigot;
#X obj 633 470 tgl 15 0 empty empty empty 17 7 0 10 -262144 -1 -1 0
1;
#X obj 633 422 random 10;
#X obj 599 393 t b b;
#X text 514 113 try it out >;
#X obj 755 632 random 3;
#X obj 942 630 random 3;
#X obj 678 471 tgl 15 0 empty empty empty 17 7 0 10 -262144 -1 -1 0
1;
#X obj 678 494 sel 1;
#X obj 678 547 s speedAdjust;
#X obj 650 89 r speedAdjust;
#X floatatom 846 750 5 0 0 0 - - -, f 5;
#X obj 846 610 bng 15 250 50 0 empty empty empty 17 7 0 10 -262144
-1 -1;
#X floatatom 846 663 5 0 0 0 - - -, f 5;
#X obj 846 631 random 3;
#X msg 846 775 \; te2 /speed \$1;
#X obj 678 446 > 7;
#X msg 678 519 90;
#X obj 633 446 > 4;
#X msg 708 519 100;
#X obj 599 145 metro 100;
#X obj 846 715 * 0.1;
#X obj 942 714 * 0.1;
#X obj 755 716 * 0.1;
#X obj 755 688 + 0.6;
#X obj 846 687 + 0.7;
#X obj 942 686 + 0.8;
#X text 366 22 [6_rearray];
#X obj 64 132 6_rearray ro1;
#X obj 277 357 sprintf %i-order;
#X obj 277 377 6_setmessage;
#X msg 277 398 1113-order;
#X obj 168 567 6_sampleplay~ te1;
#X obj 334 569 6_sampleplay~ te2;
#X obj 502 571 6_sampleplay~ te3;
#X msg 747 316 \; te2 /read ./sounds/alesisAR16/METBELL2.wav \; te2
/speed 0.7 \;;
#X msg 747 254 \; te1 /read ./sounds/alesisAR16/METBELL.wav \; te1
/speed 1 \;;
#X msg 747 377 \; te3 /read ./sounds/alesisAR16/STIK.wav \; te3 /speed
0.9 \;;
#X obj 168 836 6_ezdac~;
#X obj 599 174 6_counter c1;
#X text 368 37 Array with random shuffle \, resizing \, and indexing.
Values between -1 and +1.;
#X obj 64 536 int;
#X floatatom 64 565 5 0 0 0 - - -, f 5;
#X connect 0 0 71 1;
#X connect 1 0 15 0;
#X connect 2 0 3 0;
#X connect 3 0 71 1;
#X connect 5 0 71 0;
#X connect 6 0 7 0;
#X connect 7 0 8 0;
#X connect 8 0 9 0;
#X connect 9 0 32 0;
#X connect 13 0 84 0;
#X connect 15 0 71 1;
#X connect 16 0 63 0;
#X connect 17 0 1 0;
#X connect 17 0 42 0;
#X connect 19 0 33 0;
#X connect 20 0 21 0;
#X connect 20 1 22 0;
#X connect 20 2 23 0;
#X connect 20 3 24 0;
#X connect 20 4 25 0;
#X connect 20 5 26 0;
#X connect 20 6 27 0;
#X connect 20 7 28 0;
#X connect 20 8 29 0;
#X connect 20 9 30 0;
#X connect 22 0 38 0;
#X connect 22 0 75 0;
#X connect 23 0 55 0;
#X connect 23 0 76 0;
#X connect 24 0 35 0;
#X connect 24 0 77 0;
#X connect 26 0 77 0;
#X connect 28 0 76 0;
#X connect 29 0 76 0;
#X connect 31 0 63 1;
#X connect 32 0 13 0;
#X connect 33 0 18 0;
#X connect 33 1 79 0;
#X connect 33 2 78 0;
#X connect 33 3 80 0;
#X connect 34 0 40 0;
#X connect 35 0 48 0;
#X connect 36 0 67 0;
#X connect 37 0 41 0;
#X connect 38 0 49 0;
#X connect 39 0 69 0;
#X connect 42 0 46 0;
#X connect 43 0 5 0;
#X connect 44 0 43 1;
#X connect 45 0 59 0;
#X connect 45 0 61 0;
#X connect 46 0 43 0;
#X connect 46 1 45 0;
#X connect 48 0 36 0;
#X connect 49 0 39 0;
#X connect 50 0 51 0;
#X connect 51 0 60 0;
#X connect 51 1 62 0;
#X connect 53 0 31 0;
#X connect 54 0 58 0;
#X connect 55 0 57 0;
#X connect 56 0 68 0;
#X connect 57 0 56 0;
#X connect 59 0 50 0;
#X connect 60 0 52 0;
#X connect 61 0 44 0;
#X connect 62 0 52 0;
#X connect 63 0 82 0;
#X connect 64 0 54 0;
#X connect 65 0 37 0;
#X connect 66 0 34 0;
#X connect 67 0 66 0;
#X connect 68 0 64 0;
#X connect 69 0 65 0;
#X connect 71 0 6 0;
#X connect 71 1 72 0;
#X connect 72 0 73 0;
#X connect 73 0 74 0;
#X connect 75 0 81 0;
#X connect 75 0 81 1;
#X connect 76 0 81 0;
#X connect 76 0 81 1;
#X connect 77 0 81 0;
#X connect 77 0 81 1;
#X connect 82 0 17 0;
#X connect 84 0 85 0;
#X connect 85 0 20 0;
