#N canvas 105 105 1401 763 10;
#X obj 626 181 adc~;
#X obj 626 545 dac~, f 11;
#X msg 902 164 /readpoint1 \$1;
#X floatatom 902 131 5 0 0 0 - - -, f 5;
#X floatatom 1052 131 5 0 0 0 - - -, f 5;
#X obj 905 70 hsl 128 15 0 1 0 0 empty empty empty -2 -8 0 10 -262144
-1 -1 0 1;
#X obj 902 96 * 100;
#X obj 1055 70 hsl 128 15 0 1 0 0 empty empty empty -2 -8 0 10 -262144
-1 -1 0 1;
#X obj 1052 96 * 100;
#X msg 1052 164 /readpoint2 \$1;
#X floatatom 819 489 15 0 0 0 - - -, f 15;
#X obj 626 231 6_reel~;
#X connect 0 0 11 0;
#X connect 0 0 11 1;
#X connect 2 0 11 2;
#X connect 3 0 2 0;
#X connect 4 0 9 0;
#X connect 5 0 6 0;
#X connect 6 0 3 0;
#X connect 7 0 8 0;
#X connect 8 0 4 0;
#X connect 9 0 11 2;
#X connect 11 0 1 0;
#X connect 11 1 1 1;
#X connect 11 3 10 0;
