#N canvas 266 99 1359 884 10;
#X obj 473 233 zl iter 1;
#X obj 419 360 + 1;
#X obj 364 349 f 1;
#X msg 379 269 1;
#X obj 364 300 bng 15 250 50 0 empty empty empty 17 7 0 10 -262144
-1 -1;
#X obj 364 380 t f f;
#X obj 455 463 coll;
#C restore;
#X msg 409 267 clear;
#X obj 473 263 t b a;
#X obj 455 419 pack f s;
#X obj 500 310 tosymbol;
#X floatatom 364 406 5 0 0 0 - - -, f 5;
#X obj 455 487 fromsymbol;
#X floatatom 280 212 10 0 0 0 - - -, f 10;
#X obj 280 146 expr 60000 / $f1;
#X floatatom 280 115 8 0 0 1 bpm - -, f 8;
#X obj 253 246 metro;
#X obj 253 56 tgl 15 0 empty empty empty 17 7 0 10 -262144 -1 -1 1
1;
#X obj 308 294 + 1;
#X obj 253 283 f 1;
#X msg 343 270 1;
#X obj 253 314 t f f;
#X obj 253 427 >= 4;
#X obj 253 461 select 1;
#X floatatom 253 382 5 0 0 0 - - -, f 5;
#X obj 380 224 t b b;
#X obj 380 203 bng 15 250 50 0 empty empty empty 17 7 0 10 -262144
-1 -1;
#X text 397 200 reset;
#X obj 473 198 t a b;
#X msg 569 132 o o x o x o o;
#X msg 569 108 o o o;
#X obj 266 89 select 0;
#X msg 569 84 * * _ - x x o;
#X obj 7 20 tgl 30 0 empty empty seq 34 15 0 10 -262144 -1 -1 1 1;
#X obj -60 -55 loadbang;
#X obj 455 594 outlet;
#X text 518 199 variables in (space between each needed);
#X text 503 593 sequenced variables out at the bpm rate;
#X obj 290 -37 inlet;
#X obj 345 -36 r \$1;
#X obj -60 -28 t b b;
#X obj 10 55 hsl 130 15 0 1 0 0 empty empty bpm 110 -8 0 10 -262144
-1 -1 1612 1;
#X obj -74 129 + 10;
#X floatatom 108 75 5 0 0 0 - - -, f 5;
#X obj -16 152 int;
#X obj 370 504 t b f;
#X obj 280 185 * 0.5;
#X msg -32 1 0.3;
#X obj 61 119 - 10;
#X obj -74 152 + 0.5;
#X obj -74 103 * 400;
#X obj 61 156 / 400;
#X obj 234 -36 inlet;
#X obj 131 494 cnv 15 75 25 empty empty empty 20 12 0 14 -262130 -66577
0;
#X obj 941 592 outlet;
#X text 996 591 end of sequence bang;
#X obj 253 494 t b b;
#X text 137 496 [s3g 2016];
#X obj 171 144 * 4;
#X floatatom 8 75 5 0 0 1 multiply - -, f 5;
#X obj 162 118 t b f, f 6;
#X obj 290 -6 route /seq /bpm /multiply;
#X connect 0 0 8 0;
#X connect 1 0 2 1;
#X connect 2 0 5 0;
#X connect 3 0 2 1;
#X connect 4 0 2 0;
#X connect 5 0 9 0;
#X connect 5 0 11 0;
#X connect 5 1 1 0;
#X connect 6 0 12 0;
#X connect 7 0 6 0;
#X connect 8 0 2 0;
#X connect 8 1 10 0;
#X connect 9 0 6 0;
#X connect 10 0 9 1;
#X connect 11 0 22 1;
#X connect 11 0 45 0;
#X connect 12 0 35 0;
#X connect 13 0 16 1;
#X connect 14 0 46 0;
#X connect 15 0 14 0;
#X connect 16 0 19 0;
#X connect 17 0 16 0;
#X connect 17 0 31 0;
#X connect 18 0 19 1;
#X connect 19 0 21 0;
#X connect 20 0 19 1;
#X connect 21 0 24 0;
#X connect 21 1 18 0;
#X connect 22 0 23 0;
#X connect 23 0 56 0;
#X connect 24 0 22 0;
#X connect 24 0 6 0;
#X connect 25 0 3 0;
#X connect 25 1 7 0;
#X connect 26 0 25 0;
#X connect 28 0 0 0;
#X connect 28 1 26 0;
#X connect 29 0 28 0;
#X connect 30 0 28 0;
#X connect 32 0 28 0;
#X connect 33 0 17 0;
#X connect 34 0 40 0;
#X connect 38 0 61 0;
#X connect 39 0 61 0;
#X connect 40 1 47 0;
#X connect 41 0 50 0;
#X connect 42 0 49 0;
#X connect 43 0 58 0;
#X connect 44 0 43 0;
#X connect 45 0 15 0;
#X connect 46 0 13 0;
#X connect 47 0 41 0;
#X connect 48 0 51 0;
#X connect 49 0 44 0;
#X connect 50 0 42 0;
#X connect 51 0 41 0;
#X connect 52 0 28 0;
#X connect 56 0 20 0;
#X connect 56 1 54 0;
#X connect 58 0 15 0;
#X connect 59 0 60 0;
#X connect 60 0 43 0;
#X connect 60 1 58 1;
#X connect 61 0 33 0;
#X connect 61 1 48 0;
#X connect 61 2 59 0;
#X coords 0 -1 1 1 150 100 1 0 0;
