#N canvas 300 22 1368 673 10;
#X obj 904 497 cnv 15 75 25 empty empty empty 20 12 0 14 -262130 -66577
0;
#X obj 913 278 f \$0;
#X obj 913 254 bng 15 250 50 0 empty empty empty 17 7 0 10 -262144
-1 -1;
#X floatatom 913 304 5 0 0 0 - - -, f 5;
#X msg 781 424 \; \$1 resize \$2;
#X obj 781 398 pack s f;
#X obj 839 76 loadbang;
#X obj 913 349 outlet;
#X obj 590 39 inlet;
#X obj 839 129 t b b b;
#X obj 781 372 symbol \$0-order;
#X floatatom 223 120 10 0 0 1 size - -, f 10;
#X obj 656 221 f;
#X floatatom 110 292 8 0 0 1 rindex - -, f 8;
#X obj 221 424 outlet;
#X obj 110 424 tabread \$0-order;
#N canvas 0 22 450 278 (subpatch) 0;
#X array \$0-order 16 float 3;
#A 0 0 0 0.5 0.5 0 0 1 1 0 1 0.2 1 1 1 1 0.2;
#X coords 0 1 16 0 200 140 1;
#X restore 110 140 graph;
#X obj 653 39 r \$1;
#X obj 647 398 pack s f;
#X obj 647 372 symbol \$0-order;
#X msg 647 424 \; \$1 bounds 0 1 \$2 0;
#X obj 656 247 t f f b f b f;
#X obj 221 292 nbx 5 15 -1e+37 1e+37 0 0 empty empty value 58 8 0 10
-262144 -1 -1 1 256;
#X msg 858 172 16;
#X text 965 349 send out unique array number;
#X text 910 496 [s3g 2016];
#X obj 590 65 route /size /rindex /name;
#X connect 1 0 3 0;
#X connect 2 0 1 0;
#X connect 3 0 7 0;
#X connect 5 0 4 0;
#X connect 6 0 9 0;
#X connect 8 0 26 0;
#X connect 9 1 23 0;
#X connect 9 2 2 0;
#X connect 10 0 5 0;
#X connect 11 0 12 0;
#X connect 12 0 21 0;
#X connect 13 0 15 0;
#X connect 15 0 22 0;
#X connect 17 0 26 0;
#X connect 18 0 20 0;
#X connect 19 0 18 0;
#X connect 21 2 19 0;
#X connect 21 3 18 1;
#X connect 21 4 10 0;
#X connect 21 5 5 1;
#X connect 22 0 14 0;
#X connect 23 0 11 0;
#X connect 26 0 11 0;
#X connect 26 1 13 0;
#X connect 26 2 2 0;
#X coords 0 -1 1 1 220 220 1 100 100;
