#N canvas 53 23 1441 982 10;
#X obj 582 527 send;
#X obj 603 439 symbol;
#X obj 918 319 zl join;
#X obj 729 325 zl join;
#X obj 729 350 zl join;
#X obj 756 418 prepend set;
#X msg 730 455 0 0 0.5 0.5 0 0 1 1 1 1 1 0.5 1 1 1 0.2;
#X obj 729 375 t b l;
#X floatatom 129 380 5 0 0 0 - - -, f 5;
#X floatatom 129 449 5 0 0 0 - - -, f 5;
#X obj 129 403 * 10;
#X obj 129 427 int;
#X obj 129 505 bng 15 250 50 0 empty empty empty 17 7 0 10 -262144
-1 -1;
#X obj 154 505 bng 15 250 50 0 empty empty empty 17 7 0 10 -262144
-1 -1;
#X obj 179 505 bng 15 250 50 0 empty empty empty 17 7 0 10 -262144
-1 -1;
#X obj 384 95 tgl 15 0 empty empty empty 17 7 0 10 -262144 -1 -1 1
1;
#X msg 395 157 0;
#X floatatom 383 240 5 0 0 0 - - -, f 5;
#X obj 450 243 delay 0;
#X obj 450 221 select 15;
#X msg 383 273 \; sq1 /rindex \$1;
#X obj 129 479 select 0 5 10;
#X msg 756 161 1 0.5 0.5 1;
#X msg 756 183 0 0 0.5 0.5;
#X msg 864 183 0 0 1 1;
#X msg 864 206 0.5 1 1 0;
#X msg 969 179 1 1 1 0.5;
#X msg 1087 182 0.5 0 0 0;
#X obj 384 126 metro 100;
#X msg 756 205 1 0 0.2 1;
#X msg 864 161 0 0 0.2 1;
#X obj 258 488 bng 15 250 50 0 empty empty empty 17 7 0 10 -262144
-1 -1;
#X msg 969 201 0 1 0.2 1;
#X msg 1087 159 1 1 1 0.2;
#X msg 969 157 0 0 0 0.2;
#X msg 1087 205 0.5 1 1 0.2;
#X obj 749 549 t b b b b;
#X floatatom 435 94 5 0 0 0 - - -, f 5;
#X msg 1025 597 \; sq1 /name \; sq1 /size 16;
#X text 383 70 turn on to try;
#X msg 756 139 0 0 0 0;
#X msg 969 135 0 0 0 0;
#X msg 1087 136 0 0 0 0;
#X msg 864 137 0 0 0 0;
#X obj 730 477 prepend 0;
#X obj 1010 293 cnv 15 380 80 empty empty empty 20 12 0 14 -262130
-66577 0;
#X obj 749 522 loadbang;
#X obj 383 195 6_cup 1 1;
#X obj 128 33 6_seqarray sq1;
#X obj 341 348 sprintf %i-order;
#X obj 341 369 6_setmessage;
#X msg 341 390 1082-order;
#X obj 129 561 6_sampleplay~ te1;
#X obj 239 561 6_sampleplay~ te2;
#X obj 350 560 6_sampleplay~ te3;
#X obj 731 522 bng 15 250 50 0 empty empty empty 17 7 0 10 -262144
-1 -1;
#X obj 129 830 6_ezdac~;
#X text 1022 297 [6_seqarray];
#X msg 732 719 \; te3 /read ./sounds/alesisAR16/STIK.wav \; te3 /speed
2 \;;
#X msg 732 596 \; te1 /read ./sounds/alesisAR16/METBELL.wav \; te1
/speed 1.4 \;;
#X msg 732 658 \; te2 /read ./sounds/alesisAR16/METBELL2.wav \; te2
/speed 1.4 \;;
#X text 1024 312 Array-based sequencer. The instantiation argument
is the address for sending parameter messages.;
#X connect 1 0 0 1;
#X connect 2 0 4 1;
#X connect 3 0 4 0;
#X connect 4 0 7 0;
#X connect 5 0 6 0;
#X connect 6 0 44 0;
#X connect 7 0 6 0;
#X connect 7 1 5 0;
#X connect 8 0 10 0;
#X connect 9 0 21 0;
#X connect 10 0 11 0;
#X connect 11 0 9 0;
#X connect 12 0 52 0;
#X connect 13 0 53 0;
#X connect 14 0 54 0;
#X connect 15 0 28 0;
#X connect 16 0 47 1;
#X connect 17 0 20 0;
#X connect 18 0 16 0;
#X connect 19 0 18 0;
#X connect 21 0 12 0;
#X connect 21 1 13 0;
#X connect 21 2 14 0;
#X connect 21 3 31 0;
#X connect 22 0 3 0;
#X connect 23 0 3 0;
#X connect 24 0 3 1;
#X connect 25 0 3 1;
#X connect 26 0 2 0;
#X connect 27 0 2 1;
#X connect 28 0 47 0;
#X connect 29 0 3 0;
#X connect 30 0 3 1;
#X connect 32 0 2 0;
#X connect 33 0 2 1;
#X connect 34 0 2 0;
#X connect 35 0 2 1;
#X connect 36 0 59 0;
#X connect 36 1 60 0;
#X connect 36 2 58 0;
#X connect 36 3 38 0;
#X connect 37 0 28 1;
#X connect 40 0 3 0;
#X connect 41 0 2 0;
#X connect 42 0 2 1;
#X connect 43 0 3 1;
#X connect 44 0 0 0;
#X connect 46 0 36 0;
#X connect 47 0 17 0;
#X connect 47 0 19 0;
#X connect 48 0 8 0;
#X connect 48 1 49 0;
#X connect 49 0 50 0;
#X connect 49 0 1 0;
#X connect 50 0 51 0;
#X connect 52 0 56 0;
#X connect 52 0 56 1;
#X connect 53 0 56 0;
#X connect 53 0 56 1;
#X connect 54 0 56 0;
#X connect 54 0 56 1;
#X connect 55 0 36 0;
