#N canvas 177 95 1361 1005 10;
#X text 41 46 requires flatgui library;
#X obj 1028 26 select return;
#X msg 322 86 clear;
#X symbolatom 1000 232 10 0 0 1 last_key_typed - -, f 10;
#X text 1032 47 ^-- hit return to output;
#X obj 322 63 t b b;
#X obj 306 394 scrolllist 13 500 200 {Helvetica 14 normal} black green
yellow;
#X obj 63 263 zexy/list2symbol;
#X obj 306 339 entry 500 50 grey black;
#X msg 353 246 fontsize 36;
#X obj 306 666 outlet;
#X msg 871 382 clear;
#X obj 759 315 bng 15 250 50 0 empty empty clear 17 7 0 10 -262144
-1 -1;
#X obj 610 233 symbol;
#X msg 587 196 normal;
#X msg 643 189 disabled;
#X msg 609 256 option state \$1;
#X text 663 235 disable editing;
#X obj 360 160 loadbang;
#X msg 59 291 add \$1;
#X obj 737 100 inlet \$1;
#X obj 692 315 tgl 15 0 empty empty disable 17 7 0 10 -262144 -1 -1
0 1;
#X obj 577 156 select 1;
#X obj 730 138 route /disable /clear;
#X obj 393 196 t b b b;
#X obj 200 513 list trim;
#X obj 138 538 symbol;
#X connect 1 0 5 0;
#X connect 2 0 8 0;
#X connect 3 0 1 0;
#X connect 5 0 2 0;
#X connect 5 1 8 0;
#X connect 6 0 10 0;
#X connect 7 0 19 0;
#X connect 8 0 7 0;
#X connect 8 0 25 0;
#X connect 8 0 26 0;
#X connect 8 1 3 0;
#X connect 9 0 8 0;
#X connect 11 0 6 0;
#X connect 12 0 11 0;
#X connect 13 0 16 0;
#X connect 14 0 13 0;
#X connect 15 0 13 0;
#X connect 16 0 8 0;
#X connect 18 0 24 0;
#X connect 19 0 6 0;
#X connect 20 0 23 0;
#X connect 21 0 22 0;
#X connect 22 0 15 0;
#X connect 22 1 14 0;
#X connect 23 0 21 0;
#X connect 23 1 12 0;
#X connect 24 0 9 0;
#X connect 26 0 10 0;
#X coords 0 -1 1 1 510 300 1 300 300;
