#N canvas 115 23 1638 1005 10;
#X obj 303 10 tgl 15 0 empty empty empty 17 7 0 10 -262144 -1 -1 0
1;
#X msg 303 29 /disable \$1;
#X msg 410 34 /clear;
#X obj 700 540 coll;
#C restore;
#X msg 786 514 clear;
#X obj 699 684 bng 15 250 50 0 empty empty empty 17 7 0 10 -262144
-1 -1;
#X obj 716 684 bng 15 250 50 0 empty empty empty 17 7 0 10 -262144
-1 -1;
#X obj 734 684 bng 15 250 50 0 empty empty empty 17 7 0 10 -262144
-1 -1;
#X obj 751 684 bng 15 250 50 0 empty empty empty 17 7 0 10 -262144
-1 -1;
#X obj 769 684 bng 15 250 50 0 empty empty empty 17 7 0 10 -262144
-1 -1;
#X obj 786 684 bng 15 250 50 0 empty empty empty 17 7 0 10 -262144
-1 -1;
#X obj 804 684 bng 15 250 50 0 empty empty empty 17 7 0 10 -262144
-1 -1;
#X obj 865 810 6_ezdac~;
#X obj 699 655 select x o * - ^ #;
#X obj 700 617 unpack s f;
#X floatatom 670 243 10 0 0 0 - - -, f 10;
#X obj 670 216 expr 60000 / $f1;
#X floatatom 670 133 8 0 0 1 bpm - -, f 8;
#X obj 643 277 metro;
#X obj 643 184 tgl 15 0 empty empty empty 17 7 0 10 -262144 -1 -1 1
1;
#X msg 924 378 \; ol5 /read ./sounds/bossdr550mk2/HiHatOp1.wav;
#X obj 643 741 6_sampleplay~ ol1;
#X obj 754 741 6_sampleplay~ ol2;
#X obj 865 741 6_sampleplay~ ol3;
#X obj 976 741 6_sampleplay~ ol4;
#X obj 1087 741 6_sampleplay~ ol5;
#X obj 1198 741 6_sampleplay~ ol6;
#X msg 924 416 \; ol6 /read ./sounds/bossdr550mk2/Cowbell1.wav;
#X msg 924 234 \; ol1 /read ./sounds/bossdr550mk2/BassLo.wav;
#X msg 924 306 \; ol3 /read ./sounds/bossdr550mk2/Cymbol5.wav;
#X msg 924 342 \; ol4 /read ./sounds/bossdr550mk2/RimShot1.wav;
#X msg 924 270 \; ol2 /read ./sounds/bossdr550mk2/Tom8.wav;
#X msg 1221 234 \; ol1 /speed 0.7;
#X msg 1221 270 \; ol2 /speed 0.4;
#X msg 1221 342 \; ol4 /speed 0.7;
#X msg 1221 416 \; ol6 /speed 2;
#X msg 1221 378 \; ol5 /speed 1.5;
#X floatatom 685 158 5 0 0 0 - - -, f 5;
#X obj 670 182 * 2;
#X msg 1221 306 \; ol3 /speed 0.3;
#X msg 1326 234 \; ol1 /speed 0.4;
#X msg 1326 270 \; ol2 /speed 0.6;
#X msg 1326 306 \; ol3 /speed 0.2;
#X msg 1326 342 \; ol4 /speed 0.8;
#X msg 1326 378 \; ol5 /speed 0.6;
#X msg 1326 416 \; ol6 /speed 0.5;
#X obj 1088 120 loadbang;
#X obj 1088 146 t b b b b b b b b b b b b b, f 41;
#X msg 670 107 170;
#X obj 999 150 bng 15 250 50 0 empty empty empty 17 7 0 10 -262144
-1 -1;
#X obj 700 518 6_index;
#X obj 13 392 6_addspaces;
#X obj 700 497 prepend list;
#X obj 700 475 fromsymbol;
#X obj 13 414 unpack s f;
#X obj 700 585 tosymbol;
#X obj 13 84 6_txt;
#X text 765 592 converts wrong types just in case not all symbols;
#X text 587 41 requires flatgui library and more;
#X obj 456 468 6_counter;
#X msg 70 451 /loopPoint \$1;
#X connect 0 0 1 0;
#X connect 1 0 56 0;
#X connect 2 0 56 0;
#X connect 3 0 55 0;
#X connect 4 0 3 0;
#X connect 5 0 21 0;
#X connect 6 0 22 0;
#X connect 7 0 23 0;
#X connect 8 0 24 0;
#X connect 9 0 25 0;
#X connect 10 0 26 0;
#X connect 13 0 5 0;
#X connect 13 1 6 0;
#X connect 13 2 7 0;
#X connect 13 3 8 0;
#X connect 13 4 9 0;
#X connect 13 5 10 0;
#X connect 13 6 11 0;
#X connect 14 0 13 0;
#X connect 15 0 18 1;
#X connect 16 0 15 0;
#X connect 17 0 38 0;
#X connect 18 0 59 0;
#X connect 19 0 18 0;
#X connect 21 0 12 0;
#X connect 21 0 12 1;
#X connect 22 0 12 0;
#X connect 22 0 12 1;
#X connect 23 0 12 0;
#X connect 23 0 12 1;
#X connect 24 0 12 0;
#X connect 24 0 12 1;
#X connect 25 0 12 0;
#X connect 25 0 12 1;
#X connect 26 0 12 0;
#X connect 26 0 12 1;
#X connect 37 0 38 1;
#X connect 38 0 16 0;
#X connect 46 0 47 0;
#X connect 47 0 28 0;
#X connect 47 1 31 0;
#X connect 47 2 29 0;
#X connect 47 3 30 0;
#X connect 47 4 20 0;
#X connect 47 5 27 0;
#X connect 47 6 40 0;
#X connect 47 7 41 0;
#X connect 47 8 42 0;
#X connect 47 9 43 0;
#X connect 47 10 44 0;
#X connect 47 11 45 0;
#X connect 47 12 48 0;
#X connect 48 0 17 0;
#X connect 49 0 47 0;
#X connect 50 0 3 0;
#X connect 51 0 54 0;
#X connect 52 0 50 0;
#X connect 53 0 52 0;
#X connect 54 0 53 0;
#X connect 54 1 60 0;
#X connect 55 0 14 0;
#X connect 56 0 51 0;
#X connect 59 0 3 0;
#X connect 60 0 59 1;
