#N canvas 99 23 1111 975 10;
#X obj 627 217 loadbang;
#X msg 674 315 \; v1 /ramp 300 \; v1 /vol 0.5;
#X obj 516 68 cnv 15 380 80 empty empty empty 20 12 0 14 -262130 -66577
0;
#X obj 627 249 t b b b b b;
#X obj 120 705 6_ezdac~;
#X msg 200 41 /midi \$1;
#X floatatom 200 18 5 0 0 0 - - -, f 5;
#X obj 77 41 sig~;
#X floatatom 77 18 5 0 0 0 - - -, f 5;
#X obj 294 41 sig~;
#X floatatom 294 18 5 0 0 0 - - -, f 5;
#X obj 77 74 6_osc~ w1;
#X floatatom 417 25 5 0 0 0 - - -, f 5;
#X msg 417 48 /range \$1;
#X text 528 72 [6_vcf~];
#X obj 118 380 6_vcf~ f1;
#X obj 464 556 6_mix~ m1;
#X obj 294 74 6_lfo~ l1;
#X floatatom 502 379 5 0 0 0 - - -, f 5;
#X floatatom 496 430 5 0 0 0 - - -, f 5;
#X obj 463 401 *~ 5000;
#X obj 463 453 +~ 100;
#X obj 635 557 6_adsr~ a2;
#X obj 464 897 *~;
#X obj 635 499 metro 1000;
#X obj 635 460 tgl 15 0 empty empty empty 17 7 0 10 -262144 -1 -1 0
1;
#X floatatom 692 476 5 0 0 0 - - -, f 5;
#X obj 774 558 6_adsr~ a1;
#X connect 0 0 3 0;
#X connect 3 3 1 0;
#X connect 5 0 11 2;
#X connect 6 0 5 0;
#X connect 7 0 11 0;
#X connect 8 0 7 0;
#X connect 9 0 17 0;
#X connect 10 0 9 0;
#X connect 11 1 15 0;
#X connect 12 0 13 0;
#X connect 13 0 17 1;
#X connect 15 0 16 0;
#X connect 15 1 16 1;
#X connect 16 0 23 0;
#X connect 17 0 11 1;
#X connect 18 0 20 1;
#X connect 19 0 21 1;
#X connect 20 0 21 0;
#X connect 21 0 15 1;
#X connect 22 0 23 1;
#X connect 23 0 4 0;
#X connect 23 0 4 1;
#X connect 24 0 22 0;
#X connect 24 0 27 0;
#X connect 25 0 24 0;
#X connect 26 0 24 1;
#X connect 27 0 20 0;
