#N canvas 233 156 1383 803 10;
#X obj 347 730 outlet~;
#X obj 379 5 inlet;
#X obj 7 474 loadbang;
#X obj 7 506 f \$0;
#X floatatom 7 531 5 0 0 0 - - -, f 5;
#X obj 311 5 receive \$1;
#X obj 140 218 vsl 20 160 0 1 0 0 empty empty Q 0 -9 0 10 -262144 -1
-1 6100 1;
#X text 691 656 s3g_2016;
#X msg 56 508 0;
#X obj 39 0 inlet~;
#X obj 111 144 vsl 20 235 0 1 0 0 empty empty ctr 0 -9 0 10 -262144
-1 -1 3600 1;
#X obj 380 239 sig~;
#X text 487 136 center frequency;
#X floatatom 380 219 5 0 0 0 - - -, f 5;
#X obj 362 433 vcf~ 1;
#X obj 399 731 outlet~;
#X obj 100 2 inlet~;
#X text 108 112 >in;
#X text 105 385 bnd > low >;
#X text 520 257 q;
#X floatatom 499 276 5 0 0 0 - - -, f 5;
#N canvas 0 22 898 618 signalSwitch 0;
#X obj 414 244 *~;
#X obj 429 215 line~;
#X msg 429 193 \$1 40;
#X obj 429 170 tgl 15 0 empty empty empty 17 7 0 10 -262144 -1 -1 0
1;
#X obj 269 78 inlet~;
#X obj 394 80 inlet~;
#X obj 280 240 *~;
#X obj 295 211 line~;
#X msg 295 189 \$1 40;
#X obj 295 166 tgl 15 0 empty empty empty 17 7 0 10 -262144 -1 -1 1
1;
#X obj 490 80 inlet;
#X floatatom 360 150 5 0 0 0 - - -, f 5;
#X obj 372 227 - 1;
#X obj 360 171 t b f;
#X obj 359 199 f 1;
#X obj 325 407 outlet~;
#X connect 0 0 15 0;
#X connect 1 0 0 1;
#X connect 2 0 1 0;
#X connect 3 0 2 0;
#X connect 4 0 6 0;
#X connect 5 0 0 0;
#X connect 6 0 15 0;
#X connect 7 0 6 1;
#X connect 8 0 7 0;
#X connect 9 0 8 0;
#X connect 10 0 11 0;
#X connect 11 0 13 0;
#X connect 11 0 9 0;
#X connect 12 0 3 0;
#X connect 13 0 14 0;
#X connect 13 1 12 1;
#X connect 14 0 12 0;
#X restore 337 346 pd signalSwitch;
#X obj 140 155 tgl 20 0 empty empty >freq -4 -9 0 10 -262144 -1 -1
1 1;
#X obj 380 180 * 5000;
#X obj 311 51 route /cnt /q;
#X obj 484 366 line;
#X msg 509 336 \$1 40;
#X obj 485 225 * 40;
#X connect 1 0 24 0;
#X connect 2 0 3 0;
#X connect 2 0 8 0;
#X connect 3 0 4 0;
#X connect 5 0 24 0;
#X connect 6 0 27 0;
#X connect 8 0 22 0;
#X connect 9 0 14 0;
#X connect 10 0 23 0;
#X connect 11 0 21 1;
#X connect 13 0 11 0;
#X connect 14 0 0 0;
#X connect 14 1 15 0;
#X connect 16 0 21 0;
#X connect 20 0 26 0;
#X connect 21 0 14 1;
#X connect 22 0 21 2;
#X connect 23 0 13 0;
#X connect 24 0 10 0;
#X connect 24 1 6 0;
#X connect 25 0 14 2;
#X connect 26 0 25 0;
#X connect 27 0 20 0;
#X coords 0 -1 1 1 80 300 1 100 100;
