#N canvas 305 27 929 839 10;
#X obj 516 68 cnv 15 380 80 empty empty empty 20 12 0 14 -262130 -66577
0;
#X obj 77 708 6_ezdac~;
#X msg 200 41 /midi \$1;
#X floatatom 200 18 5 0 0 0 - - -, f 5;
#X obj 77 41 sig~;
#X floatatom 77 18 5 0 0 0 - - -, f 5;
#X obj 77 74 6_osc~ w1;
#X text 530 87 .;
#X obj 298 72 6_adsr~ a1;
#X obj 107 504 *~;
#X text 528 72 [6_adsr~];
#X obj 515 286 tgl 15 0 empty empty empty 17 7 0 10 -262144 -1 -1 0
1;
#X obj 515 311 metro 500;
#X obj 515 348 tgl 15 0 empty empty empty 17 7 0 10 -262144 -1 -1 0
1;
#X floatatom 566 287 5 0 0 0 - - -, f 5;
#X connect 2 0 6 2;
#X connect 3 0 2 0;
#X connect 4 0 6 0;
#X connect 5 0 4 0;
#X connect 6 1 9 0;
#X connect 8 0 9 1;
#X connect 9 0 1 0;
#X connect 9 0 1 1;
#X connect 11 0 12 0;
#X connect 12 0 13 0;
#X connect 13 0 8 0;
#X connect 14 0 12 1;
