#N canvas 124 23 1538 976 10;
#X obj 250 142 hsl 128 15 0.1 10000 1 0 empty empty osc_A_rate -2 -8
0 10 -262144 -1 -1 6700 1;
#X obj 388 250 hsl 128 15 0.1 30 1 0 empty empty filter_res 0 -8 0
10 -262144 -1 -1 5400 0;
#X obj 250 214 hsl 128 15 1 16000 1 0 empty empty filter_freq -2 -8
0 10 -262144 -1 -1 7000 1;
#X obj 388 178 hsl 128 15 0.01 1 0 0 empty empty rungler_B -2 -8 0
10 -262144 -1 -1 7800 1;
#X obj 388 142 hsl 128 15 0 1 0 0 empty empty rungler_A -2 -8 0 10
-262144 -1 -1 10800 1;
#X obj 388 214 hsl 128 15 0 1 0 0 empty empty rungler_F -2 -8 0 10
-262144 -1 -1 11000 1;
#X obj 810 910 *~;
#X obj 389 283 hsl 128 15 0 1 0 0 empty empty vol -2 -8 0 10 -262144
-1 -1 7700 1;
#X obj 250 178 hsl 128 15 0.1 10000 1 0 empty empty osc_B_rate -2 -8
0 10 -262144 -1 -1 4500 1;
#X obj 1037 629 *~;
#X obj 905 320 *~;
#X obj 250 248 hsl 128 15 0 1 0 0 empty empty filter_sweep -2 -8 0
10 -262144 -1 -1 7000 1;
#X obj 991 683 lop~ 100;
#X obj 766 191 r~ \$0-rungler;
#X obj 1155 501 r~ \$0-rungler;
#X obj 701 943 s~ \$0-rungler;
#X obj 906 511 >~ 0;
#X obj 764 511 >~ 0;
#X obj 906 533 -~ 0.5;
#X obj 810 763 *~ 0.8;
#X obj 810 819 *~ 0.5;
#X obj 749 670 expr~ ($v1 * 1) - 0.5;
#X obj 810 842 clip~ -0.9 0.9;
#X obj 1155 555 expr~ 1 + ($v1 * $v2);
#X obj 750 730 *~ 0.4;
#X obj 991 616 +~ 0.5;
#X obj 905 254 expr~ 1 + ($v1 * $v2);
#X obj 1155 586 -~ 0;
#X obj 991 555 expr~ 1 + ($v1 * $v2);
#X obj 991 655 *~;
#X obj 810 437 <~;
#X obj 766 255 expr~ 1 + ($v1 * $v2);
#X obj 749 698 lop~ 5;
#X obj 1037 585 lop~ 1;
#X obj 764 555 6_sig2float;
#X obj 906 555 6_sig2bang;
#X obj 863 601 6_xor, f 6;
#X obj 749 603 6_shiftregister;
#X obj 765 407 6_triangle~;
#X obj 904 407 6_triangle~;
#X obj 112 142 hsl 128 15 0 1 0 0 empty empty mod_A -2 -8 0 10 -262144
-1 -1 4300 1;
#X obj 112 178 hsl 128 15 0 1 0 0 empty empty mod_B -2 -8 0 10 -262144
-1 -1 10400 1;
#X obj 112 214 hsl 128 15 0 1 0 0 empty empty mod_filter_freq -2 -8
0 10 -262144 -1 -1 4900 1;
#X obj 810 944 outlet~;
#X obj 825 887 line~;
#X msg 825 865 \$1 20;
#N canvas 107 387 333 312 filter 0;
#X obj 35 266 outlet~;
#X obj 35 6 inlet~;
#X obj 35 150 vcf~;
#X obj 35 73 vcf~;
#X obj 103 6 inlet~;
#X obj 172 6 inlet;
#X obj 35 209 *~ 1;
#X obj 35 236 *~;
#X obj 172 150 expr 1 + ($f1 / 5);
#X obj 172 200 line~;
#X msg 172 178 \$1 20;
#X connect 1 0 3 0;
#X connect 2 0 6 0;
#X connect 2 1 6 0;
#X connect 3 0 2 0;
#X connect 3 1 2 0;
#X connect 4 0 3 1;
#X connect 4 0 2 1;
#X connect 5 0 3 2;
#X connect 5 0 2 2;
#X connect 5 0 8 0;
#X connect 6 0 7 0;
#X connect 7 0 0 0;
#X connect 8 0 10 0;
#X connect 9 0 7 1;
#X connect 10 0 9 0;
#X restore 810 796 pd filter;
#X text 120 490 reference: Trevor Wilson;
#X text 120 512 https://github.com/wilsontr;
#X obj 1273 945 outlet~;
#X text 808 966 main out;
#X text 1275 968 rungler out;
#X obj 892 941 outlet~;
#X obj 970 941 outlet~;
#X text 884 964 tri A out;
#X text 966 964 tri B out;
#X obj 1352 943 outlet~;
#X text 1350 969 xor out;
#X obj 1352 904 sig~;
#X obj 892 36 inlet~;
#X obj 756 294 sig~;
#X obj 927 88 line~;
#X msg 927 64 \$1 20;
#X obj 1033 33 inlet~;
#X obj 920 294 sig~;
#X obj 1068 85 line~;
#X msg 1068 61 \$1 20;
#X obj 1175 34 inlet~;
#X obj 1037 498 sig~;
#X obj 1210 86 line~;
#X msg 1210 62 \$1 20;
#X obj 247 280 tgl 30 0 empty empty loop 0 -8 0 10 -262144 -1 -1 0
1;
#X obj 354 454 loadbang;
#X msg 354 485 0;
#N canvas 238 27 946 709 loop_values 0;
#X obj 416 253 bng 15 250 50 0 empty empty empty 17 7 0 10 -262144
-1 -1;
#X obj 181 217 inlet;
#X floatatom 209 590 5 0 0 0 - - -, f 5;
#X obj 415 190 inlet;
#X obj 209 637 outlet;
#X obj 181 266 spigot;
#X obj 582 185 tgl 15 0 empty empty empty 17 7 0 10 -262144 -1 -1 1
1;
#X obj 152 337 f 1;
#X obj 190 336 + 1;
#X obj 152 489 f;
#X obj 185 489 f;
#X obj 215 489 f;
#X obj 248 489 f;
#X obj 152 413 pack f f;
#X obj 181 304 t b f;
#X obj 399 366 f 1;
#X obj 437 365 + 1;
#X obj 521 325 - 1;
#X obj 489 227 t b f;
#X obj 479 279 f 1;
#X obj 399 333 spigot;
#X obj 432 301 tgl 15 0 empty empty empty 17 7 0 10 -262144 -1 -1 0
1;
#X obj 399 429 select 0 1 2 3 4 5 6 7;
#X obj 152 439 route 0 1 2 3 4 5 6 7;
#X obj 152 366 mod 8;
#X obj 281 489 f;
#X obj 314 489 f;
#X obj 344 489 f;
#X obj 377 489 f;
#X obj 399 395 mod 8;
#X msg 642 285 -1;
#X msg 677 284 1;
#X obj 651 186 inlet;
#X obj 651 221 sel 1;
#X text 703 190 up or down;
#X obj 550 28 inlet;
#X text 624 159 sample or loop;
#X obj 582 152 - 1;
#X obj 550 54 t b f;
#X obj 540 106 f 1;
#X connect 0 0 20 0;
#X connect 1 0 5 0;
#X connect 2 0 4 0;
#X connect 3 0 0 0;
#X connect 5 0 14 0;
#X connect 6 0 5 1;
#X connect 6 0 18 0;
#X connect 7 0 8 0;
#X connect 7 0 24 0;
#X connect 8 0 7 1;
#X connect 9 0 2 0;
#X connect 10 0 2 0;
#X connect 11 0 2 0;
#X connect 12 0 2 0;
#X connect 13 0 23 0;
#X connect 14 0 7 0;
#X connect 14 1 13 1;
#X connect 15 0 16 0;
#X connect 15 0 29 0;
#X connect 16 0 15 1;
#X connect 17 0 21 0;
#X connect 18 0 19 0;
#X connect 18 1 17 1;
#X connect 19 0 17 0;
#X connect 20 0 15 0;
#X connect 21 0 20 1;
#X connect 22 0 9 0;
#X connect 22 1 10 0;
#X connect 22 2 11 0;
#X connect 22 3 12 0;
#X connect 22 4 25 0;
#X connect 22 5 26 0;
#X connect 22 6 27 0;
#X connect 22 7 28 0;
#X connect 23 0 9 0;
#X connect 23 1 10 0;
#X connect 23 2 11 0;
#X connect 23 3 12 0;
#X connect 23 4 25 0;
#X connect 23 5 26 0;
#X connect 23 6 27 0;
#X connect 23 7 28 0;
#X connect 24 0 13 0;
#X connect 25 0 2 0;
#X connect 26 0 2 0;
#X connect 27 0 2 0;
#X connect 28 0 2 0;
#X connect 29 0 22 0;
#X connect 30 0 16 1;
#X connect 31 0 16 1;
#X connect 32 0 33 0;
#X connect 33 0 30 0;
#X connect 33 1 31 0;
#X connect 35 0 38 0;
#X connect 37 0 6 0;
#X connect 38 0 39 0;
#X connect 38 1 37 1;
#X connect 39 0 37 0;
#X restore 749 644 pd loop_values;
#X obj 283 280 tgl 30 0 empty empty up/down 0 -8 0 10 -262144 -1 -1
0 1;
#X obj 478 621 tgl 15 0 empty empty empty 17 7 0 10 -262144 -1 -1 0
1;
#X obj 478 692 - 1;
#X obj 478 643 t b f;
#X obj 478 668 f 1;
#X obj 478 714 tgl 15 0 empty empty empty 17 7 0 10 -262144 -1 -1 1
1;
#X obj 558 676 spigot;
#X obj 557 756 spigot;
#X obj 1061 939 outlet~;
#X obj 1139 939 outlet~;
#X text 1062 967 pulse A out;
#X text 1144 967 pulse B out;
#X obj 892 119 *~;
#X obj 1033 116 *~;
#X obj 1175 117 *~;
#X obj 905 350 +~;
#X obj 741 350 +~;
#X obj 991 745 +~;
#X obj 111 248 hsl 128 15 0 1 0 0 empty empty mod_filter_scale -2 -8
0 10 -262144 -1 -1 4800 1;
#X obj 140 398 + 0.5;
#X obj 1115 674 *~;
#X obj 140 376 * 16000;
#X obj 741 320 *~;
#X obj 768 320 *~;
#X obj 932 320 *~;
#X connect 0 0 60 0;
#X connect 1 0 46 2;
#X connect 2 0 68 0;
#X connect 3 0 26 1;
#X connect 4 0 31 1;
#X connect 5 0 23 1;
#X connect 6 0 43 0;
#X connect 7 0 45 0;
#X connect 8 0 64 0;
#X connect 9 0 29 1;
#X connect 10 0 90 0;
#X connect 11 0 28 1;
#X connect 12 0 92 0;
#X connect 13 0 26 0;
#X connect 13 0 31 0;
#X connect 14 0 23 0;
#X connect 16 0 18 0;
#X connect 16 0 84 0;
#X connect 17 0 34 0;
#X connect 17 0 83 0;
#X connect 18 0 35 0;
#X connect 19 0 46 0;
#X connect 20 0 22 0;
#X connect 21 0 32 0;
#X connect 22 0 6 0;
#X connect 23 0 27 0;
#X connect 24 0 19 0;
#X connect 25 0 29 0;
#X connect 26 0 10 0;
#X connect 27 0 9 1;
#X connect 28 0 25 0;
#X connect 29 0 12 0;
#X connect 30 0 19 0;
#X connect 31 0 97 0;
#X connect 32 0 15 0;
#X connect 32 0 24 0;
#X connect 32 0 49 0;
#X connect 33 0 9 0;
#X connect 34 0 36 0;
#X connect 35 0 37 0;
#X connect 35 0 74 1;
#X connect 36 0 37 1;
#X connect 36 0 58 0;
#X connect 37 0 82 0;
#X connect 37 0 74 0;
#X connect 37 1 36 1;
#X connect 38 0 17 0;
#X connect 38 0 30 0;
#X connect 38 0 52 0;
#X connect 39 0 16 0;
#X connect 39 0 28 0;
#X connect 39 0 30 1;
#X connect 39 0 53 0;
#X connect 40 0 62 0;
#X connect 41 0 66 0;
#X connect 42 0 70 0;
#X connect 44 0 6 1;
#X connect 45 0 44 0;
#X connect 46 0 20 0;
#X connect 58 0 56 0;
#X connect 59 0 87 0;
#X connect 60 0 97 1;
#X connect 60 0 98 0;
#X connect 61 0 87 1;
#X connect 62 0 61 0;
#X connect 63 0 88 0;
#X connect 64 0 10 1;
#X connect 64 0 99 0;
#X connect 65 0 88 1;
#X connect 66 0 65 0;
#X connect 67 0 89 0;
#X connect 68 0 33 0;
#X connect 69 0 89 1;
#X connect 70 0 69 0;
#X connect 71 0 74 2;
#X connect 71 0 76 0;
#X connect 72 0 73 0;
#X connect 73 0 71 0;
#X connect 73 0 75 0;
#X connect 74 0 81 0;
#X connect 75 0 74 3;
#X connect 76 0 78 0;
#X connect 76 0 81 1;
#X connect 77 0 80 0;
#X connect 78 0 79 0;
#X connect 78 1 77 1;
#X connect 79 0 77 0;
#X connect 80 0 82 1;
#X connect 81 0 21 0;
#X connect 82 0 21 0;
#X connect 87 0 98 1;
#X connect 88 0 99 1;
#X connect 89 0 95 0;
#X connect 90 0 39 0;
#X connect 91 0 38 0;
#X connect 92 0 46 1;
#X connect 93 0 96 0;
#X connect 94 0 95 1;
#X connect 95 0 92 1;
#X connect 96 0 94 0;
#X connect 97 0 91 0;
#X connect 98 0 91 1;
#X connect 99 0 90 1;
#X coords 0 -1 1 1 430 220 1 100 100;
