#N canvas 254 23 1229 792 10;
#N canvas 544 23 1047 699 rungler 0;
#X obj 78 192 snapshot~;
#X obj 94 99 t b b;
#X obj 302 356 f;
#X floatatom 302 388 5 0 0 0 - - -, f 5;
#X obj 270 191 > 0;
#X obj 270 216 select 1;
#X obj 368 351 delay 7;
#X obj 668 351 delay 1;
#X obj 618 351 delay 2;
#X obj 568 351 delay 3;
#X obj 518 351 delay 4;
#X obj 468 351 delay 5;
#X obj 418 351 delay 6;
#X obj 368 319 t b b b b b b b b, f 59;
#X obj 270 261 t b b;
#X obj 368 396 f;
#X obj 78 218 change;
#X obj 76 471 expr ($f1 > 0 && $f2 <= 0) || ($f1 <= 0 && $f2 > 0);
#X text 391 471 XOR;
#X obj 569 571 / 8;
#N canvas 0 22 1110 536 bytepack 0;
#X obj 279 112 t b b l, f 29;
#X obj 279 264 list split 1, f 29;
#X obj 279 312 list trim;
#X msg 342 62 1 0 1 0 1 0 1;
#X obj 342 35 bng 15 250 50 0 empty empty empty 17 7 0 10 -262144 -1
-1;
#X obj 153 317 bng 15 250 50 0 empty empty empty 17 7 0 10 -262144
-1 -1;
#X obj 279 153 until, f 12;
#X obj 279 194 list append, f 29;
#X obj 279 378 expr ($f2 << 1) + $f1, f 29;
#X floatatom 450 353 5 0 0 0 - - -, f 5;
#X msg 450 327 0;
#X obj 279 38 inlet;
#X obj 264 449 outlet;
#X obj 264 409 i;
#X text 657 228 Packs a list of binary integers (0 or 1) into a byte
(0-256).;
#X text 657 185 reference: Trevor Wilson;
#X text 657 203 https://github.com/wilsontr;
#X obj 510 451 outlet;
#X connect 0 0 6 0;
#X connect 0 1 10 0;
#X connect 0 2 7 1;
#X connect 1 0 2 0;
#X connect 1 1 7 1;
#X connect 1 2 5 0;
#X connect 2 0 8 0;
#X connect 3 0 0 0;
#X connect 4 0 3 0;
#X connect 5 0 6 1;
#X connect 5 0 13 0;
#X connect 6 0 7 0;
#X connect 7 0 1 0;
#X connect 8 0 9 0;
#X connect 8 0 13 1;
#X connect 9 0 8 1;
#X connect 9 0 17 0;
#X connect 10 0 9 0;
#X connect 11 0 0 0;
#X connect 13 0 12 0;
#X restore 569 543 pd bytepack;
#X obj 569 506 pack f f f;
#X floatatom 569 599 5 0 0 0 - - -, f 5;
#X obj 542 505 t b;
#X obj 368 417 > 0;
#X floatatom 368 440 5 0 0 0 - - -, f 5;
#X obj 419 395 f;
#X obj 419 416 > 0;
#X floatatom 419 439 5 0 0 0 - - -, f 5;
#X obj 468 395 f;
#X obj 468 416 > 0;
#X floatatom 468 439 5 0 0 0 - - -, f 5;
#X obj 519 394 f;
#X obj 519 415 > 0;
#X floatatom 519 438 5 0 0 0 - - -, f 5;
#X obj 568 393 f;
#X obj 568 414 > 0;
#X floatatom 568 437 5 0 0 0 - - -, f 5;
#X obj 619 392 f;
#X obj 619 413 > 0;
#X floatatom 619 436 5 0 0 0 - - -, f 5;
#X obj 668 392 f;
#X obj 668 413 > 0;
#X floatatom 668 436 5 0 0 0 - - -, f 5;
#X obj 719 391 f;
#X obj 719 412 > 0;
#X floatatom 719 435 5 0 0 0 - - -, f 5;
#X obj 569 625 sig~;
#X text 825 333 reference: Trevor Wilson;
#X text 825 351 https://github.com/wilsontr;
#X obj 79 14 inlet~;
#X obj 270 17 inlet~;
#X obj 270 166 snapshot~;
#X obj 94 72 bang~;
#X obj 569 665 outlet~;
#X obj 700 665 outlet~;
#X obj 700 625 sig~;
#X text 607 625 rungler out;
#X text 741 626 XOR out;
#X text 158 78 bang after each DSP cycle/block (for libpd this object
does not seem to be available so using a fast metro would be required
for snapshot~;
#X floatatom 700 599 14 0 0 0 - - -, f 14;
#X obj 78 251 < 0;
#X connect 0 0 16 0;
#X connect 1 0 52 0;
#X connect 1 1 0 0;
#X connect 2 0 3 0;
#X connect 3 0 15 1;
#X connect 4 0 5 0;
#X connect 5 0 14 0;
#X connect 6 0 15 0;
#X connect 7 0 41 0;
#X connect 8 0 38 0;
#X connect 9 0 35 0;
#X connect 10 0 32 0;
#X connect 11 0 29 0;
#X connect 12 0 26 0;
#X connect 13 0 6 0;
#X connect 13 1 12 0;
#X connect 13 2 11 0;
#X connect 13 3 10 0;
#X connect 13 4 9 0;
#X connect 13 5 8 0;
#X connect 13 6 7 0;
#X connect 13 7 44 0;
#X connect 14 0 2 0;
#X connect 14 1 13 0;
#X connect 15 0 24 0;
#X connect 16 0 61 0;
#X connect 17 0 60 0;
#X connect 17 0 2 1;
#X connect 19 0 22 0;
#X connect 20 0 19 0;
#X connect 21 0 20 0;
#X connect 22 0 47 0;
#X connect 23 0 20 0;
#X connect 24 0 25 0;
#X connect 25 0 26 1;
#X connect 26 0 27 0;
#X connect 27 0 28 0;
#X connect 28 0 29 1;
#X connect 29 0 30 0;
#X connect 30 0 31 0;
#X connect 31 0 32 1;
#X connect 32 0 33 0;
#X connect 33 0 34 0;
#X connect 34 0 35 1;
#X connect 35 0 36 0;
#X connect 36 0 37 0;
#X connect 37 0 38 1;
#X connect 38 0 39 0;
#X connect 39 0 40 0;
#X connect 40 0 41 1;
#X connect 40 0 21 0;
#X connect 41 0 42 0;
#X connect 42 0 43 0;
#X connect 43 0 44 1;
#X connect 43 0 21 1;
#X connect 44 0 45 0;
#X connect 45 0 46 0;
#X connect 46 0 21 2;
#X connect 46 0 23 0;
#X connect 46 0 17 1;
#X connect 47 0 54 0;
#X connect 50 0 0 0;
#X connect 51 0 52 0;
#X connect 52 0 4 0;
#X connect 53 0 1 0;
#X connect 56 0 55 0;
#X connect 60 0 56 0;
#X connect 61 0 17 0;
#X restore 1020 379 pd rungler;
#X floatatom 669 65 5 0 0 1 rate - -, f 5;
#X text 783 64 slope;
#X floatatom 957 43 5 0 0 0 - - -, f 5;
#X floatatom 669 210 5 0 0 1 rate - -, f 5;
#X obj 730 210 sig~ 0;
#X text 784 209 slope;
#X obj 717 411 +~;
#X obj 828 65 expr~ 1 + ($v1 * $v2), f 22;
#X floatatom 964 188 5 0 0 0 - - -, f 5;
#X obj 835 210 expr~ 1 + ($v1 * $v2), f 22;
#X obj 669 261 send~ \$0-triB;
#X obj 717 479 clip~ -0.9 0.9;
#X obj 717 434 -~ 1;
#X floatatom 1131 41 5 0 0 0 - - -, f 5;
#X obj 1008 63 expr~ 1 + ($v1 * $v2);
#X floatatom 1130 186 5 0 0 0 - - -, f 5;
#X obj 1008 208 expr~ 1 + ($v1 * $v2);
#X obj 717 457 *~ 0.9;
#X obj 741 65 sig~ 0;
#N canvas 796 110 450 300 comparator 0;
#X obj 119 28 inlet~;
#X obj 222 28 inlet~;
#X obj 201 72 max~;
#X obj 170 128 -~;
#X obj 167 188 /~;
#X obj 167 236 outlet~;
#X text 250 129 <;
#X connect 0 0 2 0;
#X connect 0 0 3 0;
#X connect 1 0 2 1;
#X connect 2 0 3 1;
#X connect 3 0 4 0;
#X connect 3 0 4 1;
#X connect 4 0 5 0;
#X restore 717 379 pd comparator;
#N canvas 796 110 450 300 pulseA 0;
#X obj 119 28 inlet~;
#X obj 170 128 -~;
#X obj 167 188 /~;
#X obj 167 236 outlet~;
#X obj 201 72 min~;
#X text 250 129 >;
#X obj 223 28 sig~ 0;
#X connect 0 0 1 0;
#X connect 0 0 4 0;
#X connect 1 0 2 0;
#X connect 1 0 2 1;
#X connect 2 0 3 0;
#X connect 4 0 1 1;
#X connect 6 0 4 1;
#X restore 754 121 pd pulseA;
#N canvas 421 72 671 939 oscillator_triangleA 0;
#X obj 72 23 inlet~;
#X obj 146 23 inlet~;
#X obj 72 118 phasor~;
#X obj 125 800 outlet~;
#X obj 149 62 +~ 1;
#X obj 146 95 /~ 2;
#X obj 233 363 *~ -1;
#X obj 233 390 +~ 1;
#X obj 125 522 *~;
#X obj 154 452 *~;
#X obj 125 557 min~;
#X obj 154 522 +~;
#X obj 154 485 *~ -1;
#X obj 125 592 *~;
#X obj 125 627 *~ 2;
#X obj 299 362 expr~ pow($v1*($v1-1) \, -1);
#X obj 125 662 +~ 1;
#X obj 285 799 outlet~;
#X obj 397 23 inlet~;
#X text 406 50 modulation;
#X obj 341 23 inlet~;
#X text 337 50 rungler;
#X obj 72 81 *~;
#X obj 72 56 *~, f 57;
#X connect 0 0 23 0;
#X connect 1 0 4 0;
#X connect 2 0 8 0;
#X connect 2 0 9 0;
#X connect 2 0 17 0;
#X connect 4 0 5 0;
#X connect 5 0 8 1;
#X connect 5 0 6 0;
#X connect 5 0 15 0;
#X connect 6 0 7 0;
#X connect 7 0 9 1;
#X connect 7 0 11 1;
#X connect 8 0 10 0;
#X connect 9 0 12 0;
#X connect 10 0 13 0;
#X connect 11 0 10 1;
#X connect 12 0 11 0;
#X connect 13 0 14 0;
#X connect 14 0 16 0;
#X connect 15 0 13 1;
#X connect 16 0 3 0;
#X connect 18 0 23 1;
#X connect 20 0 22 1;
#X connect 22 0 2 0;
#X connect 23 0 22 0;
#X restore 669 89 pd oscillator_triangleA;
#N canvas 435 80 746 767 oscillator_triangleB 0;
#X obj 72 23 inlet~;
#X obj 146 23 inlet~;
#X obj 72 118 phasor~;
#X obj 125 729 outlet~;
#X obj 146 62 +~ 1;
#X obj 146 95 /~ 2;
#X obj 233 363 *~ -1;
#X obj 233 390 +~ 1;
#X obj 125 522 *~;
#X obj 154 452 *~;
#X obj 125 557 min~;
#X obj 154 522 +~;
#X obj 154 485 *~ -1;
#X obj 125 592 *~;
#X obj 125 627 *~ 2;
#X obj 299 362 expr~ pow($v1*($v1-1) \, -1);
#X obj 125 662 +~ 1;
#X obj 285 728 outlet~;
#X obj 397 23 inlet~;
#X text 406 50 modulation;
#X obj 341 23 inlet~;
#X obj 72 80 *~;
#X text 334 46 rungler;
#X obj 72 54 *~, f 57;
#X connect 0 0 23 0;
#X connect 1 0 4 0;
#X connect 2 0 8 0;
#X connect 2 0 9 0;
#X connect 2 0 17 0;
#X connect 4 0 5 0;
#X connect 5 0 8 1;
#X connect 5 0 6 0;
#X connect 5 0 15 0;
#X connect 6 0 7 0;
#X connect 7 0 9 1;
#X connect 7 0 11 1;
#X connect 8 0 10 0;
#X connect 9 0 12 0;
#X connect 10 0 13 0;
#X connect 11 0 10 1;
#X connect 12 0 11 0;
#X connect 13 0 14 0;
#X connect 14 0 16 0;
#X connect 15 0 13 1;
#X connect 16 0 3 0;
#X connect 18 0 23 1;
#X connect 20 0 21 1;
#X connect 21 0 2 0;
#X connect 23 0 21 0;
#X restore 669 234 pd oscillator_triangleB;
#N canvas 796 110 450 300 pulseB 0;
#X obj 119 28 inlet~;
#X obj 170 128 -~;
#X obj 167 188 /~;
#X obj 167 236 outlet~;
#X obj 201 72 min~;
#X text 250 129 >;
#X obj 223 28 sig~ 0;
#X connect 0 0 1 0;
#X connect 0 0 4 0;
#X connect 1 0 2 0;
#X connect 1 0 2 1;
#X connect 2 0 3 0;
#X connect 4 0 1 1;
#X connect 6 0 4 1;
#X restore 761 266 pd pulseB;
#X obj 1008 152 r~ \$0-triA;
#X obj 835 188 r~ \$0-rungling;
#X obj 828 43 r~ \$0-rungling;
#X obj 669 116 s~ \$0-triA;
#X obj 754 143 s~ \$0-pulseA;
#X obj 761 288 s~ \$0-pulseB;
#X obj 1008 7 r~ \$0-triB;
#X obj 717 347 r~ \$0-triA;
#X obj 792 347 r~ \$0-triB;
#X obj 1020 347 r~ \$0-pulseA;
#X obj 1101 347 r~ \$0-pulseB;
#X obj 1020 411 s~ \$0-rungling;
#X text 751 433 offset;
#X text 763 457 scale;
#N canvas 70 23 1110 646 filter 0;
#X floatatom 625 328 5 0 200 0 - - -, f 5;
#X obj 111 553 bob~, f 35;
#X obj 625 350 / 25;
#X obj 400 343 pack 0 50;
#X obj 400 368 line~;
#X floatatom 399 321 7 0 0 0 - - -, f 7;
#X floatatom 828 312 5 0 999 0 - - -, f 5;
#X msg 828 358 saturation \$1;
#X obj 828 334 / 100;
#X floatatom 965 332 5 1 10 0 - - -, f 5;
#X text 961 257 oversampling;
#X msg 965 359 oversample \$1;
#X text 624 239 "resonance";
#X text 624 253 (>4 to oscillate);
#X msg 965 305 2;
#X text 673 346 scaled to 0-8;
#X text 672 328 0-200 control;
#X text 417 251 resonant or cutoff frequency, f 16;
#X text 450 223 ----- filter parameters ----;
#X text 826 194 ------ optimizations / setup params -------;
#X text 820 223 saturation point;
#X text 817 240 of "transistors";
#X msg 828 287 300;
#X obj 624 378 line~;
#X obj 215 450 *~;
#X obj 155 419 *~;
#X obj 111 48 inlet~;
#X obj 111 594 outlet~;
#X obj 170 48 inlet~;
#X obj 232 48 inlet~;
#X obj 400 48 inlet;
#X obj 625 52 inlet;
#X obj 923 117 loadbang;
#X obj 923 147 t b b, f 69;
#X connect 0 0 2 0;
#X connect 1 0 27 0;
#X connect 2 0 23 0;
#X connect 3 0 4 0;
#X connect 4 0 25 0;
#X connect 5 0 3 0;
#X connect 6 0 8 0;
#X connect 7 0 1 0;
#X connect 8 0 7 0;
#X connect 9 0 11 0;
#X connect 11 0 1 0;
#X connect 14 0 9 0;
#X connect 22 0 6 0;
#X connect 23 0 1 2;
#X connect 24 0 1 1;
#X connect 25 0 24 0;
#X connect 26 0 1 0;
#X connect 28 0 24 1;
#X connect 29 0 25 1;
#X connect 30 0 5 0;
#X connect 31 0 0 0;
#X connect 32 0 33 0;
#X connect 33 0 22 0;
#X connect 33 1 14 0;
#X restore 717 574 pd filter;
#X obj 912 733 outlet~;
#X floatatom 947 477 5 0 0 0 - - -, f 5;
#X obj 818 499 expr~ 1 + ($v1 * $v2), f 22;
#X floatatom 1121 477 5 0 0 0 - - -, f 5;
#X obj 998 499 expr~ 1 + ($v1 * $v2);
#X obj 818 477 r~ \$0-rungling;
#X obj 998 477 r~ \$0-triB;
#X floatatom 1025 546 5 0 0 0 - - -, f 5;
#X floatatom 1128 545 5 0 0 0 - - -, f 5;
#X obj 113 139 hsl 100 15 0 1 0 0 empty empty oscA_rate -2 -8 0 10
-262144 -1 -1 4600 1;
#X floatatom 220 139 10 0 0 2 scale - -, f 10;
#X floatatom 288 139 10 0 0 2 offset - -, f 10;
#X obj 113 171 hsl 100 15 0 1 0 0 empty empty oscA_rung -2 -8 0 10
-262144 -1 -1 3000 1;
#X floatatom 220 171 10 0 0 2 scale - -, f 10;
#X floatatom 288 171 10 0 0 2 offset - -, f 10;
#X obj 113 203 hsl 100 15 0 1 0 0 empty empty oscA_xmod -2 -8 0 10
-262144 -1 -1 200 1;
#X floatatom 220 203 10 0 0 2 scale - -, f 10;
#X floatatom 288 203 10 0 0 2 offset - -, f 10;
#X obj 113 235 hsl 100 15 0 1 0 0 empty empty oscB_rate -2 -8 0 10
-262144 -1 -1 300 1;
#X floatatom 220 235 10 0 0 2 scale - -, f 10;
#X floatatom 288 235 10 0 0 2 offset - -, f 10;
#X obj 113 267 hsl 100 15 0 1 0 0 empty empty oscB_rung -2 -8 0 10
-262144 -1 -1 5000 1;
#X floatatom 220 267 10 0 0 2 scale - -, f 10;
#X floatatom 288 267 10 0 0 2 offset - -, f 10;
#X obj 113 299 hsl 100 15 0 1 0 0 empty empty oscB_xmod -2 -8 0 10
-262144 -1 -1 7700 1;
#X floatatom 220 299 10 0 0 2 scale - -, f 10;
#X floatatom 288 299 10 0 0 2 offset - -, f 10;
#X obj 113 331 hsl 100 15 0 1 0 0 empty empty filter_freq -2 -8 0 10
-262144 -1 -1 6000 1;
#X floatatom 220 331 10 0 0 2 scale - -, f 10;
#X floatatom 288 331 10 0 0 2 offset - -, f 10;
#X obj 113 363 hsl 100 15 0 1 0 0 empty empty filter_rung -2 -8 0 10
-262144 -1 -1 3700 1;
#X obj 113 395 hsl 100 15 0 1 0 0 empty empty filter_xmod -2 -8 0 10
-262144 -1 -1 4000 1;
#X obj 223 363 hsl 100 15 0 1 0 0 empty empty filter_res -2 -8 0 10
-262144 -1 -1 5700 1;
#X obj 357 733 outlet~;
#N canvas 402 230 298 390 scale_offset 0;
#X obj 87 237 +;
#X obj 87 205 *;
#X obj 87 70 inlet;
#X obj 156 95 t b f;
#X obj 156 70 inlet;
#X obj 87 172 f;
#X obj 198 95 t b f;
#X obj 198 70 inlet;
#X obj 87 279 outlet;
#X connect 0 0 8 0;
#X connect 1 0 0 0;
#X connect 2 0 5 0;
#X connect 3 0 5 0;
#X connect 3 1 1 1;
#X connect 4 0 3 0;
#X connect 5 0 1 0;
#X connect 6 0 5 0;
#X connect 6 1 0 1;
#X connect 7 0 6 0;
#X restore 387 102 pd scale_offset;
#N canvas 402 230 298 390 scale_offset 0;
#X obj 87 237 +;
#X obj 87 205 *;
#X obj 87 70 inlet;
#X obj 156 95 t b f;
#X obj 156 70 inlet;
#X obj 87 172 f;
#X obj 198 95 t b f;
#X obj 198 70 inlet;
#X obj 87 279 outlet;
#X connect 0 0 8 0;
#X connect 1 0 0 0;
#X connect 2 0 5 0;
#X connect 3 0 5 0;
#X connect 3 1 1 1;
#X connect 4 0 3 0;
#X connect 5 0 1 0;
#X connect 6 0 5 0;
#X connect 6 1 0 1;
#X connect 7 0 6 0;
#X restore 387 128 pd scale_offset;
#N canvas 402 230 298 390 scale_offset 0;
#X obj 87 237 +;
#X obj 87 205 *;
#X obj 87 70 inlet;
#X obj 156 95 t b f;
#X obj 156 70 inlet;
#X obj 87 172 f;
#X obj 198 95 t b f;
#X obj 198 70 inlet;
#X obj 87 279 outlet;
#X connect 0 0 8 0;
#X connect 1 0 0 0;
#X connect 2 0 5 0;
#X connect 3 0 5 0;
#X connect 3 1 1 1;
#X connect 4 0 3 0;
#X connect 5 0 1 0;
#X connect 6 0 5 0;
#X connect 6 1 0 1;
#X connect 7 0 6 0;
#X restore 387 154 pd scale_offset;
#N canvas 402 230 298 390 scale_offset 0;
#X obj 87 237 +;
#X obj 87 205 *;
#X obj 87 70 inlet;
#X obj 156 95 t b f;
#X obj 156 70 inlet;
#X obj 87 172 f;
#X obj 198 95 t b f;
#X obj 198 70 inlet;
#X obj 87 279 outlet;
#X connect 0 0 8 0;
#X connect 1 0 0 0;
#X connect 2 0 5 0;
#X connect 3 0 5 0;
#X connect 3 1 1 1;
#X connect 4 0 3 0;
#X connect 5 0 1 0;
#X connect 6 0 5 0;
#X connect 6 1 0 1;
#X connect 7 0 6 0;
#X restore 387 180 pd scale_offset;
#N canvas 402 230 298 390 scale_offset 0;
#X obj 87 237 +;
#X obj 87 205 *;
#X obj 87 70 inlet;
#X obj 156 95 t b f;
#X obj 156 70 inlet;
#X obj 87 172 f;
#X obj 198 95 t b f;
#X obj 198 70 inlet;
#X obj 87 279 outlet;
#X connect 0 0 8 0;
#X connect 1 0 0 0;
#X connect 2 0 5 0;
#X connect 3 0 5 0;
#X connect 3 1 1 1;
#X connect 4 0 3 0;
#X connect 5 0 1 0;
#X connect 6 0 5 0;
#X connect 6 1 0 1;
#X connect 7 0 6 0;
#X restore 387 205 pd scale_offset;
#N canvas 402 230 298 390 scale_offset 0;
#X obj 87 237 +;
#X obj 87 205 *;
#X obj 87 70 inlet;
#X obj 156 95 t b f;
#X obj 156 70 inlet;
#X obj 87 172 f;
#X obj 198 95 t b f;
#X obj 198 70 inlet;
#X obj 87 279 outlet;
#X connect 0 0 8 0;
#X connect 1 0 0 0;
#X connect 2 0 5 0;
#X connect 3 0 5 0;
#X connect 3 1 1 1;
#X connect 4 0 3 0;
#X connect 5 0 1 0;
#X connect 6 0 5 0;
#X connect 6 1 0 1;
#X connect 7 0 6 0;
#X restore 387 231 pd scale_offset;
#N canvas 402 230 298 390 scale_offset 0;
#X obj 87 237 +;
#X obj 87 205 *;
#X obj 87 70 inlet;
#X obj 156 95 t b f;
#X obj 156 70 inlet;
#X obj 87 172 f;
#X obj 198 95 t b f;
#X obj 198 70 inlet;
#X obj 87 279 outlet;
#X connect 0 0 8 0;
#X connect 1 0 0 0;
#X connect 2 0 5 0;
#X connect 3 0 5 0;
#X connect 3 1 1 1;
#X connect 4 0 3 0;
#X connect 5 0 1 0;
#X connect 6 0 5 0;
#X connect 6 1 0 1;
#X connect 7 0 6 0;
#X restore 387 257 pd scale_offset;
#X obj 357 705 r~ \$0-triA;
#X obj 430 733 outlet~;
#X obj 430 705 r~ \$0-triB;
#X obj 503 706 r~ \$0-pulseA;
#X obj 503 733 outlet~;
#X obj 584 733 outlet~;
#X obj 584 705 r~ \$0-pulseB;
#X obj 728 733 outlet~;
#X obj 728 706 r~ \$0-rungling;
#X obj 673 733 outlet~;
#X obj 855 733 outlet~;
#X text 672 758 xor;
#X text 853 760 pwm;
#X text 914 760 filtered output;
#X obj 1008 34 +~;
#X obj 527 6 inlet~;
#X obj 1008 179 +~;
#X obj 573 6 inlet~;
#X obj 922 549 +~;
#X obj 619 6 inlet~;
#X obj 1128 524 * 100;
#X connect 0 0 7 1;
#X connect 0 0 36 0;
#X connect 0 1 90 0;
#X connect 1 0 22 0;
#X connect 3 0 8 1;
#X connect 4 0 23 0;
#X connect 5 0 23 1;
#X connect 7 0 13 0;
#X connect 8 0 22 2;
#X connect 9 0 10 1;
#X connect 10 0 23 2;
#X connect 12 0 39 0;
#X connect 13 0 18 0;
#X connect 14 0 15 1;
#X connect 15 0 22 3;
#X connect 16 0 17 1;
#X connect 17 0 23 3;
#X connect 18 0 12 0;
#X connect 19 0 22 1;
#X connect 20 0 7 0;
#X connect 20 0 91 0;
#X connect 21 0 29 0;
#X connect 22 0 28 0;
#X connect 22 1 21 0;
#X connect 23 0 11 0;
#X connect 23 1 24 0;
#X connect 24 0 30 0;
#X connect 25 0 97 0;
#X connect 26 0 10 0;
#X connect 27 0 8 0;
#X connect 31 0 95 0;
#X connect 32 0 20 0;
#X connect 33 0 20 1;
#X connect 34 0 0 0;
#X connect 35 0 0 1;
#X connect 39 0 40 0;
#X connect 41 0 42 1;
#X connect 42 0 39 1;
#X connect 43 0 44 1;
#X connect 44 0 99 0;
#X connect 45 0 42 0;
#X connect 46 0 44 0;
#X connect 47 0 39 3;
#X connect 48 0 39 4;
#X connect 49 0 74 0;
#X connect 50 0 74 1;
#X connect 51 0 74 2;
#X connect 52 0 75 0;
#X connect 53 0 75 1;
#X connect 54 0 75 2;
#X connect 55 0 76 0;
#X connect 56 0 76 1;
#X connect 57 0 76 2;
#X connect 58 0 77 0;
#X connect 59 0 77 1;
#X connect 60 0 77 2;
#X connect 61 0 78 0;
#X connect 62 0 78 1;
#X connect 63 0 78 2;
#X connect 64 0 79 0;
#X connect 65 0 79 1;
#X connect 66 0 79 2;
#X connect 67 0 80 0;
#X connect 68 0 80 1;
#X connect 69 0 80 2;
#X connect 70 0 41 0;
#X connect 71 0 43 0;
#X connect 72 0 101 0;
#X connect 74 0 1 0;
#X connect 75 0 3 0;
#X connect 76 0 14 0;
#X connect 77 0 4 0;
#X connect 78 0 9 0;
#X connect 79 0 16 0;
#X connect 80 0 47 0;
#X connect 81 0 73 0;
#X connect 83 0 82 0;
#X connect 84 0 85 0;
#X connect 87 0 86 0;
#X connect 89 0 88 0;
#X connect 95 0 15 0;
#X connect 96 0 95 1;
#X connect 97 0 17 0;
#X connect 98 0 97 1;
#X connect 99 0 39 2;
#X connect 100 0 99 1;
#X connect 101 0 48 0;
#X coords 0 -1 1 1 262 320 1 100 100;
