#N canvas 47 82 1659 815 10;
#X obj 431 343 inlet~;
#X obj 479 86 phasor~;
#X obj 479 110 *~ -1;
#X obj 535 333 *~;
#X obj 550 311 line~;
#X msg 550 287 \$1 50;
#X obj 550 265 tgl 15 0 empty empty empty 17 7 0 10 -262144 -1 -1 0
1;
#X text 529 85 downslope;
#X msg 550 207 1;
#X msg 581 207 0;
#X obj 535 378 *~ 2000;
#X obj 431 487 vcf~ 0.25;
#X obj 550 180 bng 15 250 50 0 empty empty empty 17 7 0 10 -262144
-1 -1;
#X obj 605 333 *~;
#X obj 620 311 line~;
#X msg 620 287 \$1 50;
#X obj 620 265 tgl 15 0 empty empty empty 17 7 0 10 -262144 -1 -1 0
1;
#X msg 620 207 1;
#X msg 651 207 0;
#X obj 620 180 bng 15 250 50 0 empty empty empty 17 7 0 10 -262144
-1 -1;
#X obj 677 333 *~;
#X obj 692 311 line~;
#X msg 692 287 \$1 50;
#X obj 692 265 tgl 15 0 empty empty empty 17 7 0 10 -262144 -1 -1 1
1;
#X msg 692 207 1;
#X msg 723 207 0;
#X obj 692 180 bng 15 250 50 0 empty empty empty 17 7 0 10 -262144
-1 -1;
#X obj 747 333 *~;
#X obj 762 311 line~;
#X msg 762 287 \$1 50;
#X obj 762 265 tgl 15 0 empty empty empty 17 7 0 10 -262144 -1 -1 0
1;
#X msg 762 207 1;
#X msg 793 207 0;
#X obj 762 180 bng 15 250 50 0 empty empty empty 17 7 0 10 -262144
-1 -1;
#X obj 605 32 phasor~;
#X text 656 31 upslope;
#N canvas 528 23 637 526 triangle 0;
#X msg 225 136 0;
#X obj 78 179 phasor~;
#X obj 179 179 phasor~;
#X obj 78 219 *~ 2;
#X obj 78 246 -~ 1;
#X obj 78 278 clip~ 0 1;
#X obj 179 219 *~ 2;
#X obj 179 246 -~ 1;
#X obj 179 278 clip~ 0 1;
#X obj 78 353 +~;
#X obj 78 471 outlet~;
#X text 262 134 <- phase synchronization;
#X obj 188 29 inlet;
#X text 354 216 triangle wave;
#X obj 79 29 inlet~;
#X obj 179 138 *~ -1;
#X obj 78 393 expr~ $v1 * 2 - 1;
#X connect 0 0 2 1;
#X connect 0 0 1 1;
#X connect 1 0 3 0;
#X connect 2 0 6 0;
#X connect 3 0 4 0;
#X connect 4 0 5 0;
#X connect 5 0 9 0;
#X connect 6 0 7 0;
#X connect 7 0 8 0;
#X connect 8 0 9 1;
#X connect 9 0 16 0;
#X connect 12 0 2 1;
#X connect 12 0 1 1;
#X connect 14 0 1 0;
#X connect 14 0 15 0;
#X connect 15 0 2 0;
#X connect 16 0 10 0;
#X restore 677 70 pd triangle;
#N canvas 419 23 450 300 square 0;
#X obj 40 142 outlet~;
#X obj 40 36 inlet~;
#X obj 40 63 phasor~;
#X obj 40 89 expr~ $v1 > 0.5;
#X obj 40 114 expr~ $v1 * 2 - 1;
#X obj 91 36 inlet;
#X connect 1 0 2 0;
#X connect 2 0 3 0;
#X connect 3 0 4 0;
#X connect 4 0 0 0;
#X connect 5 0 2 1;
#X restore 747 97 pd square;
#X obj 891 77 select 0 1 2 3;
#X obj 605 -17 sig~;
#X floatatom 605 -39 5 0 0 0 - - -, f 5;
#X text 646 -41 speed;
#X text 886 249 depth;
#X floatatom 850 249 5 0 0 0 - - -, f 5;
#X msg 850 277 \$1 50;
#X obj 850 311 line~;
#X obj 835 378 *~;
#X obj 835 400 +~;
#X obj 919 277 t b f;
#X obj 919 311 f 1;
#X floatatom 919 378 5 0 0 0 - - -, f 5;
#X msg 919 397 \$1 50;
#X obj 919 419 line~;
#X obj 1030 354 - 1;
#X obj 1030 282 tgl 15 0 empty empty empty 17 7 0 10 -262144 -1 -1
0 1;
#X obj 1030 302 t b f;
#X obj 1030 329 f 1;
#X obj 639 485 *~;
#X obj 654 463 line~;
#X msg 654 439 \$1 50;
#X obj 654 417 tgl 15 0 empty empty empty 17 7 0 10 -262144 -1 -1 0
1;
#X obj 709 485 *~;
#X obj 724 463 line~;
#X msg 724 439 \$1 50;
#X obj 724 417 tgl 15 0 empty empty empty 17 7 0 10 -262144 -1 -1 1
1;
#X obj 820 441 *~;
#X obj 1030 378 tgl 15 0 empty empty empty 17 7 0 10 -262144 -1 -1
1 1;
#X text 1062 280 select vcf/vca;
#X obj 639 525 +~;
#X floatatom 833 565 5 0 0 0 - - -, f 5;
#X obj 833 612 line~;
#X msg 833 588 \$1 50;
#X text 872 562 bias;
#X floatatom 676 550 5 0 0 0 - - -, f 5;
#X text 715 547 level;
#X obj 601 673 outlet~;
#X floatatom 891 54 5 0 0 0 - - -, f 5;
#X obj 117 130 vsl 30 200 0 1 0 0 empty empty speed 0 -9 0 10 -262144
-1 -1 16000 1;
#X obj 300 47 * 50;
#X obj 300 74 + 0.001;
#X obj 162 130 vsl 30 200 0 1 0 0 empty empty depth 0 -9 0 10 -262144
-1 -1 7800 1;
#X obj 920 351 -;
#X obj 207 130 vsl 30 200 0 1 0 0 empty empty bias 0 -9 0 10 -262144
-1 -1 9400 1;
#X obj 1245 454 * 2;
#X obj 1245 476 - 1;
#X obj 251 130 vsl 30 200 0 1 0 0 empty empty wet 0 -9 0 10 -262144
-1 -1 8000 1;
#X obj 251 349 tgl 30 0 empty empty vca/vcf -2 38 0 10 -262144 -1 -1
0 1;
#X obj 117 348 hradio 30 1 0 4 empty empty down__up__tri__squar 0 38
0 10 -262144 -1 -1 2;
#X obj 850 199 + 0.001;
#X obj 850 224 clip 0 1;
#X obj 479 135 +~ 1;
#X obj 944 -24 inlet;
#X obj 911 -25 r \$1;
#X obj 1085 109 loadbang;
#X msg 1042 162 0;
#X obj 1085 152 t b b b b b b b b;
#X msg 1116 191 0;
#X msg 1147 191 1;
#X msg 1177 191 1;
#X msg 1208 191 1;
#X msg 1238 191 0.5;
#X msg 1271 191 0.25;
#X msg 1307 192 0.15;
#X obj 1153 119 bng 15 250 50 0 empty empty empty 17 7 0 10 -262144
-1 -1;
#X text 1294 276 based on an example from NoiseHack \; https://www.youtube.com/watch?v=ZeKgRPv1mNo
;
#X text 1294 307 which is an emulation of the Throbbing Gristle Gristleizer
\; http://www.gristleizer.com w;
#X text 1248 365 basically it is either a filter or amp which is controlled
by an LFO;
#X obj 944 0 route /speed /depth /bias /level /waveform /vcf /on /phasereset
, f 75;
#X obj 358 343 inlet~;
#X obj 358 465 vcf~ 0.25;
#X obj 1053 496 *~;
#X obj 1068 474 line~;
#X msg 1068 450 \$1 50;
#X obj 1068 428 tgl 15 0 empty empty empty 17 7 0 10 -262144 -1 -1
0 1;
#X obj 1123 496 *~;
#X obj 1138 474 line~;
#X msg 1138 450 \$1 50;
#X obj 1138 428 tgl 15 0 empty empty empty 17 7 0 10 -262144 -1 -1
1 1;
#X obj 1053 536 +~;
#X floatatom 1245 502 5 0 0 0 - - -, f 5;
#X obj 1245 549 line~;
#X msg 1245 525 \$1 50;
#X text 1284 499 bias;
#X floatatom 1091 561 5 0 0 0 - - -, f 5;
#X text 1130 558 level;
#X obj 1031 684 outlet~;
#X obj 867 441 *~;
#N canvas 0 22 644 476 xfade 0;
#X obj 176 43 inlet~;
#X obj 220 43 inlet;
#X obj 176 282 *~;
#X text 221 24 crossfade;
#X obj 83 43 inlet~;
#X obj 83 282 *~;
#X obj 83 312 +~;
#X obj 83 341 outlet~;
#X obj 191 204 sin;
#X obj 98 204 cos;
#X text 81 25 1;
#X text 177 24 2;
#X obj 220 68 * 2;
#X obj 220 134 / 4;
#X obj 220 156 * 3.14159;
#X floatatom 220 178 5 0 0 0 - - -, f 5;
#X obj 191 253 line~;
#X obj 98 253 line~;
#X obj 98 226 pack f 20;
#X obj 191 226 pack f 20;
#X connect 0 0 2 0;
#X connect 1 0 12 0;
#X connect 2 0 6 1;
#X connect 4 0 5 0;
#X connect 5 0 6 0;
#X connect 6 0 7 0;
#X connect 8 0 19 0;
#X connect 9 0 18 0;
#X connect 12 0 13 0;
#X connect 13 0 14 0;
#X connect 14 0 15 0;
#X connect 15 0 8 0;
#X connect 15 0 9 0;
#X connect 16 0 2 1;
#X connect 17 0 5 1;
#X connect 18 0 17 0;
#X connect 19 0 16 0;
#X restore 601 608 pd xfade, f 13;
#N canvas 0 22 644 476 xfade 0;
#X obj 176 43 inlet~;
#X obj 220 43 inlet;
#X obj 176 282 *~;
#X text 221 24 crossfade;
#X obj 83 43 inlet~;
#X obj 83 282 *~;
#X obj 83 312 +~;
#X obj 83 341 outlet~;
#X obj 191 204 sin;
#X obj 98 204 cos;
#X text 81 25 1;
#X text 177 24 2;
#X obj 220 68 * 2;
#X obj 220 134 / 4;
#X obj 220 156 * 3.14159;
#X floatatom 220 178 5 0 0 0 - - -, f 5;
#X obj 191 253 line~;
#X obj 98 253 line~;
#X obj 98 226 pack f 20;
#X obj 191 226 pack f 20, f 13;
#X connect 0 0 2 0;
#X connect 1 0 12 0;
#X connect 2 0 6 1;
#X connect 4 0 5 0;
#X connect 5 0 6 0;
#X connect 6 0 7 0;
#X connect 8 0 19 0;
#X connect 9 0 18 0;
#X connect 12 0 13 0;
#X connect 13 0 14 0;
#X connect 14 0 15 0;
#X connect 15 0 8 0;
#X connect 15 0 9 0;
#X connect 16 0 2 1;
#X connect 17 0 5 1;
#X connect 18 0 17 0;
#X connect 19 0 16 0;
#X restore 1031 610 pd xfade;
#X connect 0 0 11 0;
#X connect 0 0 65 0;
#X connect 0 0 128 0;
#X connect 1 0 2 0;
#X connect 2 0 90 0;
#X connect 3 0 10 0;
#X connect 3 0 46 0;
#X connect 4 0 3 1;
#X connect 5 0 4 0;
#X connect 6 0 5 0;
#X connect 8 0 6 0;
#X connect 9 0 16 0;
#X connect 9 0 23 0;
#X connect 9 0 30 0;
#X connect 10 0 11 1;
#X connect 10 0 109 1;
#X connect 11 0 110 0;
#X connect 12 0 8 0;
#X connect 12 0 9 0;
#X connect 13 0 10 0;
#X connect 13 0 46 0;
#X connect 14 0 13 1;
#X connect 15 0 14 0;
#X connect 16 0 15 0;
#X connect 17 0 16 0;
#X connect 18 0 6 0;
#X connect 18 0 23 0;
#X connect 18 0 30 0;
#X connect 19 0 17 0;
#X connect 19 0 18 0;
#X connect 20 0 10 0;
#X connect 20 0 46 0;
#X connect 21 0 20 1;
#X connect 22 0 21 0;
#X connect 23 0 22 0;
#X connect 24 0 23 0;
#X connect 25 0 30 0;
#X connect 25 0 16 0;
#X connect 25 0 6 0;
#X connect 26 0 24 0;
#X connect 26 0 25 0;
#X connect 27 0 10 0;
#X connect 27 0 46 0;
#X connect 28 0 27 1;
#X connect 29 0 28 0;
#X connect 30 0 29 0;
#X connect 31 0 30 0;
#X connect 32 0 23 0;
#X connect 32 0 16 0;
#X connect 32 0 6 0;
#X connect 33 0 31 0;
#X connect 33 0 32 0;
#X connect 34 0 13 0;
#X connect 36 0 20 0;
#X connect 37 0 27 0;
#X connect 38 0 12 0;
#X connect 38 1 19 0;
#X connect 38 2 26 0;
#X connect 38 3 33 0;
#X connect 39 0 34 0;
#X connect 39 0 36 0;
#X connect 39 0 37 0;
#X connect 39 0 1 0;
#X connect 40 0 39 0;
#X connect 43 0 44 0;
#X connect 43 0 48 0;
#X connect 43 0 11 2;
#X connect 43 0 109 2;
#X connect 44 0 45 0;
#X connect 45 0 46 1;
#X connect 46 0 47 0;
#X connect 47 0 65 1;
#X connect 47 0 126 1;
#X connect 48 0 49 0;
#X connect 48 1 81 1;
#X connect 49 0 81 0;
#X connect 50 0 51 0;
#X connect 51 0 52 0;
#X connect 52 0 47 1;
#X connect 53 0 66 0;
#X connect 54 0 55 0;
#X connect 54 0 60 0;
#X connect 54 0 113 0;
#X connect 55 0 56 0;
#X connect 55 1 53 1;
#X connect 56 0 53 0;
#X connect 57 0 68 0;
#X connect 58 0 57 1;
#X connect 59 0 58 0;
#X connect 60 0 59 0;
#X connect 61 0 68 0;
#X connect 62 0 61 1;
#X connect 63 0 62 0;
#X connect 64 0 63 0;
#X connect 65 0 61 0;
#X connect 66 0 64 0;
#X connect 66 0 117 0;
#X connect 68 0 127 1;
#X connect 69 0 71 0;
#X connect 70 0 68 1;
#X connect 71 0 70 0;
#X connect 73 0 127 2;
#X connect 76 0 38 0;
#X connect 77 0 78 0;
#X connect 78 0 79 0;
#X connect 79 0 40 0;
#X connect 80 0 88 0;
#X connect 81 0 50 0;
#X connect 82 0 83 0;
#X connect 83 0 84 0;
#X connect 84 0 69 0;
#X connect 84 0 119 0;
#X connect 85 0 73 0;
#X connect 85 0 123 0;
#X connect 86 0 54 0;
#X connect 87 0 76 0;
#X connect 88 0 89 0;
#X connect 89 0 43 0;
#X connect 90 0 3 0;
#X connect 91 0 107 0;
#X connect 92 0 107 0;
#X connect 93 0 95 0;
#X connect 94 0 1 1;
#X connect 94 0 36 1;
#X connect 94 0 34 1;
#X connect 94 0 37 1;
#X connect 95 0 94 0;
#X connect 95 1 96 0;
#X connect 95 2 97 0;
#X connect 95 3 98 0;
#X connect 95 4 99 0;
#X connect 95 5 100 0;
#X connect 95 6 101 0;
#X connect 95 7 102 0;
#X connect 96 0 87 0;
#X connect 97 0 86 0;
#X connect 99 0 85 0;
#X connect 100 0 82 0;
#X connect 101 0 80 0;
#X connect 102 0 77 0;
#X connect 103 0 95 0;
#X connect 107 0 77 0;
#X connect 107 1 80 0;
#X connect 107 2 82 0;
#X connect 107 3 85 0;
#X connect 107 4 87 0;
#X connect 107 5 86 0;
#X connect 107 7 94 0;
#X connect 108 0 109 0;
#X connect 108 0 126 0;
#X connect 108 0 127 0;
#X connect 109 0 57 0;
#X connect 110 0 118 0;
#X connect 111 0 110 1;
#X connect 112 0 111 0;
#X connect 113 0 112 0;
#X connect 114 0 118 0;
#X connect 115 0 114 1;
#X connect 116 0 115 0;
#X connect 117 0 116 0;
#X connect 118 0 128 1;
#X connect 119 0 121 0;
#X connect 120 0 118 1;
#X connect 121 0 120 0;
#X connect 123 0 128 2;
#X connect 126 0 114 0;
#X connect 127 0 75 0;
#X connect 128 0 125 0;
#X coords 0 -1 1 1 200 300 1 100 100;
