#N canvas 88 78 1403 983 10;
#X floatatom 529 148 20 0 0 0 - - -, f 20;
#X floatatom 685 553 0 0 0 0 - - -;
#X obj 685 625 line~;
#X obj 685 601 pack 0 100;
#X obj 685 577 * 0.01;
#X obj 335 380 +~;
#X obj 664 651 *~;
#X text 734 554 <-- feedback (hundredths);
#X obj 664 675 clip~ -1 1;
#X obj 323 -18 inlet~;
#X obj 40 788 outlet~;
#X obj 373 -18 inlet~;
#X obj 385 379 +~;
#X obj 236 788 outlet~;
#X obj 841 651 *~;
#X obj 841 675 clip~ -1 1;
#X floatatom 893 555 0 0 0 0 - - -;
#X obj 893 627 line~;
#X obj 893 603 pack 0 100;
#X obj 893 579 * 0.01;
#X text 937 531 <-- feedback (hundredths);
#X floatatom 654 148 20 0 0 0 - - -, f 20;
#X msg 529 212 \$1 100;
#X msg 654 212 \$1 100;
#X obj 529 292 vd~ \$0-l;
#X obj 775 21 loadbang;
#X obj 775 44 f \$0;
#X floatatom 775 69 5 0 0 0 - - -, f 5;
#X obj 423 -19 inlet;
#X obj 470 -18 r \$1;
#X obj 110 174 hsl 80 15 0 1 0 0 empty empty ltime -2 -8 0 10 -262144
-1 -1 5800 1;
#X obj 110 206 hsl 80 15 0 1 0 0 empty empty rtime -2 -8 0 10 -262144
-1 -1 3000 1;
#X obj 110 239 hsl 80 15 0 1 0 0 empty empty lfb -2 -8 0 10 -262144
-1 -1 4800 1;
#X obj 110 274 hsl 80 15 0 1 0 0 empty empty rfb -2 -8 0 10 -262144
-1 -1 5600 1;
#X obj 110 139 hsl 80 15 0 1 0 0 empty empty wet -2 -8 0 10 -262144
-1 -1 7900 1;
#X obj 133 697 *~;
#X obj 40 697 *~;
#X obj 40 727 +~;
#X obj 148 619 sin;
#X obj 55 619 cos;
#X obj 177 529 * 2;
#X obj 177 549 / 4;
#X obj 177 571 * 3.14159;
#X floatatom 177 593 5 0 0 0 - - -, f 5;
#X obj 148 668 line~;
#X obj 55 668 line~;
#X obj 148 641 pack f 60;
#X obj 55 641 pack f 60;
#X obj 329 697 *~;
#X obj 236 697 *~;
#X obj 236 727 +~;
#X obj 344 619 sin;
#X obj 251 619 cos;
#X obj 373 529 * 2;
#X obj 373 549 / 4;
#X obj 373 571 * 3.14159;
#X floatatom 373 593 5 0 0 0 - - -, f 5;
#X obj 344 668 line~;
#X obj 251 668 line~;
#X obj 344 641 pack f 60;
#X obj 251 641 pack f 60;
#X obj 654 292 vd~ \$0-r;
#X obj 685 529 * 96;
#X obj 893 532 * 96;
#X floatatom 821 250 5 0 0 0 - - -, f 5;
#X obj 821 191 + 0.001;
#X floatatom 880 263 5 0 0 0 - - -, f 5;
#X obj 880 144 line;
#X obj 880 115 pack f 200;
#X obj 821 163 * 0.55;
#X obj 880 212 * 3.5;
#X floatatom 880 190 5 0 0 0 - - -, f 5;
#N canvas 0 22 450 300 !- 0;
#X obj 92 21 inlet;
#X obj 124 240 outlet;
#X floatatom 92 57 5 0 0 0 - - -, f 5;
#X obj 124 204 - 1;
#X obj 92 106 trigger b f;
#X obj 82 158 f 1;
#X connect 0 0 2 0;
#X connect 2 0 4 0;
#X connect 3 0 1 0;
#X connect 4 0 5 0;
#X connect 4 1 3 1;
#X connect 5 0 3 0;
#X restore 880 167 pd !-;
#X obj 880 233 clip 1 3.5;
#X obj 423 15 route /wet /ltime /rtime /lfb /rfb /lfo /res;
#X obj 664 699 delwrite~ \$0-l 60000;
#X obj 841 699 delwrite~ \$0-r 60000;
#X obj 529 122 * 55000;
#X obj 654 122 * 55000;
#X obj 529 240 line~;
#X obj 654 240 line~;
#X connect 0 0 22 0;
#X connect 1 0 4 0;
#X connect 2 0 6 1;
#X connect 3 0 2 0;
#X connect 4 0 3 0;
#X connect 5 0 6 0;
#X connect 5 0 35 0;
#X connect 6 0 8 0;
#X connect 8 0 75 0;
#X connect 9 0 5 0;
#X connect 9 0 36 0;
#X connect 11 0 12 0;
#X connect 11 0 49 0;
#X connect 12 0 14 0;
#X connect 12 0 48 0;
#X connect 14 0 15 0;
#X connect 15 0 76 0;
#X connect 16 0 19 0;
#X connect 17 0 14 1;
#X connect 18 0 17 0;
#X connect 19 0 18 0;
#X connect 21 0 23 0;
#X connect 22 0 79 0;
#X connect 23 0 80 0;
#X connect 24 0 5 1;
#X connect 25 0 26 0;
#X connect 26 0 27 0;
#X connect 28 0 74 0;
#X connect 29 0 74 0;
#X connect 30 0 77 0;
#X connect 31 0 78 0;
#X connect 32 0 62 0;
#X connect 33 0 63 0;
#X connect 34 0 40 0;
#X connect 34 0 53 0;
#X connect 35 0 37 1;
#X connect 36 0 37 0;
#X connect 37 0 10 0;
#X connect 38 0 46 0;
#X connect 39 0 47 0;
#X connect 40 0 41 0;
#X connect 41 0 42 0;
#X connect 42 0 43 0;
#X connect 43 0 38 0;
#X connect 43 0 39 0;
#X connect 44 0 35 1;
#X connect 45 0 36 1;
#X connect 46 0 44 0;
#X connect 47 0 45 0;
#X connect 48 0 50 1;
#X connect 49 0 50 0;
#X connect 50 0 13 0;
#X connect 51 0 59 0;
#X connect 52 0 60 0;
#X connect 53 0 54 0;
#X connect 54 0 55 0;
#X connect 55 0 56 0;
#X connect 56 0 51 0;
#X connect 56 0 52 0;
#X connect 57 0 48 1;
#X connect 58 0 49 1;
#X connect 59 0 57 0;
#X connect 60 0 58 0;
#X connect 61 0 12 1;
#X connect 62 0 1 0;
#X connect 63 0 16 0;
#X connect 65 0 64 0;
#X connect 67 0 72 0;
#X connect 68 0 67 0;
#X connect 69 0 65 0;
#X connect 70 0 73 0;
#X connect 71 0 70 0;
#X connect 72 0 71 0;
#X connect 73 0 66 0;
#X connect 74 0 34 0;
#X connect 74 1 30 0;
#X connect 74 2 31 0;
#X connect 74 3 32 0;
#X connect 74 4 33 0;
#X connect 77 0 0 0;
#X connect 78 0 21 0;
#X connect 79 0 24 0;
#X connect 80 0 61 0;
#X coords 0 -1 1 1 100 300 1 100 100;
