#N canvas 130 89 1383 803 10;
#X obj 224 -1 inlet;
#X obj 7 474 loadbang;
#X obj 7 506 f \$0;
#X floatatom 7 531 5 0 0 0 - - -, f 5;
#X obj 314 693 osc~;
#X floatatom 424 263 5 0 0 1 phase - -, f 5;
#X obj 602 507 line~;
#X msg 424 236 0;
#X obj 424 214 loadbang;
#X obj 156 -1 receive \$1;
#X floatatom 559 294 5 0 0 0 - - -, f 5;
#X obj 559 261 * 11;
#X obj 559 407 mtof;
#X obj 559 361 + 0;
#X obj 638 286 t b f;
#X obj 559 338 f;
#X obj 638 212 * 12;
#X floatatom 638 172 5 0 0 0 - - -, f 5;
#X obj 140 164 vsl 20 215 0 1 0 0 empty empty frequency 0 -9 0 10 -262144
-1 -1 13500 1;
#X obj 638 190 + 1;
#N canvas 0 22 636 583 tri 0;
#X msg 225 136 0;
#X obj 78 179 phasor~;
#X obj 179 179 phasor~;
#X obj 78 219 *~ 2;
#X obj 78 246 -~ 1;
#X obj 78 278 clip~ 0 1;
#X obj 179 219 *~ 2;
#X obj 179 246 -~ 1;
#X obj 179 278 clip~ 0 1;
#X obj 78 353 +~;
#X obj 78 471 outlet~;
#X text 262 134 <- phase synchronization;
#X obj 188 29 inlet;
#X text 354 216 triangle wave;
#X obj 79 29 inlet~;
#X obj 136 136 *~ -1;
#X obj 78 393 expr~ $v1 * 2 - 1;
#X obj 367 28 loadbang;
#X connect 0 0 2 1;
#X connect 0 0 1 1;
#X connect 1 0 3 0;
#X connect 2 0 6 0;
#X connect 3 0 4 0;
#X connect 4 0 5 0;
#X connect 5 0 9 0;
#X connect 6 0 7 0;
#X connect 7 0 8 0;
#X connect 8 0 9 1;
#X connect 9 0 16 0;
#X connect 12 0 2 1;
#X connect 12 0 1 1;
#X connect 14 0 1 0;
#X connect 14 0 15 0;
#X connect 15 0 2 0;
#X connect 16 0 10 0;
#X connect 17 0 0 0;
#X restore 416 693 pd tri;
#N canvas 0 22 450 300 square 0;
#X obj 40 142 outlet~;
#X obj 40 36 inlet~;
#X obj 40 63 phasor~;
#X obj 40 89 expr~ $v1 > 0.5;
#X obj 40 114 expr~ $v1 * 2 - 1;
#X obj 91 36 inlet;
#X connect 1 0 2 0;
#X connect 2 0 3 0;
#X connect 3 0 4 0;
#X connect 4 0 0 0;
#X connect 5 0 2 1;
#X restore 467 693 pd square;
#N canvas 0 22 450 300 saw 0;
#X obj 58 80 phasor~;
#X obj 58 113 expr~ $v1 * 2 - 1;
#X obj 58 155 outlet~;
#X obj 58 37 inlet~;
#X obj 103 37 inlet;
#X connect 0 0 1 0;
#X connect 1 0 2 0;
#X connect 3 0 0 0;
#X connect 4 0 0 1;
#X restore 365 693 pd saw;
#X floatatom 626 71 5 0 0 0 - - -, f 5;
#X obj 638 148 - 1;
#X obj 626 92 t b f;
#X floatatom 265 123 5 0 0 0 - - -, f 5;
#X obj 277 200 - 1;
#X obj 265 144 t b f;
#X floatatom 521 409 5 0 0 0 - - -, f 5;
#X obj 559 383 int;
#X floatatom 712 339 10 0 0 0 - - -, f 10;
#X obj 559 598 +~;
#X msg 559 472 \$1 40;
#X text 691 656 s3g_2016;
#X obj 264 172 f 12;
#N canvas 0 22 898 618 signalSwitch 0;
#X obj 414 244 *~;
#X obj 429 215 line~;
#X msg 429 193 \$1 40;
#X obj 429 170 tgl 15 0 empty empty empty 17 7 0 10 -262144 -1 -1 1
1;
#X obj 269 78 inlet~;
#X obj 394 80 inlet~;
#X obj 280 240 *~;
#X obj 295 211 line~;
#X msg 295 189 \$1 40;
#X obj 295 166 tgl 15 0 empty empty empty 17 7 0 10 -262144 -1 -1 0
1;
#X obj 490 80 inlet;
#X floatatom 360 150 5 0 0 0 - - -, f 5;
#X obj 372 227 - 1;
#X obj 360 171 t b f;
#X obj 359 199 f 1;
#X obj 325 407 outlet~;
#X connect 0 0 15 0;
#X connect 1 0 0 1;
#X connect 2 0 1 0;
#X connect 3 0 2 0;
#X connect 4 0 6 0;
#X connect 5 0 0 0;
#X connect 6 0 15 0;
#X connect 7 0 6 1;
#X connect 8 0 7 0;
#X connect 9 0 8 0;
#X connect 10 0 11 0;
#X connect 11 0 13 0;
#X connect 11 0 9 0;
#X connect 12 0 3 0;
#X connect 13 0 14 0;
#X connect 13 1 12 1;
#X connect 14 0 12 0;
#X restore 559 569 pd signalSwitch;
#X obj 200 362 tgl 20 0 empty empty >freq -4 -9 0 10 -262144 -1 -1
0 1;
#X msg 56 508 0;
#X obj 39 0 inlet~;
#N canvas 0 22 914 697 wave_select 0;
#X obj 117 21 inlet;
#X obj 122 605 outlet;
#X obj 265 71 select 0 1 2 3;
#X obj 283 606 outlet;
#X obj 477 611 outlet;
#X obj 678 603 outlet;
#X obj 116 155 t b b b b;
#X msg 159 211 0;
#X msg 202 211 0;
#X msg 117 211 0;
#X msg 244 211 1;
#X obj 300 157 t b b b b;
#X msg 343 213 0;
#X msg 301 213 0;
#X msg 386 213 1;
#X msg 428 213 0;
#X obj 477 157 t b b b b;
#X msg 478 213 0;
#X msg 605 213 0;
#X msg 520 213 1;
#X msg 563 213 0;
#X obj 655 157 t b b b b;
#X msg 783 213 0;
#X msg 741 213 0;
#X msg 656 213 1;
#X msg 698 213 0;
#X connect 0 0 2 0;
#X connect 2 0 6 0;
#X connect 2 1 11 0;
#X connect 2 2 16 0;
#X connect 2 3 21 0;
#X connect 6 0 9 0;
#X connect 6 1 7 0;
#X connect 6 2 8 0;
#X connect 6 3 10 0;
#X connect 7 0 3 0;
#X connect 8 0 4 0;
#X connect 9 0 1 0;
#X connect 10 0 5 0;
#X connect 11 0 13 0;
#X connect 11 1 12 0;
#X connect 11 2 14 0;
#X connect 11 3 15 0;
#X connect 12 0 3 0;
#X connect 13 0 1 0;
#X connect 14 0 4 0;
#X connect 15 0 5 0;
#X connect 16 0 17 0;
#X connect 16 1 19 0;
#X connect 16 2 20 0;
#X connect 16 3 18 0;
#X connect 17 0 1 0;
#X connect 18 0 5 0;
#X connect 19 0 3 0;
#X connect 20 0 4 0;
#X connect 21 0 24 0;
#X connect 21 1 25 0;
#X connect 21 2 23 0;
#X connect 21 3 22 0;
#X connect 22 0 5 0;
#X connect 23 0 4 0;
#X connect 24 0 1 0;
#X connect 25 0 3 0;
#X restore 924 627 pd wave_select;
#N canvas 0 22 771 392 wave_gate 0;
#X obj 110 167 *~ 0;
#X obj 147 82 tgl 15 0 empty empty empty 17 7 0 10 -262144 -1 -1 1
1;
#X obj 147 136 line;
#X msg 147 106 \$1 30;
#X obj 110 220 outlet~;
#X obj 109 36 inlet~;
#X obj 180 36 inlet;
#X connect 0 0 4 0;
#X connect 1 0 3 0;
#X connect 2 0 0 1;
#X connect 3 0 2 0;
#X connect 5 0 0 0;
#X connect 6 0 1 0;
#X restore 314 726 pd wave_gate;
#N canvas 0 22 771 392 wave_gate 0;
#X obj 110 167 *~ 0;
#X obj 147 82 tgl 15 0 empty empty empty 17 7 0 10 -262144 -1 -1 0
1;
#X obj 147 136 line;
#X msg 147 106 \$1 30;
#X obj 110 220 outlet~;
#X obj 109 36 inlet~;
#X obj 180 36 inlet;
#X connect 0 0 4 0;
#X connect 1 0 3 0;
#X connect 2 0 0 1;
#X connect 3 0 2 0;
#X connect 5 0 0 0;
#X connect 6 0 1 0;
#X restore 393 726 pd wave_gate;
#N canvas 0 22 771 392 wave_gate 0;
#X obj 110 167 *~ 0;
#X obj 147 82 tgl 15 0 empty empty empty 17 7 0 10 -262144 -1 -1 0
1;
#X obj 147 136 line;
#X msg 147 106 \$1 30;
#X obj 110 220 outlet~;
#X obj 109 36 inlet~;
#X obj 180 36 inlet;
#X connect 0 0 4 0;
#X connect 1 0 3 0;
#X connect 2 0 0 1;
#X connect 3 0 2 0;
#X connect 5 0 0 0;
#X connect 6 0 1 0;
#X restore 472 726 pd wave_gate;
#N canvas 0 22 771 392 wave_gate 0;
#X obj 110 167 *~ 0;
#X obj 147 82 tgl 15 0 empty empty empty 17 7 0 10 -262144 -1 -1 0
1;
#X obj 147 136 line;
#X msg 147 106 \$1 30;
#X obj 110 220 outlet~;
#X obj 109 36 inlet~;
#X obj 180 36 inlet;
#X connect 0 0 4 0;
#X connect 1 0 3 0;
#X connect 2 0 0 1;
#X connect 3 0 2 0;
#X connect 5 0 0 0;
#X connect 6 0 1 0;
#X restore 569 726 pd wave_gate;
#X obj 171 232 vradio 20 1 0 4 empty empty empty 0 -8 0 10 -262144
-1 -1 3;
#X obj 109 142 vradio 20 1 0 12 empty empty range 0 -8 0 10 -262144
-1 -1 3;
#X obj 167 45 route /freq /phase /range;
#X text 105 385 lfo >;
#X text 108 112 >freq;
#X obj 559 435 * 0.001;
#X obj 626 119 f 12;
#X obj 436 775 outlet~;
#X text 194 233 sq;
#X text 194 254 tr;
#X text 194 274 sw;
#X text 194 295 sn;
#X msg 93 508 3;
#X connect 0 0 47 0;
#X connect 1 0 2 0;
#X connect 1 0 38 0;
#X connect 1 0 57 0;
#X connect 2 0 3 0;
#X connect 4 0 41 0;
#X connect 5 0 4 1;
#X connect 5 0 20 1;
#X connect 5 0 21 1;
#X connect 5 0 22 1;
#X connect 6 0 36 1;
#X connect 7 0 5 0;
#X connect 8 0 7 0;
#X connect 9 0 47 0;
#X connect 10 0 15 0;
#X connect 11 0 10 0;
#X connect 12 0 50 0;
#X connect 13 0 30 0;
#X connect 14 0 15 0;
#X connect 14 1 13 1;
#X connect 15 0 13 0;
#X connect 16 0 14 0;
#X connect 17 0 19 0;
#X connect 18 0 11 0;
#X connect 19 0 16 0;
#X connect 20 0 43 0;
#X connect 21 0 44 0;
#X connect 22 0 42 0;
#X connect 23 0 25 0;
#X connect 24 0 17 0;
#X connect 25 0 51 0;
#X connect 25 1 24 1;
#X connect 26 0 28 0;
#X connect 27 0 46 0;
#X connect 28 0 35 0;
#X connect 28 1 27 1;
#X connect 30 0 29 0;
#X connect 30 0 12 0;
#X connect 32 0 4 0;
#X connect 32 0 22 0;
#X connect 32 0 20 0;
#X connect 32 0 21 0;
#X connect 33 0 6 0;
#X connect 35 0 27 0;
#X connect 36 0 32 0;
#X connect 37 0 36 2;
#X connect 38 0 37 0;
#X connect 39 0 36 0;
#X connect 40 0 41 1;
#X connect 40 1 42 1;
#X connect 40 2 43 1;
#X connect 40 3 44 1;
#X connect 41 0 52 0;
#X connect 42 0 52 0;
#X connect 43 0 52 0;
#X connect 44 0 52 0;
#X connect 45 0 40 0;
#X connect 46 0 23 0;
#X connect 47 0 18 0;
#X connect 47 1 5 0;
#X connect 47 2 26 0;
#X connect 50 0 33 0;
#X connect 50 0 31 0;
#X connect 51 0 24 0;
#X connect 57 0 45 0;
#X coords 0 -1 1 1 130 300 1 100 100;
