#N canvas 438 268 702 502 10;
#X floatatom 35 233 10 0 0 0 - - -, f 10;
#X obj 240 390 outlet~;
#X obj 35 298 line~;
#X obj 35 262 pack 0 20;
#X floatatom 106 150 8 0 0 1 ramp - -, f 8;
#X obj 110 130 hsl 80 15 0 1 0 0 empty empty empty -2 -8 0 10 -262144
-66577 -99865 0 1;
#X obj 429 7 inlet;
#X obj 240 350 *~;
#X obj 285 10 inlet~;
#X obj 389 394 outlet;
#X obj 478 8 r \$1;
#X obj 116 179 cnv 15 75 25 empty empty empty 20 12 0 14 -262130 -66577
0;
#X text 122 181 [s3g 2014];
#X obj 389 309 line;
#X obj 429 35 route /vol /ramp;
#X obj 293 389 outlet~;
#X obj 293 349 *~;
#X obj 338 9 inlet~;
#X connect 0 0 3 0;
#X connect 2 0 7 1;
#X connect 2 0 16 1;
#X connect 3 0 2 0;
#X connect 3 0 13 0;
#X connect 4 0 3 1;
#X connect 5 0 0 0;
#X connect 6 0 14 0;
#X connect 7 0 1 0;
#X connect 8 0 7 0;
#X connect 10 0 14 0;
#X connect 13 0 9 0;
#X connect 14 0 5 0;
#X connect 14 1 4 0;
#X connect 16 0 15 0;
#X connect 17 0 16 0;
#X coords 0 -1 1 1 100 75 1 100 100;
