#N canvas 61 50 1651 831 10;
#X obj 100 100 tgl 15 0 it1 ot1 empty 17 7 0 10 -262144 -1 -1 1 1;
#X obj 115 100 tgl 15 0 it2 ot2 empty 17 7 0 10 -262144 -1 -1 0 1;
#X obj 130 100 tgl 15 0 it3 ot3 empty 17 7 0 10 -262144 -1 -1 0 1;
#X obj 145 100 tgl 15 0 it4 ot4 empty 17 7 0 10 -262144 -1 -1 1 1;
#X obj 160 100 tgl 15 0 it5 ot5 empty 17 7 0 10 -262144 -1 -1 0 1;
#X obj 175 100 tgl 15 0 it6 ot6 empty 17 7 0 10 -262144 -1 -1 0 1;
#X obj 100 115 tgl 15 0 it7 ot7 empty 17 7 0 10 -262144 -1 -1 0 1;
#X obj 115 115 tgl 15 0 it8 ot8 empty 17 7 0 10 -262144 -1 -1 0 1;
#X obj 130 115 tgl 15 0 it9 ot9 empty 17 7 0 10 -262144 -1 -1 1 1;
#X obj 145 115 tgl 15 0 it10 ot10 empty 17 7 0 10 -262144 -1 -1 0 1
;
#X obj 160 115 tgl 15 0 it11 ot11 empty 17 7 0 10 -262144 -1 -1 0 1
;
#X obj 175 115 tgl 15 0 it12 ot12 empty 17 7 0 10 -262144 -1 -1 0 1
;
#X obj 155 421 moses 1, f 13;
#X msg 230 462 connect;
#X msg 155 462 disconnect;
#X msg 47 325 0 0;
#X msg 281 325 0 1;
#X msg 126 325 2 0;
#X msg 360 325 2 1;
#X msg 204 325 4 0;
#X msg 438 325 4 1;
#X obj 155 509 list append, f 93;
#X obj 20 295 t f f;
#X obj 155 655 list trim;
#X obj 254 295 t f f;
#X obj 60 295 t f f;
#X obj 294 295 t f f;
#X obj 99 295 t f f;
#X obj 333 295 t f f;
#X obj 138 295 t f f;
#X obj 372 295 t f f;
#X obj 177 295 t f f;
#X obj 411 295 t f f;
#X obj 216 295 t f f;
#X obj 450 295 t f f;
#X msg 322 325 1 1;
#X msg 87 325 1 0;
#X msg 165 325 3 0;
#X msg 399 325 3 1;
#X msg 243 325 5 0;
#X msg 477 325 5 1;
#X obj 155 684 outlet;
#X obj 100 130 tgl 15 0 it13 ot13 empty 17 7 0 10 -262144 -1 -1 0 1
;
#X obj 115 130 tgl 15 0 it14 ot14 empty 17 7 0 10 -262144 -1 -1 0 1
;
#X obj 130 130 tgl 15 0 it15 ot15 empty 17 7 0 10 -262144 -1 -1 0 1
;
#X obj 145 130 tgl 15 0 it16 ot16 empty 17 7 0 10 -262144 -1 -1 0 1
;
#X obj 160 130 tgl 15 0 it17 ot17 empty 17 7 0 10 -262144 -1 -1 0 1
;
#X obj 175 130 tgl 15 0 it18 ot18 empty 17 7 0 10 -262144 -1 -1 0 1
;
#X obj 100 145 tgl 15 0 it19 ot19 empty 17 7 0 10 -262144 -1 -1 0 1
;
#X obj 115 145 tgl 15 0 it20 ot20 empty 17 7 0 10 -262144 -1 -1 0 1
;
#X obj 130 145 tgl 15 0 it21 ot21 empty 17 7 0 10 -262144 -1 -1 0 1
;
#X obj 145 145 tgl 15 0 it22 ot22 empty 17 7 0 10 -262144 -1 -1 0 1
;
#X obj 160 145 tgl 15 0 it23 ot23 empty 17 7 0 10 -262144 -1 -1 0 1
;
#X obj 175 145 tgl 15 0 it24 ot24 empty 17 7 0 10 -262144 -1 -1 0 1
;
#X obj 489 295 t f f;
#X obj 723 295 t f f;
#X obj 529 295 t f f;
#X obj 763 295 t f f;
#X obj 568 295 t f f;
#X obj 802 295 t f f;
#X obj 607 295 t f f;
#X obj 841 295 t f f;
#X obj 646 295 t f f;
#X obj 880 295 t f f;
#X obj 685 295 t f f;
#X obj 919 295 t f f;
#X obj 100 160 tgl 15 0 it25 ot25 empty 17 7 0 10 -262144 -1 -1 0 1
;
#X obj 115 160 tgl 15 0 it26 ot26 empty 17 7 0 10 -262144 -1 -1 0 1
;
#X obj 130 160 tgl 15 0 it27 ot27 empty 17 7 0 10 -262144 -1 -1 0 1
;
#X obj 145 160 tgl 15 0 it28 ot28 empty 17 7 0 10 -262144 -1 -1 0 1
;
#X obj 160 160 tgl 15 0 it29 ot29 empty 17 7 0 10 -262144 -1 -1 0 1
;
#X obj 175 160 tgl 15 0 it30 ot30 empty 17 7 0 10 -262144 -1 -1 0 1
;
#X obj 100 175 tgl 15 0 it31 ot31 empty 17 7 0 10 -262144 -1 -1 0 1
;
#X obj 115 175 tgl 15 0 it32 ot32 empty 17 7 0 10 -262144 -1 -1 0 1
;
#X obj 130 175 tgl 15 0 it33 ot33 empty 17 7 0 10 -262144 -1 -1 0 1
;
#X obj 145 175 tgl 15 0 it34 ot34 empty 17 7 0 10 -262144 -1 -1 0 1
;
#X obj 160 175 tgl 15 0 it35 ot35 empty 17 7 0 10 -262144 -1 -1 0 1
;
#X obj 175 175 tgl 15 0 it36 ot36 empty 17 7 0 10 -262144 -1 -1 0 1
;
#X obj 958 295 t f f;
#X obj 1192 295 t f f;
#X obj 998 295 t f f;
#X obj 1232 295 t f f;
#X obj 1037 295 t f f;
#X obj 1271 295 t f f;
#X obj 1076 295 t f f;
#X obj 1310 295 t f f;
#X obj 1115 295 t f f;
#X obj 1349 295 t f f;
#X obj 1154 295 t f f;
#X obj 1388 295 t f f;
#X msg 651 385 0 2;
#X msg 691 385 1 2;
#X msg 730 385 2 2;
#X msg 769 385 3 2;
#X msg 808 385 4 2;
#X msg 847 385 5 2;
#X msg 885 385 0 3;
#X msg 925 385 1 3;
#X msg 964 385 2 3;
#X msg 1003 385 3 3;
#X msg 1042 385 4 3;
#X msg 1081 385 5 3;
#X msg 1120 385 0 4;
#X msg 1160 385 1 4;
#X msg 1199 385 2 4;
#X msg 1238 385 3 4;
#X msg 1277 385 4 4;
#X msg 1316 385 5 4;
#X msg 1354 385 0 5;
#X msg 1395 385 1 5;
#X msg 1433 385 2 5;
#X msg 1472 385 3 5;
#X msg 1511 385 4 5;
#X msg 1550 385 5 5;
#X text 836 145 for use with matrix~ from cyclone package 6x6;
#X obj -168 -88 inlet;
#X obj -168 -34 route /11 /12 /13 /14 /15 /16;
#X obj 3 -11 route /21 /22 /23 /24 /25 /26;
#X obj 174 13 route /31 /32 /33 /34 /35 /36;
#X obj 345 36 route /41 /42 /43 /44 /45 /46;
#X obj 515 59 route /51 /52 /53 /54 /55 /56;
#X obj 686 83 route /61 /62 /63 /64 /65 /66;
#X obj -125 -87 r \$1;
#X connect 0 0 22 0;
#X connect 1 0 25 0;
#X connect 2 0 27 0;
#X connect 3 0 29 0;
#X connect 4 0 31 0;
#X connect 5 0 33 0;
#X connect 6 0 24 0;
#X connect 7 0 26 0;
#X connect 8 0 28 0;
#X connect 9 0 30 0;
#X connect 10 0 32 0;
#X connect 11 0 34 0;
#X connect 12 0 14 0;
#X connect 12 1 13 0;
#X connect 13 0 21 0;
#X connect 14 0 21 0;
#X connect 15 0 21 1;
#X connect 16 0 21 1;
#X connect 17 0 21 1;
#X connect 18 0 21 1;
#X connect 19 0 21 1;
#X connect 20 0 21 1;
#X connect 21 0 23 0;
#X connect 22 0 12 0;
#X connect 22 1 15 0;
#X connect 23 0 41 0;
#X connect 24 0 12 0;
#X connect 24 1 16 0;
#X connect 25 0 12 0;
#X connect 25 1 36 0;
#X connect 26 0 12 0;
#X connect 26 1 35 0;
#X connect 27 0 12 0;
#X connect 27 1 17 0;
#X connect 28 0 12 0;
#X connect 28 1 18 0;
#X connect 29 0 12 0;
#X connect 29 1 37 0;
#X connect 30 0 12 0;
#X connect 30 1 38 0;
#X connect 31 0 12 0;
#X connect 31 1 19 0;
#X connect 32 0 12 0;
#X connect 32 1 20 0;
#X connect 33 0 12 0;
#X connect 33 1 39 0;
#X connect 34 0 12 0;
#X connect 34 1 40 0;
#X connect 35 0 21 1;
#X connect 36 0 21 1;
#X connect 37 0 21 1;
#X connect 38 0 21 1;
#X connect 39 0 21 1;
#X connect 40 0 21 1;
#X connect 42 0 54 0;
#X connect 43 0 56 0;
#X connect 44 0 58 0;
#X connect 45 0 60 0;
#X connect 46 0 62 0;
#X connect 47 0 64 0;
#X connect 48 0 55 0;
#X connect 49 0 57 0;
#X connect 50 0 59 0;
#X connect 51 0 61 0;
#X connect 52 0 63 0;
#X connect 53 0 65 0;
#X connect 54 0 12 0;
#X connect 54 1 90 0;
#X connect 55 0 12 0;
#X connect 55 1 96 0;
#X connect 56 0 12 0;
#X connect 56 1 91 0;
#X connect 57 0 12 0;
#X connect 57 1 97 0;
#X connect 58 0 12 0;
#X connect 58 1 92 0;
#X connect 59 0 12 0;
#X connect 59 1 98 0;
#X connect 60 0 12 0;
#X connect 60 1 93 0;
#X connect 61 0 12 0;
#X connect 61 1 99 0;
#X connect 62 0 12 0;
#X connect 62 1 94 0;
#X connect 63 0 12 0;
#X connect 63 1 100 0;
#X connect 64 0 12 0;
#X connect 64 1 95 0;
#X connect 65 0 12 0;
#X connect 65 1 101 0;
#X connect 66 0 78 0;
#X connect 67 0 80 0;
#X connect 68 0 82 0;
#X connect 69 0 84 0;
#X connect 70 0 86 0;
#X connect 71 0 88 0;
#X connect 72 0 79 0;
#X connect 73 0 81 0;
#X connect 74 0 83 0;
#X connect 75 0 85 0;
#X connect 76 0 87 0;
#X connect 77 0 89 0;
#X connect 78 0 12 0;
#X connect 78 1 102 0;
#X connect 79 0 12 0;
#X connect 79 1 108 0;
#X connect 80 0 12 0;
#X connect 80 1 103 0;
#X connect 81 0 12 0;
#X connect 81 1 109 0;
#X connect 82 0 12 0;
#X connect 82 1 104 0;
#X connect 83 0 12 0;
#X connect 83 1 110 0;
#X connect 84 0 12 0;
#X connect 84 1 105 0;
#X connect 85 0 12 0;
#X connect 85 1 111 0;
#X connect 86 0 12 0;
#X connect 86 1 106 0;
#X connect 87 0 12 0;
#X connect 87 1 112 0;
#X connect 88 0 12 0;
#X connect 88 1 107 0;
#X connect 89 0 12 0;
#X connect 89 1 113 0;
#X connect 90 0 21 1;
#X connect 91 0 21 1;
#X connect 92 0 21 1;
#X connect 93 0 21 1;
#X connect 94 0 21 1;
#X connect 95 0 21 1;
#X connect 96 0 21 1;
#X connect 97 0 21 1;
#X connect 98 0 21 1;
#X connect 99 0 21 1;
#X connect 100 0 21 1;
#X connect 101 0 21 1;
#X connect 102 0 21 1;
#X connect 103 0 21 1;
#X connect 104 0 21 1;
#X connect 105 0 21 1;
#X connect 106 0 21 1;
#X connect 107 0 21 1;
#X connect 108 0 21 1;
#X connect 109 0 21 1;
#X connect 110 0 21 1;
#X connect 111 0 21 1;
#X connect 112 0 21 1;
#X connect 113 0 21 1;
#X connect 115 0 116 0;
#X connect 116 0 0 0;
#X connect 116 1 1 0;
#X connect 116 2 2 0;
#X connect 116 3 3 0;
#X connect 116 4 4 0;
#X connect 116 5 5 0;
#X connect 116 6 117 0;
#X connect 117 0 6 0;
#X connect 117 1 7 0;
#X connect 117 2 8 0;
#X connect 117 3 9 0;
#X connect 117 4 10 0;
#X connect 117 5 11 0;
#X connect 117 6 118 0;
#X connect 118 0 42 0;
#X connect 118 1 43 0;
#X connect 118 2 44 0;
#X connect 118 3 45 0;
#X connect 118 4 46 0;
#X connect 118 5 47 0;
#X connect 118 6 119 0;
#X connect 119 0 48 0;
#X connect 119 1 49 0;
#X connect 119 2 50 0;
#X connect 119 3 51 0;
#X connect 119 4 52 0;
#X connect 119 5 53 0;
#X connect 119 6 120 0;
#X connect 120 0 66 0;
#X connect 120 1 67 0;
#X connect 120 2 68 0;
#X connect 120 3 69 0;
#X connect 120 4 70 0;
#X connect 120 5 71 0;
#X connect 120 6 121 0;
#X connect 121 0 72 0;
#X connect 121 1 73 0;
#X connect 121 2 74 0;
#X connect 121 3 75 0;
#X connect 121 4 76 0;
#X connect 121 5 77 0;
#X connect 122 0 116 0;
#X coords 0 -1 1 1 90 90 1 100 100;
