#N canvas 337 102 883 833 10;
#X obj 263 76 inlet~;
#X obj 449 32 inlet;
#X obj 263 736 outlet~;
#X obj 388 734 outlet~;
#X obj 489 32 r \$1;
#X obj 650 742 outlet;
#X obj 571 328 sin;
#X obj 571 262 * 2;
#X obj 571 284 / 4;
#X obj 571 306 * 3.14159;
#X obj 571 353 pack f 20;
#X obj 650 637 line;
#X obj 530 381 line~;
#X obj 263 446 *~;
#X obj 105 252 vsl 70 140 0 1 0 0 empty empty empty 0 -9 0 10 -262144
-1 -1 13900 1;
#X obj 108 171 hsl 65 15 0 1 0 0 empty empty mid -2 -8 0 10 -262144
-1 -1 3900 1;
#X obj 108 206 hsl 65 15 0 1 0 0 empty empty lo -2 -8 0 10 -262144
-1 -1 4600 1;
#X obj 105 229 tgl 15 0 empty empty mute 20 5 0 10 -262144 -1 -1 0
1;
#X obj 108 137 hsl 65 15 0 1 0 0 empty empty hi -2 -8 0 10 -262144
-1 -1 4500 1;
#X obj 10 408 select 1;
#X obj 105 497 f;
#X msg 10 443 0;
#X obj 105 561 f;
#X text 706 742 for linking control;
#X obj 124 15 loadbang;
#X msg 124 72 0.5;
#X msg 155 72 0;
#X msg 185 72 0.75;
#X obj 124 37 t b b b;
#X obj 449 78 route /pan /vol /ramp /lo /mid /hi /mute;
#X obj 55 443 t b;
#X obj 105 531 spigot;
#X obj 138 503 tgl 15 0 empty empty empty 17 7 0 10 -262144 -1 -1 1
1;
#X obj 10 382 t f f;
#N canvas 543 735 450 300 !- 0;
#X obj 102 31 inlet;
#X obj 134 250 outlet;
#X floatatom 102 67 5 0 0 0 - - -, f 5;
#X obj 134 214 - 1;
#X obj 102 116 trigger b f;
#X obj 92 168 f 1;
#X connect 0 0 2 0;
#X connect 2 0 4 0;
#X connect 3 0 1 0;
#X connect 4 0 5 0;
#X connect 4 1 3 1;
#X connect 5 0 3 0;
#X restore 138 470 pd !-;
#N canvas 274 208 1223 721 eq_biquad_______ 0;
#X obj 429 488 *~;
#X obj 459 488 *~;
#X obj 389 488 *~;
#X obj 389 627 outlet~;
#X obj 389 555 +~;
#X obj 7 113 biquad~ 1.86972 -0.872325 0.000650245 0.00130049 0.000650245
;
#X obj 7 133 biquad~ 1.86972 -0.872325 0.000650245 0.00130049 0.000650245
;
#X obj 7 153 biquad~ 1.86972 -0.872325 0.000650245 0.00130049 0.000650245
;
#X obj 208 240 biquad~ 1.36591 -0.385279 0.307361 0 -0.307361;
#X obj 208 260 biquad~ 1.36591 -0.385279 0.307361 0 -0.307361;
#X obj 208 280 biquad~ 1.36591 -0.385279 0.307361 0 -0.307361;
#X obj 719 380 biquad~ 1.63386 -0.729864 0.840931 -1.68186 0.840931
;
#X obj 719 400 biquad~ 1.63386 -0.729864 0.840931 -1.68186 0.840931
;
#X obj 771 50 inlet;
#X obj 771 127 pack f 20;
#X obj 771 153 line~;
#X obj 834 50 inlet;
#X obj 834 127 pack f 20;
#X obj 834 153 line~;
#X obj 898 50 inlet;
#X obj 898 127 pack f 20;
#X obj 898 153 line~;
#X obj 7 45 inlet~;
#X text 389 44 biquad~ stuff adapted from a Derek Holzer patch;
#X obj 7 174 biquad~ 1.86972 -0.872325 0.000650245 0.00130049 0.000650245
;
#X text 126 92 lo x4;
#X text 343 220 mid x3;
#X text 859 358 hi x2;
#X connect 0 0 4 1;
#X connect 1 0 4 1;
#X connect 2 0 4 0;
#X connect 4 0 3 0;
#X connect 5 0 6 0;
#X connect 6 0 7 0;
#X connect 7 0 24 0;
#X connect 8 0 9 0;
#X connect 9 0 10 0;
#X connect 10 0 0 0;
#X connect 11 0 12 0;
#X connect 12 0 1 0;
#X connect 13 0 14 0;
#X connect 14 0 15 0;
#X connect 15 0 2 1;
#X connect 16 0 17 0;
#X connect 17 0 18 0;
#X connect 18 0 0 1;
#X connect 19 0 20 0;
#X connect 20 0 21 0;
#X connect 21 0 1 1;
#X connect 22 0 5 0;
#X connect 22 0 8 0;
#X connect 22 0 11 0;
#X connect 24 0 2 0;
#X restore 263 272 pd eq_biquad_______;
#X obj 339 75 inlet~;
#N canvas 274 208 1223 721 eq_biquad_______ 0;
#X obj 429 488 *~;
#X obj 459 488 *~;
#X obj 389 488 *~;
#X obj 389 627 outlet~;
#X obj 389 555 +~;
#X obj 7 113 biquad~ 1.86972 -0.872325 0.000650245 0.00130049 0.000650245
;
#X obj 7 133 biquad~ 1.86972 -0.872325 0.000650245 0.00130049 0.000650245
;
#X obj 7 153 biquad~ 1.86972 -0.872325 0.000650245 0.00130049 0.000650245
;
#X obj 208 240 biquad~ 1.36591 -0.385279 0.307361 0 -0.307361;
#X obj 208 260 biquad~ 1.36591 -0.385279 0.307361 0 -0.307361;
#X obj 208 280 biquad~ 1.36591 -0.385279 0.307361 0 -0.307361;
#X obj 719 380 biquad~ 1.63386 -0.729864 0.840931 -1.68186 0.840931
;
#X obj 719 400 biquad~ 1.63386 -0.729864 0.840931 -1.68186 0.840931
;
#X obj 771 50 inlet;
#X obj 771 127 pack f 20;
#X obj 771 153 line~;
#X obj 834 50 inlet;
#X obj 834 127 pack f 20;
#X obj 834 153 line~;
#X obj 898 50 inlet;
#X obj 898 127 pack f 20;
#X obj 898 153 line~;
#X obj 7 45 inlet~;
#X text 389 44 biquad~ stuff adapted from a Derek Holzer patch;
#X obj 7 174 biquad~ 1.86972 -0.872325 0.000650245 0.00130049 0.000650245
;
#X text 126 92 lo x4;
#X text 343 220 mid x3;
#X text 859 358 hi x2;
#X connect 0 0 4 1;
#X connect 1 0 4 1;
#X connect 2 0 4 0;
#X connect 4 0 3 0;
#X connect 5 0 6 0;
#X connect 6 0 7 0;
#X connect 7 0 24 0;
#X connect 8 0 9 0;
#X connect 9 0 10 0;
#X connect 10 0 0 0;
#X connect 11 0 12 0;
#X connect 12 0 1 0;
#X connect 13 0 14 0;
#X connect 14 0 15 0;
#X connect 15 0 2 1;
#X connect 16 0 17 0;
#X connect 17 0 18 0;
#X connect 18 0 0 1;
#X connect 19 0 20 0;
#X connect 20 0 21 0;
#X connect 21 0 1 1;
#X connect 22 0 5 0;
#X connect 22 0 8 0;
#X connect 22 0 11 0;
#X connect 24 0 2 0;
#X restore 388 272 pd eq_biquad_______;
#X obj 388 448 *~;
#X floatatom 571 238 5 0 0 0 - - -, f 5;
#X connect 0 0 35 0;
#X connect 1 0 29 0;
#X connect 4 0 29 0;
#X connect 6 0 10 0;
#X connect 7 0 8 0;
#X connect 8 0 9 0;
#X connect 9 0 6 0;
#X connect 10 0 11 0;
#X connect 10 0 12 0;
#X connect 11 0 5 0;
#X connect 12 0 13 1;
#X connect 12 0 38 1;
#X connect 13 0 2 0;
#X connect 14 0 20 0;
#X connect 15 0 35 2;
#X connect 15 0 37 2;
#X connect 16 0 35 1;
#X connect 16 0 37 1;
#X connect 17 0 33 0;
#X connect 18 0 35 3;
#X connect 18 0 37 3;
#X connect 19 0 21 0;
#X connect 19 1 30 0;
#X connect 20 0 31 0;
#X connect 21 0 22 0;
#X connect 22 0 39 0;
#X connect 24 0 28 0;
#X connect 25 0 18 0;
#X connect 25 0 15 0;
#X connect 25 0 16 0;
#X connect 26 0 17 0;
#X connect 27 0 14 0;
#X connect 28 0 25 0;
#X connect 28 1 26 0;
#X connect 28 2 27 0;
#X connect 29 1 14 0;
#X connect 29 2 10 1;
#X connect 29 3 16 0;
#X connect 29 4 15 0;
#X connect 29 5 18 0;
#X connect 29 6 17 0;
#X connect 30 0 20 0;
#X connect 31 0 22 0;
#X connect 32 0 31 1;
#X connect 33 0 19 0;
#X connect 33 1 34 0;
#X connect 34 0 32 0;
#X connect 35 0 13 0;
#X connect 36 0 37 0;
#X connect 37 0 38 0;
#X connect 38 0 3 0;
#X connect 39 0 7 0;
#X coords 0 -1 1 1 80 300 1 100 100;
