#N canvas 305 27 929 839 10;
#X obj 516 68 cnv 15 380 80 empty empty empty 20 12 0 14 -262130 -66577
0;
#X obj 77 708 6_ezdac~;
#X msg 200 41 /midi \$1;
#X floatatom 200 18 5 0 0 0 - - -, f 5;
#X obj 77 41 sig~;
#X floatatom 77 18 5 0 0 0 - - -, f 5;
#X obj 77 74 6_osc~ w1;
#X obj 77 384 6_mix~ m1;
#X text 528 72 [6_mix~];
#X text 530 87 .;
#X connect 2 0 6 2;
#X connect 3 0 2 0;
#X connect 4 0 6 0;
#X connect 5 0 4 0;
#X connect 6 0 7 0;
#X connect 6 1 7 1;
#X connect 6 2 7 2;
#X connect 6 3 7 3;
#X connect 7 0 1 0;
#X connect 7 0 1 1;
