#N canvas 130 89 1383 803 10;
#X obj 314 737 outlet~;
#X obj 224 -1 inlet;
#X obj 7 474 loadbang;
#X obj 7 506 f \$0;
#X floatatom 7 531 5 0 0 0 - - -, f 5;
#X obj 314 693 osc~;
#X floatatom 368 260 5 0 0 1 phase - -, f 5;
#X obj 559 499 line~;
#X msg 292 266 0;
#X obj 292 244 loadbang;
#X obj 156 -1 receive \$1;
#X floatatom 559 294 5 0 0 0 - - -, f 5;
#X obj 559 261 * 11;
#X obj 559 407 mtof;
#X obj 559 361 + 0;
#X obj 598 294 t b f;
#X obj 559 338 f;
#X obj 598 273 * 12;
#X floatatom 598 233 5 0 0 0 - - -, f 5;
#X obj 110 142 vradio 20 1 0 12 empty empty range 0 -8 0 10 -262144
-1 -1 9;
#X obj 140 164 vsl 20 215 0 1 0 0 empty empty frequency 0 -9 0 10 -262144
-1 -1 4300 1;
#X obj 598 251 + 1;
#N canvas 0 22 636 583 tri 0;
#X msg 225 136 0;
#X obj 78 179 phasor~;
#X obj 179 179 phasor~;
#X obj 78 219 *~ 2;
#X obj 78 246 -~ 1;
#X obj 78 278 clip~ 0 1;
#X obj 179 219 *~ 2;
#X obj 179 246 -~ 1;
#X obj 179 278 clip~ 0 1;
#X obj 78 353 +~;
#X obj 78 471 outlet~;
#X text 262 134 <- phase synchronization;
#X obj 188 29 inlet;
#X text 354 216 triangle wave;
#X obj 79 29 inlet~;
#X obj 136 136 *~ -1;
#X obj 78 393 expr~ $v1 * 2 - 1;
#X obj 367 28 loadbang;
#X connect 0 0 2 1;
#X connect 0 0 1 1;
#X connect 1 0 3 0;
#X connect 2 0 6 0;
#X connect 3 0 4 0;
#X connect 4 0 5 0;
#X connect 5 0 9 0;
#X connect 6 0 7 0;
#X connect 7 0 8 0;
#X connect 8 0 9 1;
#X connect 9 0 16 0;
#X connect 12 0 2 1;
#X connect 12 0 1 1;
#X connect 14 0 1 0;
#X connect 14 0 15 0;
#X connect 15 0 2 0;
#X connect 16 0 10 0;
#X connect 17 0 0 0;
#X restore 416 693 pd tri;
#N canvas 0 22 450 300 square 0;
#X obj 40 142 outlet~;
#X obj 40 36 inlet~;
#X obj 40 63 phasor~;
#X obj 40 89 expr~ $v1 > 0.5;
#X obj 40 114 expr~ $v1 * 2 - 1;
#X obj 91 36 inlet;
#X connect 1 0 2 0;
#X connect 2 0 3 0;
#X connect 3 0 4 0;
#X connect 4 0 0 0;
#X connect 5 0 2 1;
#X restore 467 693 pd square;
#N canvas 0 22 450 300 saw 0;
#X obj 58 80 phasor~;
#X obj 58 113 expr~ $v1 * 2 - 1;
#X obj 58 155 outlet~;
#X obj 58 37 inlet~;
#X obj 103 37 inlet;
#X connect 0 0 1 0;
#X connect 1 0 2 0;
#X connect 3 0 0 0;
#X connect 4 0 0 1;
#X restore 365 693 pd saw;
#X obj 365 737 outlet~;
#X obj 416 737 outlet~;
#X obj 467 737 outlet~;
#X floatatom 586 132 5 0 0 0 - - -, f 5;
#X obj 598 209 - 1;
#X obj 586 153 t b f;
#X floatatom 360 150 5 0 0 0 - - -, f 5;
#X obj 372 227 - 1;
#X obj 360 171 t b f;
#X floatatom 521 409 5 0 0 0 - - -, f 5;
#X obj 559 383 int;
#X floatatom 712 339 10 0 0 0 - - -, f 10;
#X obj 170 184 vsl 20 195 0 1 0 0 empty empty fm_index 0 -9 0 10 -262144
-1 -1 0 1;
#X obj 83 -1 inlet~;
#X obj 559 598 +~;
#X obj 656 508 *~;
#X obj 671 476 line~;
#X msg 671 443 \$1 40;
#X floatatom 671 409 5 0 0 0 - - -, f 5;
#X msg 559 472 \$1 40;
#X text 691 656 s3g_2016;
#X text 820 474 all control messages come in righmost inlet and are
sorted by route \, normalized to 0 - 1 when possible \; all signals
in left inlets;
#X obj 671 382 *;
#X obj 721 389 t b;
#X obj 645 339 f;
#X obj 156 45 route /freq /phase /range /fmindex /midi;
#X obj 586 180 f 12;
#X obj 359 199 f 12;
#X obj 980 288 - 1;
#X obj 968 232 t b f;
#X obj 967 260 f 12;
#X floatatom 968 30 5 0 0 0 - - -, f 5;
#X obj 1067 134 % 12;
#X floatatom 1067 156 5 0 0 1 pitch_class - -, f 5;
#X obj 968 107 / 12;
#X obj 968 129 - 1;
#X floatatom 968 151 5 0 0 1 register - -, f 5;
#X obj 968 75 t f f;
#X obj 968 181 int;
#X floatatom 968 206 5 0 0 0 - - -, f 5;
#X obj 1067 180 / 11;
#X floatatom 1067 205 5 0 0 0 - - -, f 5;
#X text 822 403 format graph on parent \; 130 x 300 \; gui is 10 clicks
from left edge 20 clicks from bottom \; output label flush with right
pipe gui;
#N canvas 0 22 898 618 signalSwitch 0;
#X obj 414 244 *~;
#X obj 429 215 line~;
#X msg 429 193 \$1 40;
#X obj 429 170 tgl 15 0 empty empty empty 17 7 0 10 -262144 -1 -1 1
1;
#X obj 269 78 inlet~;
#X obj 394 80 inlet~;
#X obj 280 240 *~;
#X obj 295 211 line~;
#X msg 295 189 \$1 40;
#X obj 295 166 tgl 15 0 empty empty empty 17 7 0 10 -262144 -1 -1 0
1;
#X obj 490 80 inlet;
#X floatatom 360 150 5 0 0 0 - - -, f 5;
#X obj 372 227 - 1;
#X obj 360 171 t b f;
#X obj 359 199 f 1;
#X obj 325 407 outlet~;
#X connect 0 0 15 0;
#X connect 1 0 0 1;
#X connect 2 0 1 0;
#X connect 3 0 2 0;
#X connect 4 0 6 0;
#X connect 5 0 0 0;
#X connect 6 0 15 0;
#X connect 7 0 6 1;
#X connect 8 0 7 0;
#X connect 9 0 8 0;
#X connect 10 0 11 0;
#X connect 11 0 13 0;
#X connect 11 0 9 0;
#X connect 12 0 3 0;
#X connect 13 0 14 0;
#X connect 13 1 12 1;
#X connect 14 0 12 0;
#X restore 516 559 pd signalSwitch;
#X obj 200 362 tgl 20 0 empty empty >freq -4 -9 0 10 -262144 -1 -1
0 1;
#X msg 56 508 0;
#X obj 39 0 inlet~;
#X text 105 385 sn > sw > tr > sq >;
#X text 108 112 >freq >fm;
#X connect 1 0 50 0;
#X connect 2 0 3 0;
#X connect 2 0 70 0;
#X connect 3 0 4 0;
#X connect 5 0 0 0;
#X connect 6 0 5 1;
#X connect 6 0 22 1;
#X connect 6 0 23 1;
#X connect 6 0 24 1;
#X connect 7 0 68 1;
#X connect 8 0 6 0;
#X connect 9 0 8 0;
#X connect 10 0 50 0;
#X connect 11 0 16 0;
#X connect 12 0 11 0;
#X connect 13 0 36 0;
#X connect 13 0 44 0;
#X connect 14 0 35 0;
#X connect 15 0 16 0;
#X connect 15 1 14 1;
#X connect 16 0 14 0;
#X connect 17 0 15 0;
#X connect 18 0 21 0;
#X connect 19 0 28 0;
#X connect 20 0 12 0;
#X connect 21 0 17 0;
#X connect 22 0 26 0;
#X connect 23 0 27 0;
#X connect 24 0 25 0;
#X connect 28 0 30 0;
#X connect 29 0 18 0;
#X connect 30 0 51 0;
#X connect 30 1 29 1;
#X connect 31 0 33 0;
#X connect 32 0 19 0;
#X connect 33 0 52 0;
#X connect 33 1 32 1;
#X connect 35 0 34 0;
#X connect 35 0 13 0;
#X connect 36 0 47 1;
#X connect 36 0 48 0;
#X connect 37 0 49 0;
#X connect 38 0 40 0;
#X connect 39 0 5 0;
#X connect 39 0 24 0;
#X connect 39 0 22 0;
#X connect 39 0 23 0;
#X connect 40 0 39 1;
#X connect 41 0 40 1;
#X connect 42 0 41 0;
#X connect 43 0 42 0;
#X connect 44 0 7 0;
#X connect 47 0 43 0;
#X connect 48 0 49 0;
#X connect 49 0 47 0;
#X connect 50 0 20 0;
#X connect 50 1 6 0;
#X connect 50 2 31 0;
#X connect 50 3 37 0;
#X connect 50 4 56 0;
#X connect 51 0 29 0;
#X connect 52 0 32 0;
#X connect 53 0 19 0;
#X connect 54 0 55 0;
#X connect 54 1 53 1;
#X connect 55 0 53 0;
#X connect 56 0 62 0;
#X connect 57 0 58 0;
#X connect 58 0 65 0;
#X connect 59 0 60 0;
#X connect 60 0 61 0;
#X connect 61 0 63 0;
#X connect 62 0 59 0;
#X connect 62 1 57 0;
#X connect 63 0 64 0;
#X connect 64 0 54 0;
#X connect 65 0 66 0;
#X connect 66 0 20 0;
#X connect 68 0 39 0;
#X connect 69 0 68 2;
#X connect 70 0 69 0;
#X connect 71 0 68 0;
#X coords 0 -1 1 1 130 300 1 100 100;
