#N canvas 18 57 1676 989 10;
#X obj 953 481 sig~;
#X floatatom 953 461 5 0 0 0 - - -, f 5;
#X obj 953 431 clip -0.99 0.99;
#X obj 395 138 hsl 128 15 0 1 0 0 empty empty slope -2 -8 0 10 -262144
-1 -1 12700 1;
#X obj 953 390 * 2;
#X obj 953 411 - 1;
#X obj 1464 485 sig~;
#X floatatom 1464 465 5 0 0 0 - - -, f 5;
#X obj 1464 435 clip -0.99 0.99;
#X obj 395 199 hsl 128 15 0 1 0 0 empty empty slope -2 -8 0 10 -262144
-1 -1 0 1;
#X obj 1464 394 * 2;
#X obj 1464 415 - 1;
#N canvas 421 261 1074 727 oscillator_triangle 0;
#X obj 74 29 inlet~;
#X obj 280 29 inlet~;
#X obj 74 55 phasor~;
#X obj 125 697 outlet~;
#X obj 280 62 +~ 1;
#X obj 280 95 /~ 2;
#X obj 233 363 *~ -1;
#X obj 233 390 +~ 1;
#X obj 125 522 *~;
#X obj 154 452 *~;
#X obj 125 557 min~;
#X obj 154 522 +~;
#X obj 154 485 *~ -1;
#X obj 125 592 *~;
#X obj 125 627 *~ 2;
#X obj 299 362 expr~ pow($v1*($v1-1) \, -1);
#X obj 125 662 +~ 1;
#X connect 0 0 2 0;
#X connect 1 0 4 0;
#X connect 2 0 8 0;
#X connect 2 0 9 0;
#X connect 4 0 5 0;
#X connect 5 0 8 1;
#X connect 5 0 6 0;
#X connect 5 0 15 0;
#X connect 6 0 7 0;
#X connect 7 0 9 1;
#X connect 7 0 11 1;
#X connect 8 0 10 0;
#X connect 9 0 12 0;
#X connect 10 0 13 0;
#X connect 11 0 10 1;
#X connect 12 0 11 0;
#X connect 13 0 14 0;
#X connect 14 0 16 0;
#X connect 15 0 13 1;
#X connect 16 0 3 0;
#X restore 824 553 pd oscillator_triangle;
#N canvas 421 261 1074 727 oscillator_triangle 0;
#X obj 74 29 inlet~;
#X obj 280 29 inlet~;
#X obj 74 55 phasor~;
#X obj 125 697 outlet~;
#X obj 280 62 +~ 1;
#X obj 280 95 /~ 2;
#X obj 233 363 *~ -1;
#X obj 233 390 +~ 1;
#X obj 125 522 *~;
#X obj 154 452 *~;
#X obj 125 557 min~;
#X obj 154 522 +~;
#X obj 154 485 *~ -1;
#X obj 125 592 *~;
#X obj 125 627 *~ 2;
#X obj 299 362 expr~ pow($v1*($v1-1) \, -1);
#X obj 125 662 +~ 1;
#X connect 0 0 2 0;
#X connect 1 0 4 0;
#X connect 2 0 8 0;
#X connect 2 0 9 0;
#X connect 4 0 5 0;
#X connect 5 0 8 1;
#X connect 5 0 6 0;
#X connect 5 0 15 0;
#X connect 6 0 7 0;
#X connect 7 0 9 1;
#X connect 7 0 11 1;
#X connect 8 0 10 0;
#X connect 9 0 12 0;
#X connect 10 0 13 0;
#X connect 11 0 10 1;
#X connect 12 0 11 0;
#X connect 13 0 14 0;
#X connect 14 0 16 0;
#X connect 15 0 13 1;
#X connect 16 0 3 0;
#X restore 1335 557 pd oscillator_triangle;
#N canvas 256 23 460 377 oscillator_pulsewidth 0;
#X obj 144 148 phasor~;
#X obj 144 278 expr~ $v1 * 2 - 1;
#X obj 144 241 expr~ $v1 > $v2;
#X obj 144 69 inlet~;
#X obj 233 69 inlet~;
#X obj 144 333 outlet~;
#X connect 0 0 2 0;
#X connect 1 0 5 0;
#X connect 2 0 1 0;
#X connect 3 0 0 0;
#X connect 4 0 2 1;
#X restore 671 553 pd oscillator_pulsewidth;
#X obj 632 441 sig~;
#X obj 861 481 sig~;
#X floatatom 632 408 5 0 0 0 - - -, f 5;
#X floatatom 861 454 5 0 0 0 - - -, f 5;
#X obj 395 169 hsl 128 15 0 1 0 0 empty empty width -2 -8 0 10 -262144
-1 -1 2200 1;
#N canvas 256 23 460 377 oscillator_pulsewidth 0;
#X obj 144 148 phasor~;
#X obj 144 276 expr~ $v1 * 2 - 1;
#X obj 144 241 expr~ $v1 > $v2;
#X obj 144 69 inlet~;
#X obj 233 69 inlet~;
#X obj 144 333 outlet~;
#X connect 0 0 2 0;
#X connect 1 0 5 0;
#X connect 2 0 1 0;
#X connect 3 0 0 0;
#X connect 4 0 2 1;
#X restore 1182 558 pd oscillator_pulsewidth;
#X obj 1369 482 sig~;
#X floatatom 1369 459 5 0 0 0 - - -, f 5;
#X obj 395 230 hsl 128 15 0 1 0 0 empty empty width -2 -8 0 10 -262144
-1 -1 10000 1;
#N canvas 452 117 438 325 rungler 0;
#N canvas 170 64 450 300 signaltofloat 0;
#X obj 124 136 snapshot~;
#X obj 124 58 inlet~;
#X obj 123 233 outlet;
#X obj 124 179 change;
#X obj 206 59 inlet;
#X connect 0 0 3 0;
#X connect 1 0 0 0;
#X connect 3 0 2 0;
#X connect 4 0 0 0;
#X restore 47 94 pd signaltofloat;
#N canvas 656 135 778 555 signaltobang 0;
#X obj 220 131 snapshot~;
#X obj 220 59 inlet~;
#X obj 220 323 outlet;
#X obj 220 159 > 0;
#X obj 220 186 select 1;
#X obj 299 57 inlet;
#X connect 0 0 3 0;
#X connect 1 0 0 0;
#X connect 3 0 4 0;
#X connect 4 0 2 0;
#X connect 5 0 0 0;
#X restore 273 98 pd signaltobang;
#X obj 273 39 inlet~;
#X obj 47 30 inlet~;
#X obj 47 125 > 0;
#X floatatom 47 149 5 0 0 0 - - -, f 5;
#X obj 47 192 expr ($f1 > 0 && $f2 <= 0) || ($f1 <= 0 && $f2 > 0);
#X text 362 192 XOR;
#N canvas 0 22 954 788 shiftregister 0;
#X text 631 469 reference: Trevor Wilson;
#X text 631 439 https://github.com/wilsontr;
#X obj 250 99 inlet;
#X obj 368 99 inlet;
#X text 299 98 bang;
#X text 417 98 float;
#X obj 418 224 delay 7;
#X obj 418 160 bang;
#X obj 418 192 t b b b b b b b b, f 59;
#X obj 718 224 delay 1;
#X obj 668 224 delay 2;
#X obj 618 224 delay 3;
#X obj 568 224 delay 4;
#X obj 518 224 delay 5;
#X obj 468 224 delay 6;
#X obj 250 528 t b;
#X obj 472 681 / 8;
#X obj 472 713 outlet;
#X floatatom 586 647 5 0 0 0 - - -, f 5;
#X obj 587 714 outlet;
#X obj 192 163 until;
#X msg 192 131 8;
#X obj 192 99 loadbang;
#X obj 418 130 bng 15 250 50 0 empty empty empty 17 7 0 10 -262144
-1 -1;
#N canvas 0 22 450 300 bitsample 0;
#X obj 88 49 inlet;
#X floatatom 108 131 5 0 0 0 - - -, f 5;
#X obj 108 91 f;
#X obj 199 49 inlet;
#X obj 108 208 outlet;
#X obj 108 168 > 0;
#X text 88 11 float;
#X text 199 11 bang;
#X text 108 231 binary (1 or 0);
#X connect 0 0 2 1;
#X connect 1 0 5 0;
#X connect 2 0 1 0;
#X connect 3 0 2 0;
#X connect 5 0 4 0;
#X restore 349 259 pd bitsample;
#N canvas 0 22 450 300 bitsample 0;
#X obj 88 49 inlet;
#X floatatom 108 131 5 0 0 0 - - -, f 5;
#X obj 108 91 f;
#X obj 199 49 inlet;
#X obj 108 208 outlet;
#X obj 108 168 > 0;
#X text 88 11 float;
#X text 199 11 bang;
#X text 108 231 binary (1 or 0);
#X connect 0 0 2 1;
#X connect 1 0 5 0;
#X connect 2 0 1 0;
#X connect 3 0 2 0;
#X connect 5 0 4 0;
#X restore 349 287 pd bitsample;
#N canvas 0 22 450 300 bitsample 0;
#X obj 88 49 inlet;
#X floatatom 108 131 5 0 0 0 - - -, f 5;
#X obj 108 91 f;
#X obj 199 49 inlet;
#X obj 108 208 outlet;
#X obj 108 168 > 0;
#X text 88 11 float;
#X text 199 11 bang;
#X text 108 231 binary (1 or 0);
#X connect 0 0 2 1;
#X connect 1 0 5 0;
#X connect 2 0 1 0;
#X connect 3 0 2 0;
#X connect 5 0 4 0;
#X restore 349 316 pd bitsample;
#N canvas 0 22 450 300 bitsample 0;
#X obj 88 49 inlet;
#X floatatom 108 131 5 0 0 0 - - -, f 5;
#X obj 108 91 f;
#X obj 199 49 inlet;
#X obj 108 208 outlet;
#X obj 108 168 > 0;
#X text 88 11 float;
#X text 199 11 bang;
#X text 108 231 binary (1 or 0);
#X connect 0 0 2 1;
#X connect 1 0 5 0;
#X connect 2 0 1 0;
#X connect 3 0 2 0;
#X connect 5 0 4 0;
#X restore 349 344 pd bitsample;
#N canvas 0 22 450 300 bitsample 0;
#X obj 88 49 inlet;
#X floatatom 108 131 5 0 0 0 - - -, f 5;
#X obj 108 91 f;
#X obj 199 49 inlet;
#X obj 108 208 outlet;
#X obj 108 168 > 0;
#X text 88 11 float;
#X text 199 11 bang;
#X text 108 231 binary (1 or 0);
#X connect 0 0 2 1;
#X connect 1 0 5 0;
#X connect 2 0 1 0;
#X connect 3 0 2 0;
#X connect 5 0 4 0;
#X restore 349 372 pd bitsample;
#N canvas 0 22 450 300 bitsample 0;
#X obj 88 49 inlet;
#X floatatom 108 131 5 0 0 0 - - -, f 5;
#X obj 108 91 f;
#X obj 199 49 inlet;
#X obj 108 208 outlet;
#X obj 108 168 > 0;
#X text 88 11 float;
#X text 199 11 bang;
#X text 108 231 binary (1 or 0);
#X connect 0 0 2 1;
#X connect 1 0 5 0;
#X connect 2 0 1 0;
#X connect 3 0 2 0;
#X connect 5 0 4 0;
#X restore 349 400 pd bitsample;
#N canvas 0 22 450 300 bitsample 0;
#X obj 88 49 inlet;
#X floatatom 108 131 5 0 0 0 - - -, f 5;
#X obj 108 91 f;
#X obj 199 49 inlet;
#X obj 108 208 outlet;
#X obj 108 168 > 0;
#X text 88 11 float;
#X text 199 11 bang;
#X text 108 231 binary (1 or 0);
#X connect 0 0 2 1;
#X connect 1 0 5 0;
#X connect 2 0 1 0;
#X connect 3 0 2 0;
#X connect 5 0 4 0;
#X restore 349 426 pd bitsample;
#N canvas 0 22 450 300 bitsample 0;
#X obj 88 49 inlet;
#X floatatom 108 131 5 0 0 0 - - -, f 5;
#X obj 108 91 f;
#X obj 199 49 inlet;
#X obj 108 208 outlet;
#X obj 108 168 > 0;
#X text 88 11 float;
#X text 199 11 bang;
#X text 108 231 binary (1 or 0);
#X connect 0 0 2 1;
#X connect 1 0 5 0;
#X connect 2 0 1 0;
#X connect 3 0 2 0;
#X connect 5 0 4 0;
#X restore 349 451 pd bitsample;
#X obj 481 499 pack f f f;
#N canvas 0 22 834 620 bytepack 0;
#X obj 279 112 t b b l, f 29;
#X obj 279 264 list split 1, f 29;
#X obj 279 312 list trim;
#X msg 342 62 1 0 1 0 1 0 1;
#X obj 342 35 bng 15 250 50 0 empty empty empty 17 7 0 10 -262144 -1
-1;
#X obj 153 317 bng 15 250 50 0 empty empty empty 17 7 0 10 -262144
-1 -1;
#X obj 279 153 until, f 12;
#X obj 279 194 list append, f 29;
#X obj 279 378 expr ($f2 << 1) + $f1, f 29;
#X floatatom 450 353 5 0 0 0 - - -, f 5;
#X msg 450 327 0;
#X obj 279 38 inlet;
#X obj 264 449 outlet;
#X obj 264 409 i;
#X text 657 228 Packs a list of binary integers (0 or 1) into a byte
(0-256).;
#X text 657 185 reference: Trevor Wilson;
#X text 657 203 https://github.com/wilsontr;
#X connect 0 0 6 0;
#X connect 0 1 10 0;
#X connect 0 2 7 1;
#X connect 1 0 2 0;
#X connect 1 1 7 1;
#X connect 1 2 5 0;
#X connect 2 0 8 0;
#X connect 3 0 0 0;
#X connect 4 0 3 0;
#X connect 5 0 6 1;
#X connect 5 0 13 0;
#X connect 6 0 7 0;
#X connect 7 0 1 0;
#X connect 8 0 9 0;
#X connect 8 0 13 1;
#X connect 9 0 8 1;
#X connect 10 0 9 0;
#X connect 11 0 0 0;
#X connect 13 0 12 0;
#X restore 426 597 pd bytepack;
#X connect 2 0 23 0;
#X connect 3 0 24 0;
#X connect 6 0 24 1;
#X connect 7 0 8 0;
#X connect 8 0 6 0;
#X connect 8 1 14 0;
#X connect 8 2 13 0;
#X connect 8 3 12 0;
#X connect 8 4 11 0;
#X connect 8 5 10 0;
#X connect 8 6 9 0;
#X connect 8 7 31 1;
#X connect 9 0 30 1;
#X connect 10 0 29 1;
#X connect 11 0 28 1;
#X connect 12 0 27 1;
#X connect 13 0 26 1;
#X connect 14 0 25 1;
#X connect 15 0 33 0;
#X connect 16 0 17 0;
#X connect 18 0 19 0;
#X connect 20 0 7 0;
#X connect 21 0 20 0;
#X connect 22 0 21 0;
#X connect 23 0 7 0;
#X connect 24 0 25 0;
#X connect 25 0 26 0;
#X connect 26 0 27 0;
#X connect 27 0 28 0;
#X connect 28 0 29 0;
#X connect 29 0 30 0;
#X connect 29 0 32 2;
#X connect 30 0 31 0;
#X connect 30 0 32 1;
#X connect 31 0 15 0;
#X connect 31 0 18 0;
#X connect 31 0 32 0;
#X connect 32 0 33 0;
#X connect 33 0 16 0;
#X restore 53 261 pd shiftregister;
#X obj 53 290 outlet;
#X obj 352 37 inlet;
#X connect 0 0 4 0;
#X connect 1 0 8 0;
#X connect 2 0 1 0;
#X connect 3 0 0 0;
#X connect 4 0 5 0;
#X connect 5 0 6 0;
#X connect 6 0 8 1;
#X connect 8 0 9 0;
#X connect 8 1 6 1;
#X connect 10 0 0 1;
#X connect 10 0 1 1;
#X restore 1182 628 pd rungler;
#X obj 688 423 expr~ 1 + ($v1 * $v2);
#X obj 1155 444 sig~;
#X floatatom 1155 411 5 0 0 0 - - -, f 5;
#X obj 1197 452 expr~ 1 + ($v1 * $v2);
#X obj 1182 649 sig~;
#X floatatom 811 390 5 0 0 0 - - -, f 5;
#X floatatom 1320 391 5 0 0 0 - - -, f 5;
#X obj 671 506 *~;
#X obj 1182 509 *~;
#X obj 1181 893 lop~ 50;
#X obj 861 378 * 0.2;
#X obj 861 402 + 0.75;
#X obj 861 431 clip 0.75 0.95;
#X obj 1370 382 * 0.2;
#X obj 1370 406 + 0.75;
#X obj 1370 435 clip 0.75 0.95;
#X floatatom 1221 820 5 0 0 0 - - -, f 5;
#X floatatom 1250 629 5 0 0 0 - - -, f 5;
#X obj 113 263 hsl 128 15 0 1 0 0 empty empty attenuate -2 -8 0 10
-262144 -1 -1 6300 1;
#X obj 1182 671 -~;
#X obj 255 263 hsl 128 15 0 1 0 0 empty empty smooth -2 -8 0 10 -262144
-1 -1 800 1;
#X obj 1221 801 + 2;
#X obj 1221 780 * 100;
#N canvas 107 387 1416 623 filter~ 0;
#X obj 310 461 outlet~;
#X obj 27 24 inlet~;
#X obj 89 131 vcf~;
#X obj 99 22 inlet~;
#X obj 172 20 inlet;
#X obj 137 225 vcf~;
#X obj 445 77 inlet;
#X obj 401 316 *~;
#X text 446 58 crossfade;
#X obj 308 316 *~;
#X obj 308 346 +~;
#X obj 416 238 sin;
#X obj 323 238 cos;
#X obj 445 102 * 2;
#X obj 445 168 / 4;
#X obj 445 190 * 3.14159;
#X floatatom 445 212 5 0 0 0 - - -, f 5;
#X obj 416 287 line~;
#X obj 323 287 line~;
#X obj 323 260 pack f 50;
#X obj 416 260 pack f 50, f 22;
#X connect 1 0 2 0;
#X connect 2 0 5 0;
#X connect 2 1 5 0;
#X connect 3 0 2 1;
#X connect 3 0 5 1;
#X connect 4 0 2 2;
#X connect 4 0 5 2;
#X connect 5 0 9 0;
#X connect 5 1 7 0;
#X connect 6 0 13 0;
#X connect 7 0 10 1;
#X connect 9 0 10 0;
#X connect 10 0 0 0;
#X connect 11 0 20 0;
#X connect 12 0 19 0;
#X connect 13 0 14 0;
#X connect 14 0 15 0;
#X connect 15 0 16 0;
#X connect 16 0 11 0;
#X connect 16 0 12 0;
#X connect 17 0 7 1;
#X connect 18 0 9 1;
#X connect 19 0 18 0;
#X connect 20 0 17 0;
#X restore 98 818 pd filter~;
#X obj 374 750 expr~ 1 + ($v1 * $v2), f 24;
#X obj 285 724 abs~;
#X obj 98 849 clip~ -0.9 0.9;
#X obj 285 702 *~;
#X floatatom 845 789 5 0 0 0 - - -, f 5;
#X obj 113 330 hsl 128 15 0 1 0 0 empty empty filtermix -2 -8 0 10
-262144 -1 -1 6000 1;
#X obj 285 778 +~;
#X obj 1250 676 line~;
#X msg 1250 648 \$1 50;
#X msg 1220 839 \$1 50;
#X obj 1220 867 line;
#X obj 398 298 hsl 128 15 0 1 0 0 empty empty frequency_sweep -2 -8
0 10 -262144 -1 -1 4900 1;
#X obj 300 656 line~;
#X msg 300 629 \$1 50;
#X obj 285 749 *~;
#X obj 300 566 * 30;
#X obj 300 587 + 0.5;
#X floatatom 425 607 5 0 0 0 - - -, f 5;
#X obj 113 299 hsl 128 15 0 1 0 0 empty empty freq_rungler -2 -8 0
10 -262144 -1 -1 3100 1;
#X msg 425 628 \$1 50;
#X obj 425 655 line~;
#X floatatom 351 608 5 0 0 0 - - -, f 5;
#X obj 256 330 hsl 128 15 0 1 0 0 empty empty center_freq -2 -8 0 10
-262144 -1 -1 1100 1;
#X msg 351 629 \$1 50;
#X obj 351 656 line~;
#X obj 351 566 * 5000;
#X obj 351 587 + 20;
#X floatatom 596 743 5 0 0 0 - - -, f 5;
#X obj 398 330 hsl 128 15 0 1 0 0 empty empty resonance -2 -8 0 10
-262144 -1 -1 1700 1;
#X msg 596 764 \$1 50;
#X obj 596 791 line;
#X obj 596 701 * 20;
#X obj 596 722 + 0.01;
#X floatatom 300 608 5 0 0 0 - - -, f 5;
#X obj 113 138 hsl 128 15 0 1 0 0 empty empty oscA -2 -8 0 10 -262144
-1 -1 1700 1;
#X obj 113 199 hsl 128 15 0 1 0 0 empty empty oscB -2 -8 0 10 -262144
-1 -1 2600 1;
#X obj 113 168 hsl 128 15 0 1 0 0 empty empty runglerA -2 -8 0 10 -262144
-1 -1 0 1;
#X obj 113 230 hsl 128 15 0 1 0 0 empty empty runglerB -2 -8 0 10 -262144
-1 -1 0 1;
#X obj 98 885 outlet~;
#X obj 1239 606 bang~;
#X obj 1181 916 send~ \$0-rungler;
#X obj 374 725 receive~ \$0-rungler;
#X obj 688 334 receive~ \$0-rungler;
#X obj 1197 337 receive~ \$0-rungler;
#X floatatom 253 138 10 0 0 2 scale - -, f 10;
#X floatatom 321 138 10 0 0 2 offset - -, f 10;
#X floatatom 253 168 10 0 0 2 scale - -, f 10;
#X floatatom 321 168 10 0 0 2 offset - -, f 10;
#X floatatom 253 199 10 0 0 2 scale - -, f 10;
#X floatatom 321 199 10 0 0 2 offset - -, f 10;
#X floatatom 253 230 10 0 0 2 scale - -, f 10;
#X floatatom 321 230 10 0 0 2 offset - -, f 10;
#X floatatom 253 299 10 0 0 2 scale - -, f 10;
#X floatatom 321 299 10 0 0 2 offset - -, f 10;
#X obj 152 18 r \$1;
#N canvas 402 230 298 390 scale_offset 0;
#X obj 87 237 +;
#X obj 87 205 *;
#X obj 87 70 inlet;
#X obj 156 95 t b f;
#X obj 156 70 inlet;
#X obj 87 172 f;
#X obj 198 95 t b f;
#X obj 198 70 inlet;
#X obj 87 279 outlet;
#X connect 0 0 8 0;
#X connect 1 0 0 0;
#X connect 2 0 5 0;
#X connect 3 0 5 0;
#X connect 3 1 1 1;
#X connect 4 0 3 0;
#X connect 5 0 1 0;
#X connect 6 0 5 0;
#X connect 6 1 0 1;
#X connect 7 0 6 0;
#X restore 592 334 pd scale_offset;
#N canvas 402 230 298 390 scale_offset 0;
#X obj 87 237 +;
#X obj 87 205 *;
#X obj 87 70 inlet;
#X obj 156 95 t b f;
#X obj 156 70 inlet;
#X obj 87 172 f;
#X obj 198 95 t b f;
#X obj 198 70 inlet;
#X obj 87 279 outlet;
#X connect 0 0 8 0;
#X connect 1 0 0 0;
#X connect 2 0 5 0;
#X connect 3 0 5 0;
#X connect 3 1 1 1;
#X connect 4 0 3 0;
#X connect 5 0 1 0;
#X connect 6 0 5 0;
#X connect 6 1 0 1;
#X connect 7 0 6 0;
#X restore 811 334 pd scale_offset;
#N canvas 402 230 298 390 scale_offset 0;
#X obj 87 237 +;
#X obj 87 205 *;
#X obj 87 70 inlet;
#X obj 156 95 t b f;
#X obj 156 70 inlet;
#X obj 87 172 f;
#X obj 198 95 t b f;
#X obj 198 70 inlet;
#X obj 87 279 outlet;
#X connect 0 0 8 0;
#X connect 1 0 0 0;
#X connect 2 0 5 0;
#X connect 3 0 5 0;
#X connect 3 1 1 1;
#X connect 4 0 3 0;
#X connect 5 0 1 0;
#X connect 6 0 5 0;
#X connect 6 1 0 1;
#X connect 7 0 6 0;
#X restore 1099 337 pd scale_offset;
#N canvas 402 230 298 390 scale_offset 0;
#X obj 87 237 +;
#X obj 87 205 *;
#X obj 87 70 inlet;
#X obj 156 95 t b f;
#X obj 156 70 inlet;
#X obj 87 172 f;
#X obj 198 95 t b f;
#X obj 198 70 inlet;
#X obj 87 279 outlet;
#X connect 0 0 8 0;
#X connect 1 0 0 0;
#X connect 2 0 5 0;
#X connect 3 0 5 0;
#X connect 3 1 1 1;
#X connect 4 0 3 0;
#X connect 5 0 1 0;
#X connect 6 0 5 0;
#X connect 6 1 0 1;
#X connect 7 0 6 0;
#X restore 1320 337 pd scale_offset;
#N canvas 402 230 298 390 scale_offset 0;
#X obj 87 237 +;
#X obj 87 205 *;
#X obj 87 70 inlet;
#X obj 156 95 t b f;
#X obj 156 70 inlet;
#X obj 87 172 f;
#X obj 198 95 t b f;
#X obj 198 70 inlet;
#X obj 87 279 outlet;
#X connect 0 0 8 0;
#X connect 1 0 0 0;
#X connect 2 0 5 0;
#X connect 3 0 5 0;
#X connect 3 1 1 1;
#X connect 4 0 3 0;
#X connect 5 0 1 0;
#X connect 6 0 5 0;
#X connect 6 1 0 1;
#X connect 7 0 6 0;
#X restore 425 564 pd scale_offset;
#X obj 110 18 inlet;
#X obj 110 53 route /Arate /Ascale /Aoffset /Aslope;
#X obj 329 78 route /ARrate /ARscale /ARoffset /ARwidth;
#X obj 572 102 route /Brate /Bscale /Boffset /Bslope;
#X obj 791 127 route /BRrate /BRscale /BRoffset /BRwidth;
#X obj 1034 183 route /FRrate /BFRscale /FRoffset;
#X obj 1034 154 route /Ratten /Rsmooth;
#X obj 1229 207 route /Fsweep /Fmix /Fcenter /Fres;
#X connect 0 0 12 1;
#X connect 1 0 0 0;
#X connect 2 0 1 0;
#X connect 3 0 4 0;
#X connect 4 0 5 0;
#X connect 5 0 2 0;
#X connect 6 0 13 1;
#X connect 7 0 6 0;
#X connect 8 0 7 0;
#X connect 9 0 10 0;
#X connect 10 0 11 0;
#X connect 11 0 8 0;
#X connect 12 0 48 0;
#X connect 13 0 52 0;
#X connect 14 0 24 1;
#X connect 15 0 32 0;
#X connect 16 0 14 1;
#X connect 17 0 15 0;
#X connect 18 0 16 0;
#X connect 19 0 35 0;
#X connect 20 0 24 0;
#X connect 21 0 20 1;
#X connect 22 0 21 0;
#X connect 23 0 38 0;
#X connect 24 0 29 0;
#X connect 25 0 32 1;
#X connect 26 0 33 0;
#X connect 27 0 26 0;
#X connect 28 0 33 1;
#X connect 29 0 44 0;
#X connect 30 0 25 1;
#X connect 31 0 28 1;
#X connect 32 0 14 0;
#X connect 32 0 12 0;
#X connect 33 0 20 0;
#X connect 33 0 13 0;
#X connect 34 0 89 0;
#X connect 35 0 36 0;
#X connect 36 0 37 0;
#X connect 37 0 18 0;
#X connect 38 0 39 0;
#X connect 39 0 40 0;
#X connect 40 0 22 0;
#X connect 41 0 58 0;
#X connect 42 0 57 0;
#X connect 43 0 42 0;
#X connect 44 0 34 0;
#X connect 45 0 47 0;
#X connect 46 0 41 0;
#X connect 47 0 46 0;
#X connect 48 0 51 0;
#X connect 49 0 55 1;
#X connect 50 0 63 0;
#X connect 51 0 87 0;
#X connect 52 0 50 0;
#X connect 53 0 48 3;
#X connect 54 0 53 0;
#X connect 55 0 48 1;
#X connect 56 0 44 1;
#X connect 57 0 56 0;
#X connect 58 0 59 0;
#X connect 59 0 34 1;
#X connect 60 0 64 0;
#X connect 61 0 52 1;
#X connect 62 0 61 0;
#X connect 63 0 55 0;
#X connect 64 0 65 0;
#X connect 65 0 82 0;
#X connect 66 0 68 0;
#X connect 67 0 108 0;
#X connect 68 0 69 0;
#X connect 69 0 49 1;
#X connect 70 0 72 0;
#X connect 71 0 74 0;
#X connect 72 0 73 0;
#X connect 73 0 63 1;
#X connect 74 0 75 0;
#X connect 75 0 70 0;
#X connect 76 0 78 0;
#X connect 77 0 80 0;
#X connect 78 0 79 0;
#X connect 79 0 48 2;
#X connect 80 0 81 0;
#X connect 81 0 76 0;
#X connect 82 0 62 0;
#X connect 83 0 104 0;
#X connect 84 0 106 0;
#X connect 85 0 105 0;
#X connect 86 0 107 0;
#X connect 88 0 24 2;
#X connect 90 0 49 0;
#X connect 91 0 25 0;
#X connect 92 0 28 0;
#X connect 93 0 104 1;
#X connect 94 0 104 2;
#X connect 95 0 105 1;
#X connect 96 0 105 2;
#X connect 97 0 106 1;
#X connect 98 0 106 2;
#X connect 99 0 107 1;
#X connect 100 0 107 2;
#X connect 101 0 108 1;
#X connect 102 0 108 2;
#X connect 103 0 110 0;
#X connect 104 0 17 0;
#X connect 105 0 30 0;
#X connect 106 0 27 0;
#X connect 107 0 31 0;
#X connect 108 0 66 0;
#X connect 109 0 110 0;
#X connect 110 0 83 0;
#X connect 110 1 93 0;
#X connect 110 2 94 0;
#X connect 110 3 3 0;
#X connect 110 4 111 0;
#X connect 111 0 85 0;
#X connect 111 1 95 0;
#X connect 111 2 96 0;
#X connect 111 3 19 0;
#X connect 111 4 112 0;
#X connect 112 0 84 0;
#X connect 112 1 97 0;
#X connect 112 2 98 0;
#X connect 112 3 9 0;
#X connect 112 4 113 0;
#X connect 113 0 86 0;
#X connect 113 1 99 0;
#X connect 113 2 100 0;
#X connect 113 3 23 0;
#X connect 113 4 115 0;
#X connect 114 0 67 0;
#X connect 114 1 101 0;
#X connect 114 2 102 0;
#X connect 114 3 116 0;
#X connect 115 0 43 0;
#X connect 115 1 45 0;
#X connect 115 2 114 0;
#X connect 116 0 60 0;
#X connect 116 1 54 0;
#X connect 116 2 71 0;
#X connect 116 3 77 0;
#X coords 0 -1 1 1 440 280 1 100 100;
