#N canvas 180 183 885 696 10;
#X obj 77 3 cnv 15 380 60 empty empty empty 20 12 0 14 -262130 -66577
0;
#X text 91 22 Stereo delay as a GUI module. The instantiation argument
is the address for sending parameter messages.;
#X obj 577 106 loadbang;
#X msg 577 135 \; sd2 /wet 1 \; sd2 /ltime 0.8 \; sd2 /rtime 0.7 \;
sd2 /lfb 0.65 \; sd2 /rfb 0.85 \;;
#N canvas 0 22 822 524 soundfile_player 0;
#X obj 152 91 openpanel;
#X msg 152 117 open \$1;
#X obj 152 68 bng 15 250 50 0 empty empty empty 17 7 0 10 -262144 -1
-1;
#X obj 274 174 soundfiler;
#N canvas 0 22 450 300 (subpatch) 0;
#X array soundbuffer-ch 88576 float 2;
#X coords 0 1 88576 -1 200 140 1;
#X restore 482 284 graph;
#X obj 290 235 expr 44100 / $f1;
#X floatatom 290 272 5 0 0 0 - - -;
#X obj 290 331 phasor~;
#X obj 245 364 *~;
#X obj 290 208 float;
#X obj 390 174 bng 15 250 50 0 empty empty empty 17 7 0 10 -262144
-1 -1;
#X msg 329 306 0;
#X text 357 307 <- cue position;
#X text 333 271 <- playback speed;
#X obj 245 446 outlet~;
#X obj 152 39 inlet;
#X obj 599 39 inlet;
#X obj 486 450 outlet;
#X obj 245 397 tabread4~ soundbuffer-ch;
#X msg 152 144 read -resize \$1 soundbuffer-ch;
#X connect 0 0 1 0;
#X connect 1 0 19 0;
#X connect 2 0 0 0;
#X connect 3 0 8 1;
#X connect 3 0 9 0;
#X connect 5 0 6 0;
#X connect 6 0 7 0;
#X connect 6 0 17 0;
#X connect 7 0 8 0;
#X connect 8 0 18 0;
#X connect 9 0 5 0;
#X connect 10 0 9 0;
#X connect 11 0 7 1;
#X connect 15 0 2 0;
#X connect 16 0 6 0;
#X connect 18 0 14 0;
#X connect 19 0 3 0;
#X restore 89 208 pd soundfile_player;
#X obj 244 139 bng 30 250 50 0 empty empty empty 17 7 0 10 -262144
-1 -1;
#X floatatom 244 176 10 0 0 0 - - -;
#X text 281 142 <- open soundfile from disk;
#X text 322 172 <- change speed of playback (default);
#X obj 93 589 dac~;
#X msg 252 516 \; pd dsp \$1;
#X obj 252 489 tgl 15 0 empty empty empty 17 7 0 10 -262144 -1 -1 0
1;
#X text 89 7 [6_sdelay~];
#X obj 89 275 6_sdelay~ sd2;
#X connect 2 0 3 0;
#X connect 4 0 13 0;
#X connect 4 0 13 1;
#X connect 5 0 4 0;
#X connect 6 0 4 1;
#X connect 11 0 10 0;
#X connect 13 0 9 0;
#X connect 13 1 9 1;
