#N canvas 372 89 1095 794 10;
#X obj 252 130 phasor~;
#X floatatom 252 107 5 0 0 0 - - -, f 5;
#X obj 251 423 expr~ $v1 * 2 - 1;
#X obj 252 178 expr~ $v1 > 0.5;
#X obj 354 129 phasor~;
#X obj 354 177 expr~ $v1 > 0.5;
#X obj 252 210 expr~ $v1 && $v2;
#X obj 252 369 expr~ $v1 || $v2;
#X floatatom 448 346 5 0 0 0 - - -, f 5;
#X obj 448 444 expr~ $v1 > 0.5;
#X obj 448 416 phasor~;
#X text 469 204 <- && operation checks to see if they are both 1 \,
if so outputs 1 \, if not outputs 0;
#X text 556 444 <- square wave LFO oscillator;
#X text 376 370 <- the || operation checks to see if they are both
0 \, if so it outputs 1 \, if not outputs 0;
#X obj -211 -99 r \$1;
#X obj -249 -98 inlet;
#X obj 110 257 hsl 80 15 0 1 0 0 empty empty ph2 -2 -8 0 10 -262144
-1 -1 1580 1;
#X obj 110 332 hsl 80 15 0 1 0 0 empty empty lfo -2 -8 0 10 -262144
-1 -1 3160 1;
#X obj 109 181 hsl 80 15 0 1 0 0 empty empty ph1 -2 -8 0 10 -262144
-1 -1 3160 1;
#X text 375 600 based on FLOSS manual example: Squarewaves and Logic
;
#X text 83 448 sqrl~;
#X obj 251 484 outlet~;
#X obj 252 58 * 5000;
#X obj 252 81 + 100;
#X floatatom 354 108 5 0 0 0 - - -, f 5;
#X obj 354 59 * 5000;
#X obj 354 82 + 100;
#X floatatom 107 201 5 0 0 1 scale1 - -, f 5;
#X floatatom 107 223 5 0 0 1 offset1 - -, f 5;
#X floatatom 107 277 5 0 0 1 scale2 - -, f 5;
#X floatatom 107 298 5 0 0 1 offset2 - -, f 5;
#X floatatom 107 352 5 0 0 1 scalelfo - -, f 5;
#X floatatom 107 373 5 0 0 1 offsetlfo - -, f 5;
#X obj -211 -56 route /ph1 /scale1 /offset1 /ph2 /scale2 /offset2 /lfo
/scalelfo /offsetlfo;
#X obj 252 36 line;
#X obj 354 36 line;
#X obj 252 11 pack f 50;
#X obj 354 10 pack f 50;
#X obj 448 277 line;
#X obj 448 251 pack f 50;
#X obj -109 417 cnv 15 75 25 empty empty empty 20 12 0 14 -262130 -66577
0;
#X text -103 419 [s3g 2014];
#X obj -37 263 t b;
#X obj -37 289 t b;
#X obj -37 315 t b;
#X obj -37 341 t b;
#X obj -37 367 t b;
#X obj -37 393 t b;
#X obj 448 300 * 10;
#X obj 448 323 + 0.1;
#X obj 398 -66 inlet~;
#X text 594 -69 adding feedback;
#X obj 252 156 *~;
#X obj 500 1 sig~ 1;
#X obj 500 31 +~;
#X obj 547 1 sig~ 1;
#X obj 547 31 +~;
#X obj 354 153 *~;
#X obj 454 -67 inlet~;
#X obj 430 513 outlet~;
#X obj 590 515 outlet~;
#X obj 514 -28 expr~ $v1 > 0.5;
#X obj 411 -30 expr~ $v1 > 0.5;
#X connect 0 0 52 0;
#X connect 1 0 0 0;
#X connect 2 0 21 0;
#X connect 3 0 6 0;
#X connect 4 0 57 0;
#X connect 5 0 6 1;
#X connect 6 0 7 0;
#X connect 6 0 59 0;
#X connect 7 0 2 0;
#X connect 7 0 60 0;
#X connect 8 0 10 0;
#X connect 9 0 7 1;
#X connect 10 0 9 0;
#X connect 14 0 33 0;
#X connect 15 0 33 0;
#X connect 16 0 37 0;
#X connect 17 0 39 0;
#X connect 18 0 36 0;
#X connect 22 0 23 0;
#X connect 23 0 1 0;
#X connect 24 0 4 0;
#X connect 25 0 26 0;
#X connect 26 0 24 0;
#X connect 27 0 22 1;
#X connect 27 0 42 0;
#X connect 28 0 23 1;
#X connect 28 0 43 0;
#X connect 29 0 25 1;
#X connect 29 0 44 0;
#X connect 30 0 26 1;
#X connect 30 0 45 0;
#X connect 31 0 46 0;
#X connect 31 0 48 1;
#X connect 32 0 47 0;
#X connect 32 0 49 1;
#X connect 33 0 18 0;
#X connect 33 1 27 0;
#X connect 33 2 28 0;
#X connect 33 3 16 0;
#X connect 33 4 29 0;
#X connect 33 5 30 0;
#X connect 33 6 17 0;
#X connect 33 7 31 0;
#X connect 33 8 32 0;
#X connect 34 0 22 0;
#X connect 35 0 25 0;
#X connect 36 0 34 0;
#X connect 37 0 35 0;
#X connect 38 0 48 0;
#X connect 39 0 38 0;
#X connect 42 0 36 0;
#X connect 43 0 36 0;
#X connect 44 0 37 0;
#X connect 45 0 37 0;
#X connect 46 0 39 0;
#X connect 47 0 39 0;
#X connect 48 0 49 0;
#X connect 49 0 8 0;
#X connect 50 0 62 0;
#X connect 52 0 3 0;
#X connect 53 0 54 0;
#X connect 54 0 52 1;
#X connect 55 0 56 0;
#X connect 56 0 57 1;
#X connect 57 0 5 0;
#X connect 58 0 61 0;
#X connect 61 0 56 1;
#X connect 62 0 54 1;
#X coords 0 -1 1 1 100 300 1 100 100;
