#N canvas 70 23 1424 957 10;
#X obj 288 828 pack f f f f f f f f f f f f f f f f;
#X floatatom 165 641 5 0 0 0 - - -, f 5;
#X floatatom 202 641 5 0 0 0 - - -, f 5;
#X floatatom 237 641 5 0 0 0 - - -, f 5;
#X floatatom 273 641 5 0 0 0 - - -, f 5;
#X floatatom 309 641 5 0 0 0 - - -, f 5;
#X floatatom 346 641 5 0 0 0 - - -, f 5;
#X floatatom 381 641 5 0 0 0 - - -, f 5;
#X floatatom 417 641 5 0 0 0 - - -, f 5;
#X floatatom 467 641 5 0 0 0 - - -, f 5;
#X floatatom 504 641 5 0 0 0 - - -, f 5;
#X floatatom 539 641 5 0 0 0 - - -, f 5;
#X floatatom 575 641 5 0 0 0 - - -, f 5;
#X floatatom 617 641 5 0 0 0 - - -, f 5;
#X floatatom 654 641 5 0 0 0 - - -, f 5;
#X floatatom 689 641 5 0 0 0 - - -, f 5;
#X floatatom 725 641 5 0 0 0 - - -, f 5;
#X obj 288 871 outlet;
#X obj 165 451 t b f;
#X obj 202 451 t b f;
#X obj 239 451 t b f;
#X obj 279 451 t b f;
#X obj 316 451 t b f;
#X obj 353 451 t b f;
#X obj 390 451 t b f;
#X obj 441 451 t b f;
#X obj 478 451 t b f;
#X obj 515 451 t b f;
#X obj 552 451 t b f;
#X obj 590 451 t b f;
#X obj 627 451 t b f;
#X obj 664 451 t b f;
#X obj 701 451 t b f;
#X obj 559 -35 inlet;
#X obj 596 -35 r \$1;
#X obj 115 120 vradio 15 1 0 16 empty empty empty 0 -8 0 10 -262144
-1 -1 0;
#X obj 130 120 vradio 15 1 0 16 empty empty empty 0 -8 0 10 -262144
-1 -1 0;
#X obj 145 120 vradio 15 1 0 16 empty empty empty 0 -8 0 10 -262144
-1 -1 0;
#X obj 160 120 vradio 15 1 0 16 empty empty empty 0 -8 0 10 -262144
-1 -1 0;
#X obj 175 120 vradio 15 1 0 16 empty empty empty 0 -8 0 10 -262144
-1 -1 0;
#X obj 190 120 vradio 15 1 0 16 empty empty empty 0 -8 0 10 -262144
-1 -1 0;
#X obj 205 120 vradio 15 1 0 16 empty empty empty 0 -8 0 10 -262144
-1 -1 0;
#X obj 220 120 vradio 15 1 0 16 empty empty empty 0 -8 0 10 -262144
-1 -1 0;
#X obj 235 120 vradio 15 1 0 16 empty empty empty 0 -8 0 10 -262144
-1 -1 0;
#X obj 250 120 vradio 15 1 0 16 empty empty empty 0 -8 0 10 -262144
-1 -1 0;
#X obj 265 120 vradio 15 1 0 16 empty empty empty 0 -8 0 10 -262144
-1 -1 0;
#X obj 280 120 vradio 15 1 0 16 empty empty empty 0 -8 0 10 -262144
-1 -1 0;
#X obj 295 120 vradio 15 1 0 16 empty empty empty 0 -8 0 10 -262144
-1 -1 0;
#X obj 310 120 vradio 15 1 0 16 empty empty empty 0 -8 0 10 -262144
-1 -1 0;
#X obj 325 120 vradio 15 1 0 16 empty empty empty 0 -8 0 10 -262144
-1 -1 0;
#X obj 340 120 vradio 15 1 0 16 empty empty empty 0 -8 0 10 -262144
-1 -1 0;
#X obj 91 32 route /c1 /c2 /c3 /c4 /c5 /c6 /c7 /c8;
#X obj 330 31 route /c9 /c10 /c11 /c12 /c13 /c14 /c15 /c16;
#X connect 0 0 17 0;
#X connect 1 0 0 0;
#X connect 2 0 0 1;
#X connect 3 0 0 2;
#X connect 4 0 0 3;
#X connect 5 0 0 4;
#X connect 6 0 0 5;
#X connect 7 0 0 6;
#X connect 8 0 0 7;
#X connect 9 0 0 8;
#X connect 10 0 0 9;
#X connect 11 0 0 10;
#X connect 12 0 0 11;
#X connect 13 0 0 12;
#X connect 14 0 0 13;
#X connect 15 0 0 14;
#X connect 16 0 0 15;
#X connect 18 0 1 0;
#X connect 18 1 2 0;
#X connect 19 0 1 0;
#X connect 19 1 3 0;
#X connect 20 0 1 0;
#X connect 20 1 4 0;
#X connect 21 0 1 0;
#X connect 21 1 5 0;
#X connect 22 0 1 0;
#X connect 22 1 6 0;
#X connect 23 0 1 0;
#X connect 23 1 7 0;
#X connect 24 0 1 0;
#X connect 24 1 8 0;
#X connect 25 0 1 0;
#X connect 25 1 9 0;
#X connect 26 0 1 0;
#X connect 26 1 10 0;
#X connect 27 0 1 0;
#X connect 27 1 11 0;
#X connect 28 0 1 0;
#X connect 28 1 12 0;
#X connect 29 0 1 0;
#X connect 29 1 13 0;
#X connect 30 0 1 0;
#X connect 30 1 14 0;
#X connect 31 0 1 0;
#X connect 31 1 15 0;
#X connect 32 0 1 0;
#X connect 32 1 16 0;
#X connect 33 0 51 0;
#X connect 34 0 51 0;
#X connect 35 0 1 0;
#X connect 36 0 18 0;
#X connect 37 0 19 0;
#X connect 38 0 20 0;
#X connect 39 0 21 0;
#X connect 40 0 22 0;
#X connect 41 0 23 0;
#X connect 42 0 24 0;
#X connect 43 0 25 0;
#X connect 44 0 26 0;
#X connect 45 0 27 0;
#X connect 46 0 28 0;
#X connect 47 0 29 0;
#X connect 48 0 30 0;
#X connect 49 0 31 0;
#X connect 50 0 32 0;
#X connect 51 0 35 0;
#X connect 51 1 36 0;
#X connect 51 2 37 0;
#X connect 51 3 38 0;
#X connect 51 4 39 0;
#X connect 51 5 40 0;
#X connect 51 6 41 0;
#X connect 51 7 42 0;
#X connect 51 8 52 0;
#X connect 52 1 43 0;
#X connect 52 2 44 0;
#X connect 52 3 45 0;
#X connect 52 4 46 0;
#X connect 52 5 47 0;
#X connect 52 6 48 0;
#X connect 52 7 49 0;
#X connect 52 8 50 0;
#X coords 0 -1 1 1 270 270 1 100 100;
